<svg version="1.1" xmlns="http://www.w3.org/2000/svg" xmlns:xlink="http://www.w3.org/1999/xlink" stroke-linecap="round" stroke-linejoin="round" stroke-width="0" fill-rule="evenodd" clip-rule="evenodd" id="NFdwVCpBtOQOljPZEQqJ_bottom" viewBox="21716.9996393 -110974.6603607 247650.00072150002 99202.0607215" width="247.65000072150002mm" height="99.2020607215mm" class="w-100 h-100"><defs><style>.NFdwVCpBtOQOljPZEQqJ_fr4 {color: #666666;}
.NFdwVCpBtOQOljPZEQqJ_cu {color: #cccccc;}
.NFdwVCpBtOQOljPZEQqJ_cf {color: #cc9933;}
.NFdwVCpBtOQOljPZEQqJ_sm {color: #004200; opacity: 0.75;}
.NFdwVCpBtOQOljPZEQqJ_ss {color: #ffffff;}
.NFdwVCpBtOQOljPZEQqJ_sp {color: #999999;}
.NFdwVCpBtOQOljPZEQqJ_out {color: #000000;}</style><circle cx="0" cy="0" r="4300" id="ZIq2eL4TE1aro6k2Mdsw_pad-13"/><circle cx="0" cy="0" r="2200" id="ZIq2eL4TE1aro6k2Mdsw_pad-14"/><circle cx="0" cy="0" r="43.3" id="XFOZhDmiIQP5c6afyjEc_pad-1"/><circle cx="0" cy="0" r="84.65" id="XFOZhDmiIQP5c6afyjEc_pad-2"/><g id="NFdwVCpBtOQOljPZEQqJ_bottom_copper"><path d="M 88870.514 -77567.504 89013.371 -77686.552 89299.085 -77686.552 89441.942 -77567.504 89513.371 -77448.457 89584.8 -77210.361 89584.8 -76496.076 89513.371 -76257.98 89441.942 -76138.933 89299.085 -76019.885 89013.371 -76019.885 88870.514 -76138.933 M 88013.371 -77686.552 88156.228 -77567.504 88227.657 -77448.457 88299.085 -77210.361 88299.085 -76496.076 88227.657 -76257.98 88156.228 -76138.933 88013.371 -76019.885 87799.085 -76019.885 87656.228 -76138.933 87584.8 -76257.98 87513.371 -76496.076 87513.371 -77210.361 87584.8 -77448.457 87656.228 -77567.504 87799.085 -77686.552 88013.371 -77686.552 M 86941.942 -77567.504 86799.085 -77686.552 86513.371 -77686.552 86370.514 -77567.504 86299.085 -77329.409 86299.085 -77210.361 86370.514 -76972.266 86513.371 -76853.219 86727.657 -76853.219 86870.514 -76734.171 86941.942 -76496.076 86941.942 -76377.028 86870.514 -76138.933 86727.657 -76019.885 86513.371 -76019.885 86370.514 -76138.933 M 85084.8 -77567.504 85227.657 -77686.552 85513.371 -77686.552 85656.228 -77567.504 85727.657 -77329.409 85727.657 -76377.028 85656.228 -76138.933 85513.371 -76019.885 85227.657 -76019.885 85084.8 -76138.933 85013.371 -76377.028 85013.371 -76615.123 85727.657 -76853.219 M 84513.371 -76019.885 84156.228 -77686.552 M 83799.085 -76019.885 84156.228 -77686.552 84299.085 -78281.79 84370.514 -78400.838 84513.371 -78519.885 M 83441.942 -76019.885 82870.514 -76019.885 M 83227.657 -77686.552 83227.657 -75543.695 83156.228 -75305.6 83013.371 -75186.552 82870.514 -75186.552 M 81727.657 -77686.552 81727.657 -76377.028 81799.085 -76138.933 81941.942 -76019.885 82227.657 -76019.885 82370.514 -76138.933 M 81727.657 -77567.504 81870.514 -77686.552 82227.657 -77686.552 82370.514 -77567.504 82441.942 -77329.409 82441.942 -77091.314 82370.514 -76853.219 82227.657 -76734.171 81870.514 -76734.171 81727.657 -76615.123 M 81013.371 -76019.885 81013.371 -77686.552 M 81013.371 -76257.98 80941.942 -76138.933 80799.085 -76019.885 80584.8 -76019.885 80441.942 -76138.933 80370.514 -76377.028 80370.514 -77686.552 M 79656.228 -76019.885 79656.228 -77686.552 M 79656.228 -76257.98 79584.8 -76138.933 79441.942 -76019.885 79227.657 -76019.885 79084.8 -76138.933 79013.371 -76377.028 79013.371 -77686.552 M 78299.085 -77686.552 78299.085 -76019.885 M 78299.085 -75186.552 78370.514 -75305.6 78299.085 -75424.647 78227.657 -75305.6 78299.085 -75186.552 78299.085 -75424.647 M 77799.085 -76019.885 77227.657 -76019.885 M 77584.8 -75186.552 77584.8 -77329.409 77513.371 -77567.504 77370.514 -77686.552 77227.657 -77686.552 M 76084.8 -76019.885 76084.8 -77686.552 M 76727.657 -76019.885 76727.657 -77329.409 76656.228 -77567.504 76513.371 -77686.552 76299.085 -77686.552 76156.228 -77567.504 76084.8 -77448.457 M 75584.8 -76019.885 75013.371 -76019.885 M 75370.514 -75186.552 75370.514 -77329.409 75299.085 -77567.504 75156.228 -77686.552 75013.371 -77686.552 M 74727.657 -76019.885 74156.228 -76019.885 M 74513.371 -75186.552 74513.371 -77329.409 74441.942 -77567.504 74299.085 -77686.552 74156.228 -77686.552 M 73656.228 -77686.552 73656.228 -76019.885 M 73656.228 -75186.552 73727.657 -75305.6 73656.228 -75424.647 73584.8 -75305.6 73656.228 -75186.552 73656.228 -75424.647" fill="none" stroke-width="200"/><path d="M 91837.934 -78001.377 92407.317 -77999.2 92976.7 -77997.024 92976.7 -77590.624 91837.934 -77586.272 91837.934 -76925.991 92557.601 -76925.991 92557.601 -76494.191 91837.934 -76494.191 91837.934 -75816.977 92407.317 -75814.8 92976.7 -75812.624 92978.963 -75598.841 92981.225 -75385.058 91837.934 -75385.058 91837.934 -74766.991 91397.667 -74766.991 91397.667 -75385.058 90263.134 -75385.058 90263.134 -75816.857 91397.667 -75816.857 91397.667 -76494.191 90686.467 -76494.191 90686.467 -76925.991 91397.667 -76925.991 91397.667 -77586.391 90263.134 -77586.391 90263.134 -78001.257 91397.448 -78001.257 91401.9 -78589.691 91619.917 -78591.95 91837.934 -78594.21 91837.934 -78001.377 91837.934 -78001.377"/><path d="M 91837.934 -78001.377 92407.317 -77999.2 92976.7 -77997.024 92976.7 -77590.624 91837.934 -77586.272 91837.934 -76925.991 92557.601 -76925.991 92557.601 -76494.191 91837.934 -76494.191 91837.934 -75816.977 92407.317 -75814.8 92976.7 -75812.624 92978.963 -75598.841 92981.225 -75385.058 91837.934 -75385.058 91837.934 -74766.991 91397.667 -74766.991 91397.667 -75385.058 90263.134 -75385.058 90263.134 -75816.857 91397.667 -75816.857 91397.667 -76494.191 90686.467 -76494.191 90686.467 -76925.991 91397.667 -76925.991 91397.667 -77586.391 90263.134 -77586.391 90263.134 -78001.257 91397.448 -78001.257 91401.9 -78589.691 91619.917 -78591.95 91837.934 -78594.21 91837.934 -78001.377" fill="none" stroke-width="10"/><path d="M 227271.166 -85872.6 63737.832 -85872.6 M 227271.166 -36872.6 63737.832 -36872.6 A 24500 24500 0 0 1 63737.832 -85872.6 M 227271.166 -85872.6 A 24500 24500 0 0 1 227271.166 -36872.6" fill="none" stroke-width="3000"/><path d="M 107446.455 -54404.914 107515.902 -55245.407 110690.902 -55307.226 113865.902 -55369.046 113865.902 -60258.565 108295.727 -60258.565 108295.727 -61818.214 113865.902 -61818.214 113865.902 -67388.39 110650.215 -67388.39 109389.865 -67392.096 108504.579 -67409.455 107923.826 -67449.829 107577.077 -67522.58 107393.802 -67637.071 107303.47 -67802.662 107293.095 -67834.004 107240.202 -68426.587 107293.095 -68725.232 107364.595 -68882.14 107506.064 -68997.17 107779.352 -69076.799 108246.308 -69127.504 108968.784 -69155.761 110008.628 -69168.047 111427.691 -69170.839 111548.436 -69170.846 113099.38 -69162.855 114250.007 -69136.889 115045.358 -69089.959 115530.479 -69019.078 115750.412 -68921.255 115769.826 -68890.753 115793.764 -68607.969 115812.385 -67933.748 115825.347 -66922.238 115832.311 -65627.588 115832.935 -64103.947 115826.878 -62405.464 115818.535 -61148.209 115759.762 -53685.758 111568.384 -53625.089 107377.007 -53564.421 107446.455 -54404.914 107446.455 -54404.914"/><path d="M 107446.455 -54404.914 107515.902 -55245.407 110690.902 -55307.226 113865.902 -55369.046 113865.902 -60258.565 108295.727 -60258.565 108295.727 -61818.214 113865.902 -61818.214 113865.902 -67388.39 110650.215 -67388.39 109389.865 -67392.096 108504.579 -67409.455 107923.826 -67449.829 107577.077 -67522.58 107393.802 -67637.071 107303.47 -67802.662 107293.095 -67834.004 107240.202 -68426.587 107293.095 -68725.232 107364.595 -68882.14 107506.064 -68997.17 107779.352 -69076.799 108246.308 -69127.504 108968.784 -69155.761 110008.628 -69168.047 111427.691 -69170.839 111548.436 -69170.846 113099.38 -69162.855 114250.007 -69136.889 115045.358 -69089.959 115530.479 -69019.078 115750.412 -68921.255 115769.826 -68890.753 115793.764 -68607.969 115812.385 -67933.748 115825.347 -66922.238 115832.311 -65627.588 115832.935 -64103.947 115826.878 -62405.464 115818.535 -61148.209 115759.762 -53685.758 111568.384 -53625.089 107377.007 -53564.421 107446.455 -54404.914" fill="none" stroke-width="10"/><path d="M 151768.257 -53611.709 151062.461 -53761.425 150660.08 -53964.267 150441.743 -54287.844 150087.974 -54988.002 149617.225 -56023.123 149047.948 -57351.588 148398.595 -58931.778 147870.179 -60256.955 147190.849 -61974.661 146652.634 -63315.859 146236.597 -64319.925 145923.803 -65026.231 145695.314 -65474.15 145532.196 -65703.056 145415.512 -65752.321 145326.326 -65661.318 145298.416 -65604.324 145148.376 -65251.202 144854.811 -64548.191 144443.542 -63557.58 143940.392 -62341.661 143371.182 -60962.725 142872.143 -59751.359 142263.686 -58291.109 141690.936 -56950.326 141181.011 -55789.859 140761.03 -54870.559 140458.114 -54253.275 140315.188 -54014.078 139939.292 -53730.186 139358.329 -53597.665 138755.627 -53574.355 138035.658 -53622.04 137485.022 -53744.07 137305.2 -53841.723 137227.072 -54049.532 137164.019 -54521.474 137114.984 -55288.372 137078.911 -56381.05 137054.742 -57830.332 137041.421 -59667.043 137037.832 -61639.969 137037.832 -69170.846 139036.747 -69170.846 139095.623 -62237.193 139154.499 -55303.539 141466.269 -61067.456 142285.351 -63111.525 142955.627 -64780.829 143496.749 -66113.147 143928.366 -67146.261 144270.129 -67917.95 144541.689 -68465.995 144762.695 -68828.177 144952.798 -69042.277 145131.648 -69146.075 145318.895 -69177.351 145534.19 -69173.886 145680.975 -69170.846 146550.394 -69170.846 148401.711 -64436.197 148996.408 -62917.369 149594.566 -61393.415 150157.415 -59962.844 150646.183 -58724.166 151022.099 -57775.891 151098.238 -57584.881 151943.448 -55468.214 151965.902 -69170.846 153971.165 -69170.846 153971.165 -61639.969 153966.561 -59434.752 153952.045 -57644.238 153926.558 -56237.602 153889.046 -55184.02 153838.45 -54452.667 153773.714 -54012.72 153703.797 -53841.723 153258.717 -53645.022 152556.94 -53570.63 151768.257 -53611.709 151768.257 -53611.709"/><path d="M 151768.257 -53611.709 151062.461 -53761.425 150660.08 -53964.267 150441.743 -54287.844 150087.974 -54988.002 149617.225 -56023.123 149047.948 -57351.588 148398.595 -58931.778 147870.179 -60256.955 147190.849 -61974.661 146652.634 -63315.859 146236.597 -64319.925 145923.803 -65026.231 145695.314 -65474.15 145532.196 -65703.056 145415.512 -65752.321 145326.326 -65661.318 145298.416 -65604.324 145148.376 -65251.202 144854.811 -64548.191 144443.542 -63557.58 143940.392 -62341.661 143371.182 -60962.725 142872.143 -59751.359 142263.686 -58291.109 141690.936 -56950.326 141181.011 -55789.859 140761.03 -54870.559 140458.114 -54253.275 140315.188 -54014.078 139939.292 -53730.186 139358.329 -53597.665 138755.627 -53574.355 138035.658 -53622.04 137485.022 -53744.07 137305.2 -53841.723 137227.072 -54049.532 137164.019 -54521.474 137114.984 -55288.372 137078.911 -56381.05 137054.742 -57830.332 137041.421 -59667.043 137037.832 -61639.969 137037.832 -69170.846 139036.747 -69170.846 139095.623 -62237.193 139154.499 -55303.539 141466.269 -61067.456 142285.351 -63111.525 142955.627 -64780.829 143496.749 -66113.147 143928.366 -67146.261 144270.129 -67917.95 144541.689 -68465.995 144762.695 -68828.177 144952.798 -69042.277 145131.648 -69146.075 145318.895 -69177.351 145534.19 -69173.886 145680.975 -69170.846 146550.394 -69170.846 148401.711 -64436.197 148996.408 -62917.369 149594.566 -61393.415 150157.415 -59962.844 150646.183 -58724.166 151022.099 -57775.891 151098.238 -57584.881 151943.448 -55468.214 151965.902 -69170.846 153971.165 -69170.846 153971.165 -61639.969 153966.561 -59434.752 153952.045 -57644.238 153926.558 -56237.602 153889.046 -55184.02 153838.45 -54452.667 153773.714 -54012.72 153703.797 -53841.723 153258.717 -53645.022 152556.94 -53570.63 151768.257 -53611.709" fill="none" stroke-width="10"/><path d="M 214913.29 -53592.908 214115.325 -53613.69 212842.281 -53659.09 211918.087 -53720.813 211245.982 -53813.287 210729.206 -53950.936 210270.998 -54148.188 210165.495 -54202.567 209181.823 -54944.017 208525.342 -55903.228 208193.476 -56998.252 208183.647 -58147.139 208493.281 -59267.941 209119.8 -60278.711 210060.629 -61097.499 210388.156 -61285.405 211037.243 -61621.061 210459.1 -62075.829 210014.036 -62548.261 209545.242 -63227.185 209352.312 -63573.827 208998.929 -64315.384 208595.564 -65230.051 208182.1 -66218.251 207798.423 -67180.411 207484.416 -68016.958 207279.966 -68628.317 207222.043 -68892.14 207358.452 -69080.808 207815.293 -69143.275 208265.636 -69127.352 209309.23 -69059.442 210369.552 -66385.758 210987.252 -64919.83 211545.347 -63834.482 212092.303 -63077.986 212676.586 -62598.611 213346.661 -62344.628 214150.993 -62264.307 214231.388 -62263.828 215454.296 -62263.828 215577.306 -69059.442 216476.617 -69125.628 217081.878 -69131.384 217482.565 -69064.257 217534.95 -69032.792 217573.293 -68779.322 217608.31 -68133.986 217638.852 -67150.526 217663.768 -65882.684 217681.908 -64384.203 217692.123 -62708.825 217693.972 -61600.858 217690.029 -59489.252 217677.198 -57783.81 217653.979 -56445.145 217618.872 -55433.869 217613.706 -55356.811 215465.902 -55356.811 215465.902 -60481.372 214010.5 -60481.372 213111.577 -60431.711 212275.421 -60303.042 211797.229 -60164.714 211027.728 -59627.856 210548.672 -58851.185 210375.215 -57945.3 210522.515 -57020.797 211005.728 -56188.277 211222.327 -55969.53 211609.774 -55659.036 211998.567 -55475.515 212520.653 -55386.164 213307.981 -55358.18 213686.961 -55356.811 215465.902 -55356.811 217613.706 -55356.811 217570.377 -54710.594 217506.993 -54235.931 217427.221 -53970.492 217401.728 -53928.278 217241.316 -53766.729 216988.789 -53659.743 216567.623 -53599.994 215901.297 -53580.157 214913.29 -53592.908 214913.29 -53592.908"/><path d="M 214913.29 -53592.908 214115.325 -53613.69 212842.281 -53659.09 211918.087 -53720.813 211245.982 -53813.287 210729.206 -53950.936 210270.998 -54148.188 210165.495 -54202.567 209181.823 -54944.017 208525.342 -55903.228 208193.476 -56998.252 208183.647 -58147.139 208493.281 -59267.941 209119.8 -60278.711 210060.629 -61097.499 210388.156 -61285.405 211037.243 -61621.061 210459.1 -62075.829 210014.036 -62548.261 209545.242 -63227.185 209352.312 -63573.827 208998.929 -64315.384 208595.564 -65230.051 208182.1 -66218.251 207798.423 -67180.411 207484.416 -68016.958 207279.966 -68628.317 207222.043 -68892.14 207358.452 -69080.808 207815.293 -69143.275 208265.636 -69127.352 209309.23 -69059.442 210369.552 -66385.758 210987.252 -64919.83 211545.347 -63834.482 212092.303 -63077.986 212676.586 -62598.611 213346.661 -62344.628 214150.993 -62264.307 214231.388 -62263.828 215454.296 -62263.828 215577.306 -69059.442 216476.617 -69125.628 217081.878 -69131.384 217482.565 -69064.257 217534.95 -69032.792 217573.293 -68779.322 217608.31 -68133.986 217638.852 -67150.526 217663.768 -65882.684 217681.908 -64384.203 217692.123 -62708.825 217693.972 -61600.858 217690.029 -59489.252 217677.198 -57783.81 217653.979 -56445.145 217618.872 -55433.869 217613.706 -55356.811 215465.902 -55356.811 215465.902 -60481.372 214010.5 -60481.372 213111.577 -60431.711 212275.421 -60303.042 211797.229 -60164.714 211027.728 -59627.856 210548.672 -58851.185 210375.215 -57945.3 210522.515 -57020.797 211005.728 -56188.277 211222.327 -55969.53 211609.774 -55659.036 211998.567 -55475.515 212520.653 -55386.164 213307.981 -55358.18 213686.961 -55356.811 215465.902 -55356.811 217613.706 -55356.811 217570.377 -54710.594 217506.993 -54235.931 217427.221 -53970.492 217401.728 -53928.278 217241.316 -53766.729 216988.789 -53659.743 216567.623 -53599.994 215901.297 -53580.157 214913.29 -53592.908" fill="none" stroke-width="10"/><path d="M 79331.497 -53469.493 77720.398 -53898.02 76372.752 -54677.934 75299.545 -55803.243 74633.004 -56977.275 74271.036 -58141.582 74051.036 -59586.521 73976.778 -61169.076 74052.038 -62746.235 74280.591 -64174.982 74428.76 -64713.772 75137.272 -66336.73 76107.993 -67601.095 77349.205 -68513.074 78869.188 -69078.874 80547.592 -69300.138 81535.015 -69307.917 82472.99 -69259.52 83174.525 -69165.251 83229.937 -69152.348 84645.386 -68583.933 85815.824 -67657.301 86727.859 -66394.921 87368.098 -64819.267 87723.148 -62952.81 87794.837 -61492.894 87755.108 -60951.199 85532.721 -60951.199 85514.473 -62763.339 85289.329 -64227.745 84843.166 -65398.441 84161.861 -66329.454 84114.008 -66378.061 83074.645 -67117.36 81820.303 -67530.757 80462.638 -67595.474 79308.361 -67358.51 78281.721 -66798.26 77373.909 -65881.818 76671.316 -64697.423 76645.85 -64639.102 76405.594 -63988.16 76258.145 -63307.349 76184.346 -62461.083 76165.04 -61313.774 76165.184 -61237.137 76257.772 -59521.695 76539.174 -58149.012 77029.602 -57049.359 77592.813 -56312.123 78479.878 -55666.862 79609.319 -55274.948 80851.403 -55144.563 82076.394 -55283.892 83154.557 -55701.119 83505.025 -55939.178 84373.73 -56814.019 84981.789 -57884.808 85357.829 -59222.305 85530.475 -60897.269 85532.721 -60951.199 87755.108 -60951.199 87638.113 -59356.053 87177.531 -57536.629 86417.315 -56039.803 85361.691 -54870.757 84014.882 -54034.672 82381.113 -53536.729 81195.06 -53398.346 79331.497 -53469.493 79331.497 -53469.493"/><path d="M 79331.497 -53469.493 77720.398 -53898.02 76372.752 -54677.934 75299.545 -55803.243 74633.004 -56977.275 74271.036 -58141.582 74051.036 -59586.521 73976.778 -61169.076 74052.038 -62746.235 74280.591 -64174.982 74428.76 -64713.772 75137.272 -66336.73 76107.993 -67601.095 77349.205 -68513.074 78869.188 -69078.874 80547.592 -69300.138 81535.015 -69307.917 82472.99 -69259.52 83174.525 -69165.251 83229.937 -69152.348 84645.386 -68583.933 85815.824 -67657.301 86727.859 -66394.921 87368.098 -64819.267 87723.148 -62952.81 87794.837 -61492.894 87755.108 -60951.199 85532.721 -60951.199 85514.473 -62763.339 85289.329 -64227.745 84843.166 -65398.441 84161.861 -66329.454 84114.008 -66378.061 83074.645 -67117.36 81820.303 -67530.757 80462.638 -67595.474 79308.361 -67358.51 78281.721 -66798.26 77373.909 -65881.818 76671.316 -64697.423 76645.85 -64639.102 76405.594 -63988.16 76258.145 -63307.349 76184.346 -62461.083 76165.04 -61313.774 76165.184 -61237.137 76257.772 -59521.695 76539.174 -58149.012 77029.602 -57049.359 77592.813 -56312.123 78479.878 -55666.862 79609.319 -55274.948 80851.403 -55144.563 82076.394 -55283.892 83154.557 -55701.119 83505.025 -55939.178 84373.73 -56814.019 84981.789 -57884.808 85357.829 -59222.305 85530.475 -60897.269 85532.721 -60951.199 87755.108 -60951.199 87638.113 -59356.053 87177.531 -57536.629 86417.315 -56039.803 85361.691 -54870.757 84014.882 -54034.672 82381.113 -53536.729 81195.06 -53398.346 79331.497 -53469.493" fill="none" stroke-width="10"/><path d="M 179869.075 -53416.767 178440.079 -53712.262 177222.174 -54308.563 176260.222 -55104.429 175528.067 -55936.311 175001.286 -56804.42 174651.849 -57800.011 174451.726 -59014.334 174372.886 -60538.645 174369.054 -61261.197 174388.955 -62518.344 174446.733 -63449.831 174557.601 -64175.036 174736.767 -64813.335 174865.846 -65160.319 175666.824 -66695.599 176717.115 -67869.413 178032.622 -68692.517 179629.25 -69175.668 181018.101 -69321.309 182444.107 -69300.352 183595.569 -69131.253 183847.554 -69060.498 185016.666 -68489.38 186111.238 -67605.096 186991.488 -66535.294 187360.881 -65852.202 187774.15 -64515.672 188013.674 -62925.566 188068.085 -61498.448 185953.036 -61498.448 185834.149 -63014.722 185522.622 -64417.937 185041.885 -65606.125 184415.371 -66477.315 184345.701 -66542.986 183351.913 -67166.5 182132.666 -67515.41 180826.386 -67572.334 179571.497 -67319.888 179233.897 -67184.941 178136.792 -66449.192 177314.681 -65365.407 176769.472 -63937.689 176503.079 -62170.134 176474.674 -61266.225 176610.086 -59363.878 177015.849 -57814.282 177691.254 -56618.255 178635.591 -55776.614 179848.151 -55290.178 181328.225 -55159.764 181751.181 -55183.808 183076.385 -55482.964 184150.196 -56142.565 184976.454 -57167.087 185558.995 -58561.007 185855.851 -59971.086 185953.036 -61498.448 188068.085 -61498.448 188078.492 -61225.505 187967.646 -59559.112 187680.177 -58070.008 187417.932 -57310.658 186566.492 -55837.604 185425.619 -54700.269 184009.402 -53908.112 182331.93 -53470.59 181587.955 -53396.824 179869.075 -53416.767 179869.075 -53416.767"/><path d="M 179869.075 -53416.767 178440.079 -53712.262 177222.174 -54308.563 176260.222 -55104.429 175528.067 -55936.311 175001.286 -56804.42 174651.849 -57800.011 174451.726 -59014.334 174372.886 -60538.645 174369.054 -61261.197 174388.955 -62518.344 174446.733 -63449.831 174557.601 -64175.036 174736.767 -64813.335 174865.846 -65160.319 175666.824 -66695.599 176717.115 -67869.413 178032.622 -68692.517 179629.25 -69175.668 181018.101 -69321.309 182444.107 -69300.352 183595.569 -69131.253 183847.554 -69060.498 185016.666 -68489.38 186111.238 -67605.096 186991.488 -66535.294 187360.881 -65852.202 187774.15 -64515.672 188013.674 -62925.566 188068.085 -61498.448 185953.036 -61498.448 185834.149 -63014.722 185522.622 -64417.937 185041.885 -65606.125 184415.371 -66477.315 184345.701 -66542.986 183351.913 -67166.5 182132.666 -67515.41 180826.386 -67572.334 179571.497 -67319.888 179233.897 -67184.941 178136.792 -66449.192 177314.681 -65365.407 176769.472 -63937.689 176503.079 -62170.134 176474.674 -61266.225 176610.086 -59363.878 177015.849 -57814.282 177691.254 -56618.255 178635.591 -55776.614 179848.151 -55290.178 181328.225 -55159.764 181751.181 -55183.808 183076.385 -55482.964 184150.196 -56142.565 184976.454 -57167.087 185558.995 -58561.007 185855.851 -59971.086 185953.036 -61498.448 188068.085 -61498.448 188078.492 -61225.505 187967.646 -59559.112 187680.177 -58070.008 187417.932 -57310.658 186566.492 -55837.604 185425.619 -54700.269 184009.402 -53908.112 182331.93 -53470.59 181587.955 -53396.824 179869.075 -53416.767" fill="none" stroke-width="10"/><use xlink:href="#ZIq2eL4TE1aro6k2Mdsw_pad-13" x="241366.999" y="-38133.4"/><use xlink:href="#ZIq2eL4TE1aro6k2Mdsw_pad-13" x="49717.001" y="-38133.4"/><use xlink:href="#ZIq2eL4TE1aro6k2Mdsw_pad-14" x="227380.8" y="-91922.6"/><use xlink:href="#ZIq2eL4TE1aro6k2Mdsw_pad-14" x="63703.2" y="-91922.6"/><use xlink:href="#ZIq2eL4TE1aro6k2Mdsw_pad-14" x="48844.2" y="-53822.6"/><use xlink:href="#ZIq2eL4TE1aro6k2Mdsw_pad-14" x="242239.8" y="-53822.6"/><use xlink:href="#ZIq2eL4TE1aro6k2Mdsw_pad-14" x="145504.499" y="-53822.6"/><use xlink:href="#ZIq2eL4TE1aro6k2Mdsw_pad-14" x="265366.999" y="-15497.599"/><use xlink:href="#ZIq2eL4TE1aro6k2Mdsw_pad-14" x="265366.999" y="-29772.6"/><use xlink:href="#ZIq2eL4TE1aro6k2Mdsw_pad-14" x="25717.001" y="-29772.6"/><use xlink:href="#ZIq2eL4TE1aro6k2Mdsw_pad-14" x="25717.001" y="-15772.6"/><path d="M 266022.539 -12482.601 266561.408 -12534.944 267046.132 -12680.812 267493.287 -12918.047 267885.849 -13237.621 268208.862 -13627.355 268450.023 -14072.408 268600.148 -14555.829 268657.001 -15092.077 268656.999 -107628.138 268604.656 -108167.009 268458.788 -108651.732 268221.552 -109098.888 267901.979 -109491.449 267512.243 -109814.463 267067.192 -110055.623 266583.771 -110205.748 266047.529 -110262.6 25061.466 -110264.659 24522.591 -110212.316 24037.868 -110066.448 23590.712 -109829.212 23198.151 -109509.639 22875.137 -109119.903 22633.977 -108674.852 22483.852 -108191.431 22426.999 -107655.183 22426.999 -91643.377 224545.8 -91643.377 224545.8 -92201.823 224654.748 -92749.539 224868.456 -93265.476 225178.712 -93729.807 225573.593 -94124.688 226037.924 -94434.944 226553.861 -94648.652 227101.577 -94757.6 227660.023 -94757.6 228207.739 -94648.652 228723.676 -94434.944 229188.007 -94124.688 229582.888 -93729.807 229893.144 -93265.476 230106.852 -92749.539 230215.8 -92201.823 230215.8 -91643.377 230106.852 -91095.661 229893.144 -90579.724 229582.888 -90115.393 229188.007 -89720.512 228723.676 -89410.256 228207.739 -89196.548 227660.023 -89087.6 227101.577 -89087.6 226553.861 -89196.548 226037.924 -89410.256 225573.593 -89720.512 225178.712 -90115.393 224868.456 -90579.724 224654.748 -91095.661 224545.8 -91643.377 22426.999 -91643.377 22426.999 -60506.383 37117.786 -60506.383 37117.786 -60528.74 37128.082 -62495.171 37131.463 -62569.613 37134.063 -62644.073 37135.856 -62666.358 37303.825 -64625.63 37313.168 -64699.588 37321.728 -64773.571 37325.302 -64795.64 37649.861 -66735.13 37665.105 -66808.097 37679.571 -66881.159 37684.904 -66902.871 38163.963 -68810.084 38185.004 -68881.574 38205.289 -68953.261 38212.346 -68974.475 38842.818 -70837.124 38869.532 -70906.715 38895.493 -70976.524 38904.229 -70997.104 39682.052 -72803.191 39714.249 -72870.391 39745.737 -72937.918 39756.095 -72957.731 40676.259 -74695.619 40713.76 -74760.052 40750.545 -74824.805 40762.458 -74843.724 41819.035 -76502.217 41861.557 -76563.397 41903.441 -76625.028 41916.834 -76642.931 43103.017 -78211.346 43150.3 -78268.91 43197.002 -78326.995 43211.787 -78343.765 44519.935 -79811.998 44571.704 -79865.606 44622.89 -79919.734 44638.973 -79935.265 46060.657 -81293.855 46116.55 -81343.132 46171.922 -81392.989 46189.198 -81407.18 47715.261 -82647.378 47774.942 -82692.025 47834.118 -82737.269 47852.476 -82750.028 49473.086 -83863.843 49536.163 -83903.565 49598.769 -83943.912 49618.092 -83955.158 51322.808 -84935.413 51388.863 -84969.946 51454.507 -85005.144 51474.647 -85014.793 51474.67 -85014.805 51474.691 -85014.814 53252.51 -85855.185 53321.064 -85884.284 53389.378 -85914.13 53410.251 -85922.142 55249.762 -86617.235 55320.494 -86640.764 55390.916 -86665.013 55412.347 -86671.32 55412.365 -86671.326 55412.382 -86671.33 57301.694 -87216.653 57374.068 -87234.43 57446.227 -87252.957 57468.105 -87257.528 57468.111 -87257.529 57468.116 -87257.53 59395.093 -87649.577 59468.606 -87661.484 59542.069 -87674.173 59564.25 -87676.975 61516.465 -87913.22 61590.733 -87919.195 61664.943 -87925.949 61687.275 -87926.963 61687.277 -87926.963 63590.24 -88003.393 63632.95 -88007.6 227376.048 -88007.6 227381.619 -88007.051 227538.901 -88006.228 227576.142 -88004.537 227613.407 -88004.537 227635.741 -88003.523 229599.68 -87904.034 229673.905 -87897.279 229748.156 -87891.305 229770.334 -87888.503 229770.338 -87888.503 229770.341 -87888.502 231719.972 -87631.829 231793.383 -87619.148 231866.951 -87607.233 231888.836 -87602.661 233811.605 -87190.454 233883.79 -87171.92 233956.135 -87154.151 233977.562 -87147.844 233977.585 -87147.838 233977.605 -87147.831 235861.1 -86582.756 235931.568 -86558.492 236002.255 -86534.978 236023.127 -86526.966 237855.258 -85812.648 237923.572 -85782.802 237992.126 -85753.703 238012.278 -85744.048 238012.289 -85744.043 238012.299 -85744.038 239781.231 -84885.091 239846.921 -84849.869 239912.932 -84815.359 239932.245 -84804.119 239932.254 -84804.114 239932.261 -84804.109 241626.612 -83806.06 241689.266 -83765.682 241752.295 -83725.991 241770.64 -83713.24 241770.654 -83713.231 241770.665 -83713.222 243379.51 -82582.508 243438.712 -82537.245 243498.367 -82492.617 243515.63 -82478.437 243515.644 -82478.426 243515.656 -82478.415 245028.635 -81222.316 245084 -81172.466 245139.9 -81123.183 245155.983 -81107.652 246563.362 -79734.248 246614.546 -79680.122 246666.318 -79626.511 246681.103 -79609.74 247973.804 -78127.889 248020.492 -78069.821 248067.788 -78012.242 248081.18 -77994.34 249250.874 -76413.59 249292.731 -76351.998 249335.281 -76290.778 249347.194 -76271.859 250386.346 -74602.392 250423.131 -74537.639 250460.632 -74473.206 250470.983 -74453.405 250470.99 -74453.393 250470.995 -74453.383 251372.905 -72705.964 251404.401 -72638.42 251436.59 -72571.237 251445.326 -72550.657 252204.194 -70736.524 252230.167 -70666.684 252256.869 -70597.123 252263.926 -70575.909 252874.858 -68706.76 252895.143 -68635.074 252916.184 -68563.583 252921.517 -68541.871 253380.577 -66629.748 253395.05 -66556.655 253410.287 -66483.719 253413.861 -66461.649 253718.093 -64518.868 253726.656 -64444.859 253735.996 -64370.924 253737.789 -64348.639 253885.231 -62387.717 253887.831 -62313.264 253891.212 -62238.817 253891.212 -62216.46 253880.916 -60250.029 253877.535 -60175.587 253874.935 -60101.127 253873.142 -60078.842 253705.173 -58119.571 253695.831 -58045.619 253687.27 -57971.629 253683.696 -57949.56 253359.137 -56010.071 253343.899 -55937.132 253329.427 -55864.04 253324.094 -55842.328 252845.035 -53935.116 252823.99 -53863.612 252803.709 -53791.94 252796.652 -53770.725 252166.18 -51908.076 252139.466 -51838.485 252113.505 -51768.676 252104.769 -51748.096 251326.946 -49942.01 251294.751 -49874.814 251263.261 -49807.282 251252.903 -49787.469 250332.739 -48049.581 250295.251 -47985.171 250258.453 -47920.394 250246.552 -47901.497 250246.54 -47901.476 250246.528 -47901.459 249189.963 -46242.983 249147.42 -46181.772 249105.556 -46120.171 249092.164 -46102.269 247905.981 -44533.853 247858.66 -44476.243 247811.996 -44418.205 247797.226 -44401.452 247797.212 -44401.435 247797.199 -44401.422 246489.063 -42933.203 246437.293 -42879.593 246386.107 -42825.466 246370.025 -42809.935 244989.176 -41490.367 245200.264 -41279.279 245740.339 -40470.999 246112.349 -39572.886 246301.999 -38619.455 246301.999 -37647.345 246112.349 -36693.914 245740.339 -35795.801 245200.264 -34987.521 244512.878 -34300.135 243704.598 -33760.06 242806.485 -33388.05 241853.054 -33198.4 240880.944 -33198.4 239927.513 -33388.05 239029.4 -33760.06 238221.12 -34300.135 237533.734 -34987.521 236993.659 -35795.801 236707.631 -36486.334 235759.235 -36127.965 235688.52 -36104.441 235618.082 -36080.187 235596.651 -36073.88 235596.633 -36073.874 235596.616 -36073.87 233707.303 -35528.547 233634.993 -35510.786 233562.771 -35492.242 233540.893 -35487.672 233540.887 -35487.671 233540.882 -35487.67 231613.905 -35095.623 231540.408 -35083.719 231466.93 -35071.027 231444.749 -35068.225 229492.533 -34831.98 229418.265 -34826.005 229344.055 -34819.251 229321.723 -34818.237 229321.721 -34818.237 227418.758 -34741.807 227376.048 -34737.6 63632.95 -34737.6 63627.379 -34738.149 63470.097 -34738.972 63432.856 -34740.663 63395.591 -34740.663 63373.257 -34741.677 61409.318 -34841.166 61335.093 -34847.921 61260.842 -34853.895 61238.664 -34856.697 61238.66 -34856.697 61238.657 -34856.698 59289.026 -35113.371 59215.593 -35126.055 59142.048 -35137.967 59120.163 -35142.539 57197.393 -35554.746 57125.218 -35573.277 57052.863 -35591.049 57031.43 -35597.358 57031.414 -35597.362 57031.4 -35597.367 55147.898 -36162.444 55077.442 -36186.704 55006.743 -36210.222 54985.87 -36218.234 54365.504 -36460.105 54090.341 -35795.801 53550.266 -34987.521 52862.88 -34300.135 52054.6 -33760.06 51156.487 -33388.05 50203.056 -33198.4 49230.946 -33198.4 48277.515 -33388.05 47379.402 -33760.06 46571.122 -34300.135 45883.736 -34987.521 45343.661 -35795.801 44971.651 -36693.914 44782.001 -37647.345 44782.001 -38619.455 44971.651 -39572.886 45343.661 -40470.999 45883.736 -41279.279 46060.669 -41456.212 45980.363 -41522.884 45924.995 -41572.738 45869.097 -41622.018 45853.015 -41637.548 44445.636 -43010.952 44394.426 -43065.105 44342.68 -43118.69 44327.895 -43135.46 43035.194 -44617.311 42988.502 -44675.384 42941.21 -44732.958 42927.818 -44750.86 41758.124 -46331.61 41716.247 -46393.23 41673.717 -46454.422 41661.817 -46473.321 41661.803 -46473.341 41661.793 -46473.359 40622.652 -48142.808 40585.843 -48207.602 40548.366 -48271.995 40538.015 -48291.795 40538.008 -48291.807 40538.008 -48291.808 39636.093 -50039.237 39604.606 -50106.76 39572.408 -50173.963 39563.672 -50194.543 38804.804 -52008.675 38778.831 -52078.516 38752.129 -52148.076 38745.072 -52169.291 38134.14 -54038.44 38113.848 -54110.148 38092.814 -54181.617 38087.481 -54203.329 37628.421 -56115.453 37613.938 -56188.594 37598.711 -56261.482 37595.141 -56283.529 37595.136 -56283.552 37595.134 -56283.573 37290.905 -58226.333 37282.342 -58300.34 37273.002 -58374.276 37271.209 -58396.561 37123.767 -60357.483 37121.167 -60431.935 37117.786 -60506.383 22426.999 -60506.383 22427 -29493.377 22882.001 -29493.377 22882.001 -30051.823 22990.949 -30599.539 23204.657 -31115.476 23514.913 -31579.807 23909.794 -31974.688 24374.125 -32284.944 24890.062 -32498.652 25437.778 -32607.6 25996.224 -32607.6 26543.94 -32498.652 27059.877 -32284.944 27524.208 -31974.688 27919.089 -31579.807 28229.345 -31115.476 28443.053 -30599.539 28552.001 -30051.823 28552.001 -29493.377 262531.999 -29493.377 262531.999 -30051.823 262640.947 -30599.539 262854.655 -31115.476 263164.911 -31579.807 263559.792 -31974.688 264024.123 -32284.944 264540.06 -32498.652 265087.776 -32607.6 265646.222 -32607.6 266193.938 -32498.652 266709.875 -32284.944 267174.206 -31974.688 267569.087 -31579.807 267879.343 -31115.476 268093.051 -30599.539 268201.999 -30051.823 268201.999 -29493.377 268093.051 -28945.661 267879.343 -28429.724 267569.087 -27965.393 267174.206 -27570.512 266709.875 -27260.256 266193.938 -27046.548 265646.222 -26937.6 265087.776 -26937.6 264540.06 -27046.548 264024.123 -27260.256 263559.792 -27570.512 263164.911 -27965.393 262854.655 -28429.724 262640.947 -28945.661 262531.999 -29493.377 28552.001 -29493.377 28443.053 -28945.661 28229.345 -28429.724 27919.089 -27965.393 27524.208 -27570.512 27059.877 -27260.256 26543.94 -27046.548 25996.224 -26937.6 25437.778 -26937.6 24890.062 -27046.548 24374.125 -27260.256 23909.794 -27570.512 23514.913 -27965.393 23204.657 -28429.724 22990.949 -28945.661 22882.001 -29493.377 22427 -29493.377 22427 -15493.377 22882.001 -15493.377 22882.001 -16051.823 22990.949 -16599.539 23204.657 -17115.476 23514.913 -17579.807 23909.794 -17974.688 24374.125 -18284.944 24890.062 -18498.652 25437.778 -18607.6 25996.224 -18607.6 26543.94 -18498.652 27059.877 -18284.944 27524.208 -17974.688 27919.089 -17579.807 28229.345 -17115.476 28443.053 -16599.539 28552.001 -16051.823 28552.001 -15493.377 28497.3 -15218.376 262531.999 -15218.376 262531.999 -15776.822 262640.947 -16324.538 262854.655 -16840.475 263164.911 -17304.806 263559.792 -17699.687 264024.123 -18009.943 264540.06 -18223.651 265087.776 -18332.599 265646.222 -18332.599 266193.938 -18223.651 266709.875 -18009.943 267174.206 -17699.687 267569.087 -17304.806 267879.343 -16840.475 268093.051 -16324.538 268201.999 -15776.822 268201.999 -15218.376 268093.051 -14670.66 267879.343 -14154.723 267569.087 -13690.392 267174.206 -13295.511 266709.875 -12985.255 266193.938 -12771.547 265646.222 -12662.599 265087.776 -12662.599 264540.06 -12771.547 264024.123 -12985.255 263559.792 -13295.511 263164.911 -13690.392 262854.655 -14154.723 262640.947 -14670.66 262531.999 -15218.376 28497.3 -15218.376 28443.053 -14945.661 28229.345 -14429.724 27919.089 -13965.393 27524.208 -13570.512 27059.877 -13260.256 26543.94 -13046.548 25996.224 -12937.6 25437.778 -12937.6 24890.062 -13046.548 24374.125 -13260.256 23909.794 -13570.512 23514.913 -13965.393 23204.657 -14429.724 22990.949 -14945.661 22882.001 -15493.377 22427 -15493.377 22427.001 -15117.061 22479.344 -14578.192 22625.212 -14093.468 22862.447 -13646.313 23182.021 -13253.751 23571.755 -12930.738 24016.808 -12689.577 24500.229 -12539.452 25036.477 -12482.599 266022.539 -12482.601 266022.539 -12482.601"/><path d="M 266022.539 -12482.601 266561.408 -12534.944 267046.132 -12680.812 267493.287 -12918.047 267885.849 -13237.621 268208.862 -13627.355 268450.023 -14072.408 268600.148 -14555.829 268657.001 -15092.077 268656.999 -107628.138 268604.656 -108167.009 268458.788 -108651.732 268221.552 -109098.888 267901.979 -109491.449 267512.243 -109814.463 267067.192 -110055.623 266583.771 -110205.748 266047.529 -110262.6 25061.466 -110264.659 24522.591 -110212.316 24037.868 -110066.448 23590.712 -109829.212 23198.151 -109509.639 22875.137 -109119.903 22633.977 -108674.852 22483.852 -108191.431 22426.999 -107655.183 22426.999 -91643.377 224545.8 -91643.377 224545.8 -92201.823 224654.748 -92749.539 224868.456 -93265.476 225178.712 -93729.807 225573.593 -94124.688 226037.924 -94434.944 226553.861 -94648.652 227101.577 -94757.6 227660.023 -94757.6 228207.739 -94648.652 228723.676 -94434.944 229188.007 -94124.688 229582.888 -93729.807 229893.144 -93265.476 230106.852 -92749.539 230215.8 -92201.823 230215.8 -91643.377 230106.852 -91095.661 229893.144 -90579.724 229582.888 -90115.393 229188.007 -89720.512 228723.676 -89410.256 228207.739 -89196.548 227660.023 -89087.6 227101.577 -89087.6 226553.861 -89196.548 226037.924 -89410.256 225573.593 -89720.512 225178.712 -90115.393 224868.456 -90579.724 224654.748 -91095.661 224545.8 -91643.377 22426.999 -91643.377 22426.999 -60506.383 37117.786 -60506.383 37117.786 -60528.74 37128.082 -62495.171 37131.463 -62569.613 37134.063 -62644.073 37135.856 -62666.358 37303.825 -64625.63 37313.168 -64699.588 37321.728 -64773.571 37325.302 -64795.64 37649.861 -66735.13 37665.105 -66808.097 37679.571 -66881.159 37684.904 -66902.871 38163.963 -68810.084 38185.004 -68881.574 38205.289 -68953.261 38212.346 -68974.475 38842.818 -70837.124 38869.532 -70906.715 38895.493 -70976.524 38904.229 -70997.104 39682.052 -72803.191 39714.249 -72870.391 39745.737 -72937.918 39756.095 -72957.731 40676.259 -74695.619 40713.76 -74760.052 40750.545 -74824.805 40762.458 -74843.724 41819.035 -76502.217 41861.557 -76563.397 41903.441 -76625.028 41916.834 -76642.931 43103.017 -78211.346 43150.3 -78268.91 43197.002 -78326.995 43211.787 -78343.765 44519.935 -79811.998 44571.704 -79865.606 44622.89 -79919.734 44638.973 -79935.265 46060.657 -81293.855 46116.55 -81343.132 46171.922 -81392.989 46189.198 -81407.18 47715.261 -82647.378 47774.942 -82692.025 47834.118 -82737.269 47852.476 -82750.028 49473.086 -83863.843 49536.163 -83903.565 49598.769 -83943.912 49618.092 -83955.158 51322.808 -84935.413 51388.863 -84969.946 51454.507 -85005.144 51474.647 -85014.793 51474.67 -85014.805 51474.691 -85014.814 53252.51 -85855.185 53321.064 -85884.284 53389.378 -85914.13 53410.251 -85922.142 55249.762 -86617.235 55320.494 -86640.764 55390.916 -86665.013 55412.347 -86671.32 55412.365 -86671.326 55412.382 -86671.33 57301.694 -87216.653 57374.068 -87234.43 57446.227 -87252.957 57468.105 -87257.528 57468.111 -87257.529 57468.116 -87257.53 59395.093 -87649.577 59468.606 -87661.484 59542.069 -87674.173 59564.25 -87676.975 61516.465 -87913.22 61590.733 -87919.195 61664.943 -87925.949 61687.275 -87926.963 61687.277 -87926.963 63590.24 -88003.393 63632.95 -88007.6 227376.048 -88007.6 227381.619 -88007.051 227538.901 -88006.228 227576.142 -88004.537 227613.407 -88004.537 227635.741 -88003.523 229599.68 -87904.034 229673.905 -87897.279 229748.156 -87891.305 229770.334 -87888.503 229770.338 -87888.503 229770.341 -87888.502 231719.972 -87631.829 231793.383 -87619.148 231866.951 -87607.233 231888.836 -87602.661 233811.605 -87190.454 233883.79 -87171.92 233956.135 -87154.151 233977.562 -87147.844 233977.585 -87147.838 233977.605 -87147.831 235861.1 -86582.756 235931.568 -86558.492 236002.255 -86534.978 236023.127 -86526.966 237855.258 -85812.648 237923.572 -85782.802 237992.126 -85753.703 238012.278 -85744.048 238012.289 -85744.043 238012.299 -85744.038 239781.231 -84885.091 239846.921 -84849.869 239912.932 -84815.359 239932.245 -84804.119 239932.254 -84804.114 239932.261 -84804.109 241626.612 -83806.06 241689.266 -83765.682 241752.295 -83725.991 241770.64 -83713.24 241770.654 -83713.231 241770.665 -83713.222 243379.51 -82582.508 243438.712 -82537.245 243498.367 -82492.617 243515.63 -82478.437 243515.644 -82478.426 243515.656 -82478.415 245028.635 -81222.316 245084 -81172.466 245139.9 -81123.183 245155.983 -81107.652 246563.362 -79734.248 246614.546 -79680.122 246666.318 -79626.511 246681.103 -79609.74 247973.804 -78127.889 248020.492 -78069.821 248067.788 -78012.242 248081.18 -77994.34 249250.874 -76413.59 249292.731 -76351.998 249335.281 -76290.778 249347.194 -76271.859 250386.346 -74602.392 250423.131 -74537.639 250460.632 -74473.206 250470.983 -74453.405 250470.99 -74453.393 250470.995 -74453.383 251372.905 -72705.964 251404.401 -72638.42 251436.59 -72571.237 251445.326 -72550.657 252204.194 -70736.524 252230.167 -70666.684 252256.869 -70597.123 252263.926 -70575.909 252874.858 -68706.76 252895.143 -68635.074 252916.184 -68563.583 252921.517 -68541.871 253380.577 -66629.748 253395.05 -66556.655 253410.287 -66483.719 253413.861 -66461.649 253718.093 -64518.868 253726.656 -64444.859 253735.996 -64370.924 253737.789 -64348.639 253885.231 -62387.717 253887.831 -62313.264 253891.212 -62238.817 253891.212 -62216.46 253880.916 -60250.029 253877.535 -60175.587 253874.935 -60101.127 253873.142 -60078.842 253705.173 -58119.571 253695.831 -58045.619 253687.27 -57971.629 253683.696 -57949.56 253359.137 -56010.071 253343.899 -55937.132 253329.427 -55864.04 253324.094 -55842.328 252845.035 -53935.116 252823.99 -53863.612 252803.709 -53791.94 252796.652 -53770.725 252166.18 -51908.076 252139.466 -51838.485 252113.505 -51768.676 252104.769 -51748.096 251326.946 -49942.01 251294.751 -49874.814 251263.261 -49807.282 251252.903 -49787.469 250332.739 -48049.581 250295.251 -47985.171 250258.453 -47920.394 250246.552 -47901.497 250246.54 -47901.476 250246.528 -47901.459 249189.963 -46242.983 249147.42 -46181.772 249105.556 -46120.171 249092.164 -46102.269 247905.981 -44533.853 247858.66 -44476.243 247811.996 -44418.205 247797.226 -44401.452 247797.212 -44401.435 247797.199 -44401.422 246489.063 -42933.203 246437.293 -42879.593 246386.107 -42825.466 246370.025 -42809.935 244989.176 -41490.367 245200.264 -41279.279 245740.339 -40470.999 246112.349 -39572.886 246301.999 -38619.455 246301.999 -37647.345 246112.349 -36693.914 245740.339 -35795.801 245200.264 -34987.521 244512.878 -34300.135 243704.598 -33760.06 242806.485 -33388.05 241853.054 -33198.4 240880.944 -33198.4 239927.513 -33388.05 239029.4 -33760.06 238221.12 -34300.135 237533.734 -34987.521 236993.659 -35795.801 236707.631 -36486.334 235759.235 -36127.965 235688.52 -36104.441 235618.082 -36080.187 235596.651 -36073.88 235596.633 -36073.874 235596.616 -36073.87 233707.303 -35528.547 233634.993 -35510.786 233562.771 -35492.242 233540.893 -35487.672 233540.887 -35487.671 233540.882 -35487.67 231613.905 -35095.623 231540.408 -35083.719 231466.93 -35071.027 231444.749 -35068.225 229492.533 -34831.98 229418.265 -34826.005 229344.055 -34819.251 229321.723 -34818.237 229321.721 -34818.237 227418.758 -34741.807 227376.048 -34737.6 63632.95 -34737.6 63627.379 -34738.149 63470.097 -34738.972 63432.856 -34740.663 63395.591 -34740.663 63373.257 -34741.677 61409.318 -34841.166 61335.093 -34847.921 61260.842 -34853.895 61238.664 -34856.697 61238.66 -34856.697 61238.657 -34856.698 59289.026 -35113.371 59215.593 -35126.055 59142.048 -35137.967 59120.163 -35142.539 57197.393 -35554.746 57125.218 -35573.277 57052.863 -35591.049 57031.43 -35597.358 57031.414 -35597.362 57031.4 -35597.367 55147.898 -36162.444 55077.442 -36186.704 55006.743 -36210.222 54985.87 -36218.234 54365.504 -36460.105 54090.341 -35795.801 53550.266 -34987.521 52862.88 -34300.135 52054.6 -33760.06 51156.487 -33388.05 50203.056 -33198.4 49230.946 -33198.4 48277.515 -33388.05 47379.402 -33760.06 46571.122 -34300.135 45883.736 -34987.521 45343.661 -35795.801 44971.651 -36693.914 44782.001 -37647.345 44782.001 -38619.455 44971.651 -39572.886 45343.661 -40470.999 45883.736 -41279.279 46060.669 -41456.212 45980.363 -41522.884 45924.995 -41572.738 45869.097 -41622.018 45853.015 -41637.548 44445.636 -43010.952 44394.426 -43065.105 44342.68 -43118.69 44327.895 -43135.46 43035.194 -44617.311 42988.502 -44675.384 42941.21 -44732.958 42927.818 -44750.86 41758.124 -46331.61 41716.247 -46393.23 41673.717 -46454.422 41661.817 -46473.321 41661.803 -46473.341 41661.793 -46473.359 40622.652 -48142.808 40585.843 -48207.602 40548.366 -48271.995 40538.015 -48291.795 40538.008 -48291.807 40538.008 -48291.808 39636.093 -50039.237 39604.606 -50106.76 39572.408 -50173.963 39563.672 -50194.543 38804.804 -52008.675 38778.831 -52078.516 38752.129 -52148.076 38745.072 -52169.291 38134.14 -54038.44 38113.848 -54110.148 38092.814 -54181.617 38087.481 -54203.329 37628.421 -56115.453 37613.938 -56188.594 37598.711 -56261.482 37595.141 -56283.529 37595.136 -56283.552 37595.134 -56283.573 37290.905 -58226.333 37282.342 -58300.34 37273.002 -58374.276 37271.209 -58396.561 37123.767 -60357.483 37121.167 -60431.935 37117.786 -60506.383 22426.999 -60506.383 22427 -29493.377 22882.001 -29493.377 22882.001 -30051.823 22990.949 -30599.539 23204.657 -31115.476 23514.913 -31579.807 23909.794 -31974.688 24374.125 -32284.944 24890.062 -32498.652 25437.778 -32607.6 25996.224 -32607.6 26543.94 -32498.652 27059.877 -32284.944 27524.208 -31974.688 27919.089 -31579.807 28229.345 -31115.476 28443.053 -30599.539 28552.001 -30051.823 28552.001 -29493.377 262531.999 -29493.377 262531.999 -30051.823 262640.947 -30599.539 262854.655 -31115.476 263164.911 -31579.807 263559.792 -31974.688 264024.123 -32284.944 264540.06 -32498.652 265087.776 -32607.6 265646.222 -32607.6 266193.938 -32498.652 266709.875 -32284.944 267174.206 -31974.688 267569.087 -31579.807 267879.343 -31115.476 268093.051 -30599.539 268201.999 -30051.823 268201.999 -29493.377 268093.051 -28945.661 267879.343 -28429.724 267569.087 -27965.393 267174.206 -27570.512 266709.875 -27260.256 266193.938 -27046.548 265646.222 -26937.6 265087.776 -26937.6 264540.06 -27046.548 264024.123 -27260.256 263559.792 -27570.512 263164.911 -27965.393 262854.655 -28429.724 262640.947 -28945.661 262531.999 -29493.377 28552.001 -29493.377 28443.053 -28945.661 28229.345 -28429.724 27919.089 -27965.393 27524.208 -27570.512 27059.877 -27260.256 26543.94 -27046.548 25996.224 -26937.6 25437.778 -26937.6 24890.062 -27046.548 24374.125 -27260.256 23909.794 -27570.512 23514.913 -27965.393 23204.657 -28429.724 22990.949 -28945.661 22882.001 -29493.377 22427 -29493.377 22427 -15493.377 22882.001 -15493.377 22882.001 -16051.823 22990.949 -16599.539 23204.657 -17115.476 23514.913 -17579.807 23909.794 -17974.688 24374.125 -18284.944 24890.062 -18498.652 25437.778 -18607.6 25996.224 -18607.6 26543.94 -18498.652 27059.877 -18284.944 27524.208 -17974.688 27919.089 -17579.807 28229.345 -17115.476 28443.053 -16599.539 28552.001 -16051.823 28552.001 -15493.377 28497.3 -15218.376 262531.999 -15218.376 262531.999 -15776.822 262640.947 -16324.538 262854.655 -16840.475 263164.911 -17304.806 263559.792 -17699.687 264024.123 -18009.943 264540.06 -18223.651 265087.776 -18332.599 265646.222 -18332.599 266193.938 -18223.651 266709.875 -18009.943 267174.206 -17699.687 267569.087 -17304.806 267879.343 -16840.475 268093.051 -16324.538 268201.999 -15776.822 268201.999 -15218.376 268093.051 -14670.66 267879.343 -14154.723 267569.087 -13690.392 267174.206 -13295.511 266709.875 -12985.255 266193.938 -12771.547 265646.222 -12662.599 265087.776 -12662.599 264540.06 -12771.547 264024.123 -12985.255 263559.792 -13295.511 263164.911 -13690.392 262854.655 -14154.723 262640.947 -14670.66 262531.999 -15218.376 28497.3 -15218.376 28443.053 -14945.661 28229.345 -14429.724 27919.089 -13965.393 27524.208 -13570.512 27059.877 -13260.256 26543.94 -13046.548 25996.224 -12937.6 25437.778 -12937.6 24890.062 -13046.548 24374.125 -13260.256 23909.794 -13570.512 23514.913 -13965.393 23204.657 -14429.724 22990.949 -14945.661 22882.001 -15493.377 22427 -15493.377 22427.001 -15117.061 22479.344 -14578.192 22625.212 -14093.468 22862.447 -13646.313 23182.021 -13253.751 23571.755 -12930.738 24016.808 -12689.577 24500.229 -12539.452 25036.477 -12482.599 266022.539 -12482.601" fill="none" stroke-width="254"/></g><g id="NFdwVCpBtOQOljPZEQqJ_bottom_soldermask"><path d="M 88870.514 -77567.504 89013.371 -77686.552 89299.085 -77686.552 89441.942 -77567.504 89513.371 -77448.457 89584.8 -77210.361 89584.8 -76496.076 89513.371 -76257.98 89441.942 -76138.933 89299.085 -76019.885 89013.371 -76019.885 88870.514 -76138.933 M 88013.371 -77686.552 88156.228 -77567.504 88227.657 -77448.457 88299.085 -77210.361 88299.085 -76496.076 88227.657 -76257.98 88156.228 -76138.933 88013.371 -76019.885 87799.085 -76019.885 87656.228 -76138.933 87584.8 -76257.98 87513.371 -76496.076 87513.371 -77210.361 87584.8 -77448.457 87656.228 -77567.504 87799.085 -77686.552 88013.371 -77686.552 M 86941.942 -77567.504 86799.085 -77686.552 86513.371 -77686.552 86370.514 -77567.504 86299.085 -77329.409 86299.085 -77210.361 86370.514 -76972.266 86513.371 -76853.219 86727.657 -76853.219 86870.514 -76734.171 86941.942 -76496.076 86941.942 -76377.028 86870.514 -76138.933 86727.657 -76019.885 86513.371 -76019.885 86370.514 -76138.933 M 85084.8 -77567.504 85227.657 -77686.552 85513.371 -77686.552 85656.228 -77567.504 85727.657 -77329.409 85727.657 -76377.028 85656.228 -76138.933 85513.371 -76019.885 85227.657 -76019.885 85084.8 -76138.933 85013.371 -76377.028 85013.371 -76615.123 85727.657 -76853.219 M 84513.371 -76019.885 84156.228 -77686.552 M 83799.085 -76019.885 84156.228 -77686.552 84299.085 -78281.79 84370.514 -78400.838 84513.371 -78519.885 M 83441.942 -76019.885 82870.514 -76019.885 M 83227.657 -77686.552 83227.657 -75543.695 83156.228 -75305.6 83013.371 -75186.552 82870.514 -75186.552 M 81727.657 -77686.552 81727.657 -76377.028 81799.085 -76138.933 81941.942 -76019.885 82227.657 -76019.885 82370.514 -76138.933 M 81727.657 -77567.504 81870.514 -77686.552 82227.657 -77686.552 82370.514 -77567.504 82441.942 -77329.409 82441.942 -77091.314 82370.514 -76853.219 82227.657 -76734.171 81870.514 -76734.171 81727.657 -76615.123 M 81013.371 -76019.885 81013.371 -77686.552 M 81013.371 -76257.98 80941.942 -76138.933 80799.085 -76019.885 80584.8 -76019.885 80441.942 -76138.933 80370.514 -76377.028 80370.514 -77686.552 M 79656.228 -76019.885 79656.228 -77686.552 M 79656.228 -76257.98 79584.8 -76138.933 79441.942 -76019.885 79227.657 -76019.885 79084.8 -76138.933 79013.371 -76377.028 79013.371 -77686.552 M 78299.085 -77686.552 78299.085 -76019.885 M 78299.085 -75186.552 78370.514 -75305.6 78299.085 -75424.647 78227.657 -75305.6 78299.085 -75186.552 78299.085 -75424.647 M 77799.085 -76019.885 77227.657 -76019.885 M 77584.8 -75186.552 77584.8 -77329.409 77513.371 -77567.504 77370.514 -77686.552 77227.657 -77686.552 M 76084.8 -76019.885 76084.8 -77686.552 M 76727.657 -76019.885 76727.657 -77329.409 76656.228 -77567.504 76513.371 -77686.552 76299.085 -77686.552 76156.228 -77567.504 76084.8 -77448.457 M 75584.8 -76019.885 75013.371 -76019.885 M 75370.514 -75186.552 75370.514 -77329.409 75299.085 -77567.504 75156.228 -77686.552 75013.371 -77686.552 M 74727.657 -76019.885 74156.228 -76019.885 M 74513.371 -75186.552 74513.371 -77329.409 74441.942 -77567.504 74299.085 -77686.552 74156.228 -77686.552 M 73656.228 -77686.552 73656.228 -76019.885 M 73656.228 -75186.552 73727.657 -75305.6 73656.228 -75424.647 73584.8 -75305.6 73656.228 -75186.552 73656.228 -75424.647" fill="none" stroke-width="200"/><path d="M 91837.934 -78001.377 92407.317 -77999.2 92976.7 -77997.024 92976.7 -77590.624 91837.934 -77586.272 91837.934 -76925.991 92557.601 -76925.991 92557.601 -76494.191 91837.934 -76494.191 91837.934 -75816.977 92407.317 -75814.8 92976.7 -75812.624 92978.963 -75598.841 92981.225 -75385.058 91837.934 -75385.058 91837.934 -74766.991 91397.667 -74766.991 91397.667 -75385.058 90263.134 -75385.058 90263.134 -75816.857 91397.667 -75816.857 91397.667 -76494.191 90686.467 -76494.191 90686.467 -76925.991 91397.667 -76925.991 91397.667 -77586.391 90263.134 -77586.391 90263.134 -78001.257 91397.448 -78001.257 91401.9 -78589.691 91619.917 -78591.95 91837.934 -78594.21 91837.934 -78001.377 91837.934 -78001.377"/><path d="M 91837.934 -78001.377 92407.317 -77999.2 92976.7 -77997.024 92976.7 -77590.624 91837.934 -77586.272 91837.934 -76925.991 92557.601 -76925.991 92557.601 -76494.191 91837.934 -76494.191 91837.934 -75816.977 92407.317 -75814.8 92976.7 -75812.624 92978.963 -75598.841 92981.225 -75385.058 91837.934 -75385.058 91837.934 -74766.991 91397.667 -74766.991 91397.667 -75385.058 90263.134 -75385.058 90263.134 -75816.857 91397.667 -75816.857 91397.667 -76494.191 90686.467 -76494.191 90686.467 -76925.991 91397.667 -76925.991 91397.667 -77586.391 90263.134 -77586.391 90263.134 -78001.257 91397.448 -78001.257 91401.9 -78589.691 91619.917 -78591.95 91837.934 -78594.21 91837.934 -78001.377" fill="none" stroke-width="10"/><path d="M 63979.08 -89682.376 64359.793 -89758.104 64769.449 -89927.789 65138.129 -90174.134 65451.666 -90487.671 65698.011 -90856.351 65867.696 -91266.007 65954.2 -91700.896 65954.2 -92144.304 65867.696 -92579.193 65698.011 -92988.849 65451.666 -93357.529 65138.129 -93671.066 64769.449 -93917.411 64359.793 -94087.096 63979.08 -94162.824 63924.905 -94173.6 63481.495 -94173.6 63427.32 -94162.824 63046.607 -94087.096 62636.951 -93917.411 62268.271 -93671.066 61954.734 -93357.529 61708.389 -92988.849 61538.704 -92579.193 61452.2 -92144.304 61452.2 -91700.896 61538.704 -91266.007 61708.389 -90856.351 61954.734 -90487.671 62268.271 -90174.134 62636.951 -89927.789 63046.607 -89758.104 63427.32 -89682.376 63481.495 -89671.6 63924.905 -89671.6 63979.08 -89682.376 63979.08 -89682.376"/><path d="M 227656.68 -89682.376 228037.393 -89758.104 228447.049 -89927.789 228815.729 -90174.134 229129.266 -90487.671 229375.611 -90856.351 229545.296 -91266.007 229631.8 -91700.896 229631.8 -92144.304 229545.296 -92579.193 229375.611 -92988.849 229129.266 -93357.529 228815.729 -93671.066 228447.049 -93917.411 228037.393 -94087.096 227656.68 -94162.824 227602.505 -94173.6 227159.095 -94173.6 227104.92 -94162.824 226724.207 -94087.096 226314.551 -93917.411 225945.871 -93671.066 225632.334 -93357.529 225385.989 -92988.849 225216.304 -92579.193 225129.8 -92144.304 225129.8 -91700.896 225216.304 -91266.007 225385.989 -90856.351 225632.334 -90487.671 225945.871 -90174.134 226314.551 -89927.789 226724.207 -89758.104 227104.92 -89682.376 227159.095 -89671.6 227602.505 -89671.6 227656.68 -89682.376 227656.68 -89682.376"/><path d="M 242515.68 -51582.376 242896.393 -51658.104 243306.049 -51827.789 243674.729 -52074.134 243988.266 -52387.671 244234.611 -52756.351 244404.296 -53166.007 244490.8 -53600.896 244490.8 -54044.304 244404.296 -54479.193 244234.611 -54888.849 243988.266 -55257.529 243674.729 -55571.066 243306.049 -55817.411 242896.393 -55987.096 242515.68 -56062.824 242461.505 -56073.6 242018.095 -56073.6 241963.92 -56062.824 241583.207 -55987.096 241173.551 -55817.411 240804.871 -55571.066 240491.334 -55257.529 240244.989 -54888.849 240075.304 -54479.193 239988.8 -54044.304 239988.8 -53600.896 240075.304 -53166.007 240244.989 -52756.351 240491.334 -52387.671 240804.871 -52074.134 241173.551 -51827.789 241583.207 -51658.104 241963.92 -51582.376 242018.095 -51571.6 242461.505 -51571.6 242515.68 -51582.376 242515.68 -51582.376"/><path d="M 145780.379 -51582.376 146161.092 -51658.104 146570.748 -51827.789 146939.428 -52074.134 147252.965 -52387.671 147499.31 -52756.351 147668.995 -53166.007 147755.499 -53600.896 147755.499 -54044.304 147668.995 -54479.193 147499.31 -54888.849 147252.965 -55257.529 146939.428 -55571.066 146570.748 -55817.411 146161.092 -55987.096 145780.379 -56062.824 145726.204 -56073.6 145282.794 -56073.6 145228.619 -56062.824 144847.906 -55987.096 144438.25 -55817.411 144069.57 -55571.066 143756.033 -55257.529 143509.688 -54888.849 143340.003 -54479.193 143253.499 -54044.304 143253.499 -53600.896 143340.003 -53166.007 143509.688 -52756.351 143756.033 -52387.671 144069.57 -52074.134 144438.25 -51827.789 144847.906 -51658.104 145228.619 -51582.376 145282.794 -51571.6 145726.204 -51571.6 145780.379 -51582.376 145780.379 -51582.376"/><path d="M 49120.08 -51582.376 49500.793 -51658.104 49910.449 -51827.789 50279.129 -52074.134 50592.666 -52387.671 50839.011 -52756.351 51008.696 -53166.007 51095.2 -53600.896 51095.2 -54044.304 51008.696 -54479.193 50839.011 -54888.849 50592.666 -55257.529 50279.129 -55571.066 49910.449 -55817.411 49500.793 -55987.096 49120.08 -56062.824 49065.905 -56073.6 48622.495 -56073.6 48568.32 -56062.824 48187.607 -55987.096 47777.951 -55817.411 47409.271 -55571.066 47095.734 -55257.529 46849.389 -54888.849 46679.704 -54479.193 46593.2 -54044.304 46593.2 -53600.896 46679.704 -53166.007 46849.389 -52756.351 47095.734 -52387.671 47409.271 -52074.134 47777.951 -51827.789 48187.607 -51658.104 48568.32 -51582.376 48622.495 -51571.6 49065.905 -51571.6 49120.08 -51582.376 49120.08 -51582.376"/><path d="M 241915.155 -33806.194 242636.139 -33949.606 243427.971 -34277.593 244140.6 -34753.757 244746.642 -35359.799 245222.806 -36072.428 245550.793 -36864.26 245717.999 -37704.864 245717.999 -38561.936 245550.793 -39402.54 245222.806 -40194.372 244746.642 -40907.001 244140.6 -41513.043 243427.971 -41989.207 242636.139 -42317.194 241915.155 -42460.606 241795.536 -42484.4 240938.462 -42484.4 240818.843 -42460.606 240097.859 -42317.194 239306.027 -41989.207 238593.398 -41513.043 237987.356 -40907.001 237511.192 -40194.372 237183.205 -39402.54 237015.999 -38561.936 237015.999 -37704.864 237183.205 -36864.26 237511.192 -36072.428 237987.356 -35359.799 238593.398 -34753.757 239306.027 -34277.593 240097.859 -33949.606 240818.843 -33806.194 240938.462 -33782.4 241795.536 -33782.4 241915.155 -33806.194 241915.155 -33806.194"/><path d="M 50265.157 -33806.194 50986.141 -33949.606 51777.973 -34277.593 52490.602 -34753.757 53096.644 -35359.799 53572.808 -36072.428 53900.795 -36864.26 54068.001 -37704.864 54068.001 -38561.936 53900.795 -39402.54 53572.808 -40194.372 53096.644 -40907.001 52490.602 -41513.043 51777.973 -41989.207 50986.141 -42317.194 50265.157 -42460.606 50145.538 -42484.4 49288.464 -42484.4 49168.845 -42460.606 48447.861 -42317.194 47656.029 -41989.207 46943.4 -41513.043 46337.358 -40907.001 45861.194 -40194.372 45533.207 -39402.54 45366.001 -38561.936 45366.001 -37704.864 45533.207 -36864.26 45861.194 -36072.428 46337.358 -35359.799 46943.4 -34753.757 47656.029 -34277.593 48447.861 -33949.606 49168.845 -33806.194 49288.464 -33782.4 50145.538 -33782.4 50265.157 -33806.194 50265.157 -33806.194"/><path d="M 25992.881 -27532.376 26373.594 -27608.104 26783.25 -27777.789 27151.93 -28024.134 27465.467 -28337.671 27711.812 -28706.351 27881.497 -29116.007 27968.001 -29550.896 27968.001 -29994.304 27881.497 -30429.193 27711.812 -30838.849 27465.467 -31207.529 27151.93 -31521.066 26783.25 -31767.411 26373.594 -31937.096 25992.881 -32012.824 25938.706 -32023.6 25495.296 -32023.6 25441.121 -32012.824 25060.408 -31937.096 24650.752 -31767.411 24282.072 -31521.066 23968.535 -31207.529 23722.19 -30838.849 23552.505 -30429.193 23466.001 -29994.304 23466.001 -29550.896 23552.505 -29116.007 23722.19 -28706.351 23968.535 -28337.671 24282.072 -28024.134 24650.752 -27777.789 25060.408 -27608.104 25441.121 -27532.376 25495.296 -27521.6 25938.706 -27521.6 25992.881 -27532.376 25992.881 -27532.376"/><path d="M 265642.879 -27532.376 266023.592 -27608.104 266433.248 -27777.789 266801.928 -28024.134 267115.465 -28337.671 267361.81 -28706.351 267531.495 -29116.007 267617.999 -29550.896 267617.999 -29994.304 267531.495 -30429.193 267361.81 -30838.849 267115.465 -31207.529 266801.928 -31521.066 266433.248 -31767.411 266023.592 -31937.096 265642.879 -32012.824 265588.704 -32023.6 265145.294 -32023.6 265091.119 -32012.824 264710.406 -31937.096 264300.75 -31767.411 263932.07 -31521.066 263618.533 -31207.529 263372.188 -30838.849 263202.503 -30429.193 263115.999 -29994.304 263115.999 -29550.896 263202.503 -29116.007 263372.188 -28706.351 263618.533 -28337.671 263932.07 -28024.134 264300.75 -27777.789 264710.406 -27608.104 265091.119 -27532.376 265145.294 -27521.6 265588.704 -27521.6 265642.879 -27532.376 265642.879 -27532.376"/><path d="M 25992.881 -13532.376 26373.594 -13608.104 26783.25 -13777.789 27151.93 -14024.134 27465.467 -14337.671 27711.812 -14706.351 27881.497 -15116.007 27968.001 -15550.896 27968.001 -15994.304 27881.497 -16429.193 27711.812 -16838.849 27465.467 -17207.529 27151.93 -17521.066 26783.25 -17767.411 26373.594 -17937.096 25992.881 -18012.824 25938.706 -18023.6 25495.296 -18023.6 25441.121 -18012.824 25060.408 -17937.096 24650.752 -17767.411 24282.072 -17521.066 23968.535 -17207.529 23722.19 -16838.849 23552.505 -16429.193 23466.001 -15994.304 23466.001 -15550.896 23552.505 -15116.007 23722.19 -14706.351 23968.535 -14337.671 24282.072 -14024.134 24650.752 -13777.789 25060.408 -13608.104 25441.121 -13532.376 25495.296 -13521.6 25938.706 -13521.6 25992.881 -13532.376 25992.881 -13532.376"/><path d="M 265642.879 -13257.375 266023.592 -13333.103 266433.248 -13502.788 266801.928 -13749.133 267115.465 -14062.67 267361.81 -14431.35 267531.495 -14841.006 267617.999 -15275.895 267617.999 -15719.303 267531.495 -16154.192 267361.81 -16563.848 267115.465 -16932.528 266801.928 -17246.065 266433.248 -17492.41 266023.592 -17662.095 265642.879 -17737.823 265588.704 -17748.599 265145.294 -17748.599 265091.119 -17737.823 264710.406 -17662.095 264300.75 -17492.41 263932.07 -17246.065 263618.533 -16932.528 263372.188 -16563.848 263202.503 -16154.192 263115.999 -15719.303 263115.999 -15275.895 263202.503 -14841.006 263372.188 -14431.35 263618.533 -14062.67 263932.07 -13749.133 264300.75 -13502.788 264710.406 -13333.103 265091.119 -13257.375 265145.294 -13246.599 265588.704 -13246.599 265642.879 -13257.375 265642.879 -13257.375"/></g><g id="NFdwVCpBtOQOljPZEQqJ_bottom_drill1" transform="scale(25.4,25.4)"><use xlink:href="#XFOZhDmiIQP5c6afyjEc_pad-1" x="1012.5" y="-621"/><use xlink:href="#XFOZhDmiIQP5c6afyjEc_pad-1" x="10447.5" y="-1172.1"/><use xlink:href="#XFOZhDmiIQP5c6afyjEc_pad-1" x="5728.5" y="-2119"/><use xlink:href="#XFOZhDmiIQP5c6afyjEc_pad-1" x="9537" y="-2119"/><use xlink:href="#XFOZhDmiIQP5c6afyjEc_pad-1" x="8952" y="-3619"/><use xlink:href="#XFOZhDmiIQP5c6afyjEc_pad-1" x="1012.5" y="-1172.1"/><use xlink:href="#XFOZhDmiIQP5c6afyjEc_pad-1" x="1923" y="-2119"/><use xlink:href="#XFOZhDmiIQP5c6afyjEc_pad-1" x="2508" y="-3619"/><use xlink:href="#XFOZhDmiIQP5c6afyjEc_pad-1" x="10447.5" y="-610.1"/><use xlink:href="#XFOZhDmiIQP5c6afyjEc_pad-2" x="9502.6" y="-1501.3"/><use xlink:href="#XFOZhDmiIQP5c6afyjEc_pad-2" x="1957.4" y="-1501.3"/></g><clipPath id="NFdwVCpBtOQOljPZEQqJ_bottom_outline"><path d="M 269366.999 -107662.541 269367 -15076.66 A 3307.0603607 3307.0603607 0 0 1 266056.941 -11772.601 L 25021.06 -11772.6 A 3307.0603607 3307.0603607 0 0 1 21717.001 -15082.659 L 21717 -107670.6 A 3307.0603607 3307.0603607 0 0 1 25027.059 -110974.659 L 266062.94 -110972.6 A 3307.0603607 3307.0603607 0 0 1 269366.999 -107662.541" fill="none" stroke-width="150"/></clipPath><mask id="NFdwVCpBtOQOljPZEQqJ_bottom_mech-mask"><g fill="#000" stroke="#000"><rect x="21716.9996393" y="-110974.6603607" width="247650.0007215" height="99202.0607215" fill="#fff"/><use xlink:href="#NFdwVCpBtOQOljPZEQqJ_bottom_drill1"/></g></mask><mask id="NFdwVCpBtOQOljPZEQqJ_bottom_cf-mask"><g fill="#fff" stroke="#fff"><use xlink:href="#NFdwVCpBtOQOljPZEQqJ_bottom_soldermask"/></g></mask><mask id="NFdwVCpBtOQOljPZEQqJ_bottom_sm-mask"><g fill="#000" stroke="#000"><rect x="21716.9996393" y="-110974.6603607" width="247650.0007215" height="99202.0607215" fill="#fff"/><use xlink:href="#NFdwVCpBtOQOljPZEQqJ_bottom_soldermask"/></g></mask></defs><g transform="translate(0,-122747.2599999) scale(1,-1)"><g mask="url(#NFdwVCpBtOQOljPZEQqJ_bottom_mech-mask)" clip-path="url(#NFdwVCpBtOQOljPZEQqJ_bottom_outline)" transform="translate(291084.0000001,0) scale(-1,1)"><rect x="21716.9996393" y="-110974.6603607" width="247650.0007215" height="99202.0607215" fill="currentColor" class="NFdwVCpBtOQOljPZEQqJ_fr4"/><use xlink:href="#NFdwVCpBtOQOljPZEQqJ_bottom_copper" fill="currentColor" stroke="currentColor" class="NFdwVCpBtOQOljPZEQqJ_cu"/><use xlink:href="#NFdwVCpBtOQOljPZEQqJ_bottom_copper" fill="currentColor" stroke="currentColor" class="NFdwVCpBtOQOljPZEQqJ_cf" mask="url(#NFdwVCpBtOQOljPZEQqJ_bottom_cf-mask)"/><g mask="url(#NFdwVCpBtOQOljPZEQqJ_bottom_sm-mask)"><rect x="21716.9996393" y="-110974.6603607" width="247650.0007215" height="99202.0607215" fill="currentColor" class="NFdwVCpBtOQOljPZEQqJ_sm"/></g></g></g></svg>