G04 #@! TF.GenerationSoftware,KiCad,Pcbnew,(5.1.4)-1*
G04 #@! TF.CreationDate,2019-10-29T16:24:30-04:00*
G04 #@! TF.ProjectId,romeo-bottom,726f6d65-6f2d-4626-9f74-746f6d2e6b69,rev?*
G04 #@! TF.SameCoordinates,Original*
G04 #@! TF.FileFunction,Copper,L2,Bot*
G04 #@! TF.FilePolarity,Positive*
%FSLAX46Y46*%
G04 Gerber Fmt 4.6, Leading zero omitted, Abs format (unit mm)*
G04 Created by KiCad (PCBNEW (5.1.4)-1) date 2019-10-29 16:24:30*
%MOMM*%
%LPD*%
G04 APERTURE LIST*
%ADD10C,0.200000*%
%ADD11C,0.010000*%
%ADD12C,3.000000*%
%ADD13C,8.600000*%
%ADD14C,4.400000*%
%ADD15C,0.254000*%
G04 APERTURE END LIST*
D10*
X88870514Y-77567504D02*
X89013371Y-77686552D01*
X89299085Y-77686552D01*
X89441942Y-77567504D01*
X89513371Y-77448457D01*
X89584800Y-77210361D01*
X89584800Y-76496076D01*
X89513371Y-76257980D01*
X89441942Y-76138933D01*
X89299085Y-76019885D01*
X89013371Y-76019885D01*
X88870514Y-76138933D01*
X88013371Y-77686552D02*
X88156228Y-77567504D01*
X88227657Y-77448457D01*
X88299085Y-77210361D01*
X88299085Y-76496076D01*
X88227657Y-76257980D01*
X88156228Y-76138933D01*
X88013371Y-76019885D01*
X87799085Y-76019885D01*
X87656228Y-76138933D01*
X87584800Y-76257980D01*
X87513371Y-76496076D01*
X87513371Y-77210361D01*
X87584800Y-77448457D01*
X87656228Y-77567504D01*
X87799085Y-77686552D01*
X88013371Y-77686552D01*
X86941942Y-77567504D02*
X86799085Y-77686552D01*
X86513371Y-77686552D01*
X86370514Y-77567504D01*
X86299085Y-77329409D01*
X86299085Y-77210361D01*
X86370514Y-76972266D01*
X86513371Y-76853219D01*
X86727657Y-76853219D01*
X86870514Y-76734171D01*
X86941942Y-76496076D01*
X86941942Y-76377028D01*
X86870514Y-76138933D01*
X86727657Y-76019885D01*
X86513371Y-76019885D01*
X86370514Y-76138933D01*
X85084800Y-77567504D02*
X85227657Y-77686552D01*
X85513371Y-77686552D01*
X85656228Y-77567504D01*
X85727657Y-77329409D01*
X85727657Y-76377028D01*
X85656228Y-76138933D01*
X85513371Y-76019885D01*
X85227657Y-76019885D01*
X85084800Y-76138933D01*
X85013371Y-76377028D01*
X85013371Y-76615123D01*
X85727657Y-76853219D01*
X84513371Y-76019885D02*
X84156228Y-77686552D01*
X83799085Y-76019885D02*
X84156228Y-77686552D01*
X84299085Y-78281790D01*
X84370514Y-78400838D01*
X84513371Y-78519885D01*
X83441942Y-76019885D02*
X82870514Y-76019885D01*
X83227657Y-77686552D02*
X83227657Y-75543695D01*
X83156228Y-75305600D01*
X83013371Y-75186552D01*
X82870514Y-75186552D01*
X81727657Y-77686552D02*
X81727657Y-76377028D01*
X81799085Y-76138933D01*
X81941942Y-76019885D01*
X82227657Y-76019885D01*
X82370514Y-76138933D01*
X81727657Y-77567504D02*
X81870514Y-77686552D01*
X82227657Y-77686552D01*
X82370514Y-77567504D01*
X82441942Y-77329409D01*
X82441942Y-77091314D01*
X82370514Y-76853219D01*
X82227657Y-76734171D01*
X81870514Y-76734171D01*
X81727657Y-76615123D01*
X81013371Y-76019885D02*
X81013371Y-77686552D01*
X81013371Y-76257980D02*
X80941942Y-76138933D01*
X80799085Y-76019885D01*
X80584800Y-76019885D01*
X80441942Y-76138933D01*
X80370514Y-76377028D01*
X80370514Y-77686552D01*
X79656228Y-76019885D02*
X79656228Y-77686552D01*
X79656228Y-76257980D02*
X79584800Y-76138933D01*
X79441942Y-76019885D01*
X79227657Y-76019885D01*
X79084800Y-76138933D01*
X79013371Y-76377028D01*
X79013371Y-77686552D01*
X78299085Y-77686552D02*
X78299085Y-76019885D01*
X78299085Y-75186552D02*
X78370514Y-75305600D01*
X78299085Y-75424647D01*
X78227657Y-75305600D01*
X78299085Y-75186552D01*
X78299085Y-75424647D01*
X77799085Y-76019885D02*
X77227657Y-76019885D01*
X77584800Y-75186552D02*
X77584800Y-77329409D01*
X77513371Y-77567504D01*
X77370514Y-77686552D01*
X77227657Y-77686552D01*
X76084800Y-76019885D02*
X76084800Y-77686552D01*
X76727657Y-76019885D02*
X76727657Y-77329409D01*
X76656228Y-77567504D01*
X76513371Y-77686552D01*
X76299085Y-77686552D01*
X76156228Y-77567504D01*
X76084800Y-77448457D01*
X75584800Y-76019885D02*
X75013371Y-76019885D01*
X75370514Y-75186552D02*
X75370514Y-77329409D01*
X75299085Y-77567504D01*
X75156228Y-77686552D01*
X75013371Y-77686552D01*
X74727657Y-76019885D02*
X74156228Y-76019885D01*
X74513371Y-75186552D02*
X74513371Y-77329409D01*
X74441942Y-77567504D01*
X74299085Y-77686552D01*
X74156228Y-77686552D01*
X73656228Y-77686552D02*
X73656228Y-76019885D01*
X73656228Y-75186552D02*
X73727657Y-75305600D01*
X73656228Y-75424647D01*
X73584800Y-75305600D01*
X73656228Y-75186552D01*
X73656228Y-75424647D01*
D11*
G36*
X91837934Y-78001377D02*
G01*
X92407317Y-77999200D01*
X92976700Y-77997024D01*
X92976700Y-77590624D01*
X91837934Y-77586272D01*
X91837934Y-76925991D01*
X92557601Y-76925991D01*
X92557601Y-76494191D01*
X91837934Y-76494191D01*
X91837934Y-75816977D01*
X92407317Y-75814800D01*
X92976700Y-75812624D01*
X92978963Y-75598841D01*
X92981225Y-75385058D01*
X91837934Y-75385058D01*
X91837934Y-74766991D01*
X91397667Y-74766991D01*
X91397667Y-75385058D01*
X90263134Y-75385058D01*
X90263134Y-75816857D01*
X91397667Y-75816857D01*
X91397667Y-76494191D01*
X90686467Y-76494191D01*
X90686467Y-76925991D01*
X91397667Y-76925991D01*
X91397667Y-77586391D01*
X90263134Y-77586391D01*
X90263134Y-78001257D01*
X91397448Y-78001257D01*
X91401900Y-78589691D01*
X91619917Y-78591950D01*
X91837934Y-78594210D01*
X91837934Y-78001377D01*
X91837934Y-78001377D01*
G37*
X91837934Y-78001377D02*
X92407317Y-77999200D01*
X92976700Y-77997024D01*
X92976700Y-77590624D01*
X91837934Y-77586272D01*
X91837934Y-76925991D01*
X92557601Y-76925991D01*
X92557601Y-76494191D01*
X91837934Y-76494191D01*
X91837934Y-75816977D01*
X92407317Y-75814800D01*
X92976700Y-75812624D01*
X92978963Y-75598841D01*
X92981225Y-75385058D01*
X91837934Y-75385058D01*
X91837934Y-74766991D01*
X91397667Y-74766991D01*
X91397667Y-75385058D01*
X90263134Y-75385058D01*
X90263134Y-75816857D01*
X91397667Y-75816857D01*
X91397667Y-76494191D01*
X90686467Y-76494191D01*
X90686467Y-76925991D01*
X91397667Y-76925991D01*
X91397667Y-77586391D01*
X90263134Y-77586391D01*
X90263134Y-78001257D01*
X91397448Y-78001257D01*
X91401900Y-78589691D01*
X91619917Y-78591950D01*
X91837934Y-78594210D01*
X91837934Y-78001377D01*
D12*
X227271166Y-85872600D02*
X63737832Y-85872600D01*
X227271166Y-36872600D02*
X63737832Y-36872600D01*
X63737832Y-36872600D02*
G75*
G03X63737832Y-85872600I0J-24500000D01*
G01*
X227271166Y-85872600D02*
G75*
G03X227271166Y-36872600I0J24500000D01*
G01*
D11*
G36*
X107446455Y-54404914D02*
G01*
X107515902Y-55245407D01*
X110690902Y-55307226D01*
X113865902Y-55369046D01*
X113865902Y-60258565D01*
X108295727Y-60258565D01*
X108295727Y-61818214D01*
X113865902Y-61818214D01*
X113865902Y-67388390D01*
X110650215Y-67388390D01*
X109389865Y-67392096D01*
X108504579Y-67409455D01*
X107923826Y-67449829D01*
X107577077Y-67522580D01*
X107393802Y-67637071D01*
X107303470Y-67802662D01*
X107293095Y-67834004D01*
X107240202Y-68426587D01*
X107293095Y-68725232D01*
X107364595Y-68882140D01*
X107506064Y-68997170D01*
X107779352Y-69076799D01*
X108246308Y-69127504D01*
X108968784Y-69155761D01*
X110008628Y-69168047D01*
X111427691Y-69170839D01*
X111548436Y-69170846D01*
X113099380Y-69162855D01*
X114250007Y-69136889D01*
X115045358Y-69089959D01*
X115530479Y-69019078D01*
X115750412Y-68921255D01*
X115769826Y-68890753D01*
X115793764Y-68607969D01*
X115812385Y-67933748D01*
X115825347Y-66922238D01*
X115832311Y-65627588D01*
X115832935Y-64103947D01*
X115826878Y-62405464D01*
X115818535Y-61148209D01*
X115759762Y-53685758D01*
X111568384Y-53625089D01*
X107377007Y-53564421D01*
X107446455Y-54404914D01*
X107446455Y-54404914D01*
G37*
X107446455Y-54404914D02*
X107515902Y-55245407D01*
X110690902Y-55307226D01*
X113865902Y-55369046D01*
X113865902Y-60258565D01*
X108295727Y-60258565D01*
X108295727Y-61818214D01*
X113865902Y-61818214D01*
X113865902Y-67388390D01*
X110650215Y-67388390D01*
X109389865Y-67392096D01*
X108504579Y-67409455D01*
X107923826Y-67449829D01*
X107577077Y-67522580D01*
X107393802Y-67637071D01*
X107303470Y-67802662D01*
X107293095Y-67834004D01*
X107240202Y-68426587D01*
X107293095Y-68725232D01*
X107364595Y-68882140D01*
X107506064Y-68997170D01*
X107779352Y-69076799D01*
X108246308Y-69127504D01*
X108968784Y-69155761D01*
X110008628Y-69168047D01*
X111427691Y-69170839D01*
X111548436Y-69170846D01*
X113099380Y-69162855D01*
X114250007Y-69136889D01*
X115045358Y-69089959D01*
X115530479Y-69019078D01*
X115750412Y-68921255D01*
X115769826Y-68890753D01*
X115793764Y-68607969D01*
X115812385Y-67933748D01*
X115825347Y-66922238D01*
X115832311Y-65627588D01*
X115832935Y-64103947D01*
X115826878Y-62405464D01*
X115818535Y-61148209D01*
X115759762Y-53685758D01*
X111568384Y-53625089D01*
X107377007Y-53564421D01*
X107446455Y-54404914D01*
G36*
X151768257Y-53611709D02*
G01*
X151062461Y-53761425D01*
X150660080Y-53964267D01*
X150441743Y-54287844D01*
X150087974Y-54988002D01*
X149617225Y-56023123D01*
X149047948Y-57351588D01*
X148398595Y-58931778D01*
X147870179Y-60256955D01*
X147190849Y-61974661D01*
X146652634Y-63315859D01*
X146236597Y-64319925D01*
X145923803Y-65026231D01*
X145695314Y-65474150D01*
X145532196Y-65703056D01*
X145415512Y-65752321D01*
X145326326Y-65661318D01*
X145298416Y-65604324D01*
X145148376Y-65251202D01*
X144854811Y-64548191D01*
X144443542Y-63557580D01*
X143940392Y-62341661D01*
X143371182Y-60962725D01*
X142872143Y-59751359D01*
X142263686Y-58291109D01*
X141690936Y-56950326D01*
X141181011Y-55789859D01*
X140761030Y-54870559D01*
X140458114Y-54253275D01*
X140315188Y-54014078D01*
X139939292Y-53730186D01*
X139358329Y-53597665D01*
X138755627Y-53574355D01*
X138035658Y-53622040D01*
X137485022Y-53744070D01*
X137305200Y-53841723D01*
X137227072Y-54049532D01*
X137164019Y-54521474D01*
X137114984Y-55288372D01*
X137078911Y-56381050D01*
X137054742Y-57830332D01*
X137041421Y-59667043D01*
X137037832Y-61639969D01*
X137037832Y-69170846D01*
X139036747Y-69170846D01*
X139095623Y-62237193D01*
X139154499Y-55303539D01*
X141466269Y-61067456D01*
X142285351Y-63111525D01*
X142955627Y-64780829D01*
X143496749Y-66113147D01*
X143928366Y-67146261D01*
X144270129Y-67917950D01*
X144541689Y-68465995D01*
X144762695Y-68828177D01*
X144952798Y-69042277D01*
X145131648Y-69146075D01*
X145318895Y-69177351D01*
X145534190Y-69173886D01*
X145680975Y-69170846D01*
X146550394Y-69170846D01*
X148401711Y-64436197D01*
X148996408Y-62917369D01*
X149594566Y-61393415D01*
X150157415Y-59962844D01*
X150646183Y-58724166D01*
X151022099Y-57775891D01*
X151098238Y-57584881D01*
X151943448Y-55468214D01*
X151965902Y-69170846D01*
X153971165Y-69170846D01*
X153971165Y-61639969D01*
X153966561Y-59434752D01*
X153952045Y-57644238D01*
X153926558Y-56237602D01*
X153889046Y-55184020D01*
X153838450Y-54452667D01*
X153773714Y-54012720D01*
X153703797Y-53841723D01*
X153258717Y-53645022D01*
X152556940Y-53570630D01*
X151768257Y-53611709D01*
X151768257Y-53611709D01*
G37*
X151768257Y-53611709D02*
X151062461Y-53761425D01*
X150660080Y-53964267D01*
X150441743Y-54287844D01*
X150087974Y-54988002D01*
X149617225Y-56023123D01*
X149047948Y-57351588D01*
X148398595Y-58931778D01*
X147870179Y-60256955D01*
X147190849Y-61974661D01*
X146652634Y-63315859D01*
X146236597Y-64319925D01*
X145923803Y-65026231D01*
X145695314Y-65474150D01*
X145532196Y-65703056D01*
X145415512Y-65752321D01*
X145326326Y-65661318D01*
X145298416Y-65604324D01*
X145148376Y-65251202D01*
X144854811Y-64548191D01*
X144443542Y-63557580D01*
X143940392Y-62341661D01*
X143371182Y-60962725D01*
X142872143Y-59751359D01*
X142263686Y-58291109D01*
X141690936Y-56950326D01*
X141181011Y-55789859D01*
X140761030Y-54870559D01*
X140458114Y-54253275D01*
X140315188Y-54014078D01*
X139939292Y-53730186D01*
X139358329Y-53597665D01*
X138755627Y-53574355D01*
X138035658Y-53622040D01*
X137485022Y-53744070D01*
X137305200Y-53841723D01*
X137227072Y-54049532D01*
X137164019Y-54521474D01*
X137114984Y-55288372D01*
X137078911Y-56381050D01*
X137054742Y-57830332D01*
X137041421Y-59667043D01*
X137037832Y-61639969D01*
X137037832Y-69170846D01*
X139036747Y-69170846D01*
X139095623Y-62237193D01*
X139154499Y-55303539D01*
X141466269Y-61067456D01*
X142285351Y-63111525D01*
X142955627Y-64780829D01*
X143496749Y-66113147D01*
X143928366Y-67146261D01*
X144270129Y-67917950D01*
X144541689Y-68465995D01*
X144762695Y-68828177D01*
X144952798Y-69042277D01*
X145131648Y-69146075D01*
X145318895Y-69177351D01*
X145534190Y-69173886D01*
X145680975Y-69170846D01*
X146550394Y-69170846D01*
X148401711Y-64436197D01*
X148996408Y-62917369D01*
X149594566Y-61393415D01*
X150157415Y-59962844D01*
X150646183Y-58724166D01*
X151022099Y-57775891D01*
X151098238Y-57584881D01*
X151943448Y-55468214D01*
X151965902Y-69170846D01*
X153971165Y-69170846D01*
X153971165Y-61639969D01*
X153966561Y-59434752D01*
X153952045Y-57644238D01*
X153926558Y-56237602D01*
X153889046Y-55184020D01*
X153838450Y-54452667D01*
X153773714Y-54012720D01*
X153703797Y-53841723D01*
X153258717Y-53645022D01*
X152556940Y-53570630D01*
X151768257Y-53611709D01*
G36*
X214913290Y-53592908D02*
G01*
X214115325Y-53613690D01*
X212842281Y-53659090D01*
X211918087Y-53720813D01*
X211245982Y-53813287D01*
X210729206Y-53950936D01*
X210270998Y-54148188D01*
X210165495Y-54202567D01*
X209181823Y-54944017D01*
X208525342Y-55903228D01*
X208193476Y-56998252D01*
X208183647Y-58147139D01*
X208493281Y-59267941D01*
X209119800Y-60278711D01*
X210060629Y-61097499D01*
X210388156Y-61285405D01*
X211037243Y-61621061D01*
X210459100Y-62075829D01*
X210014036Y-62548261D01*
X209545242Y-63227185D01*
X209352312Y-63573827D01*
X208998929Y-64315384D01*
X208595564Y-65230051D01*
X208182100Y-66218251D01*
X207798423Y-67180411D01*
X207484416Y-68016958D01*
X207279966Y-68628317D01*
X207222043Y-68892140D01*
X207358452Y-69080808D01*
X207815293Y-69143275D01*
X208265636Y-69127352D01*
X209309230Y-69059442D01*
X210369552Y-66385758D01*
X210987252Y-64919830D01*
X211545347Y-63834482D01*
X212092303Y-63077986D01*
X212676586Y-62598611D01*
X213346661Y-62344628D01*
X214150993Y-62264307D01*
X214231388Y-62263828D01*
X215454296Y-62263828D01*
X215577306Y-69059442D01*
X216476617Y-69125628D01*
X217081878Y-69131384D01*
X217482565Y-69064257D01*
X217534950Y-69032792D01*
X217573293Y-68779322D01*
X217608310Y-68133986D01*
X217638852Y-67150526D01*
X217663768Y-65882684D01*
X217681908Y-64384203D01*
X217692123Y-62708825D01*
X217693972Y-61600858D01*
X217690029Y-59489252D01*
X217677198Y-57783810D01*
X217653979Y-56445145D01*
X217618872Y-55433869D01*
X217613706Y-55356811D01*
X215465902Y-55356811D01*
X215465902Y-60481372D01*
X214010500Y-60481372D01*
X213111577Y-60431711D01*
X212275421Y-60303042D01*
X211797229Y-60164714D01*
X211027728Y-59627856D01*
X210548672Y-58851185D01*
X210375215Y-57945300D01*
X210522515Y-57020797D01*
X211005728Y-56188277D01*
X211222327Y-55969530D01*
X211609774Y-55659036D01*
X211998567Y-55475515D01*
X212520653Y-55386164D01*
X213307981Y-55358180D01*
X213686961Y-55356811D01*
X215465902Y-55356811D01*
X217613706Y-55356811D01*
X217570377Y-54710594D01*
X217506993Y-54235931D01*
X217427221Y-53970492D01*
X217401728Y-53928278D01*
X217241316Y-53766729D01*
X216988789Y-53659743D01*
X216567623Y-53599994D01*
X215901297Y-53580157D01*
X214913290Y-53592908D01*
X214913290Y-53592908D01*
G37*
X214913290Y-53592908D02*
X214115325Y-53613690D01*
X212842281Y-53659090D01*
X211918087Y-53720813D01*
X211245982Y-53813287D01*
X210729206Y-53950936D01*
X210270998Y-54148188D01*
X210165495Y-54202567D01*
X209181823Y-54944017D01*
X208525342Y-55903228D01*
X208193476Y-56998252D01*
X208183647Y-58147139D01*
X208493281Y-59267941D01*
X209119800Y-60278711D01*
X210060629Y-61097499D01*
X210388156Y-61285405D01*
X211037243Y-61621061D01*
X210459100Y-62075829D01*
X210014036Y-62548261D01*
X209545242Y-63227185D01*
X209352312Y-63573827D01*
X208998929Y-64315384D01*
X208595564Y-65230051D01*
X208182100Y-66218251D01*
X207798423Y-67180411D01*
X207484416Y-68016958D01*
X207279966Y-68628317D01*
X207222043Y-68892140D01*
X207358452Y-69080808D01*
X207815293Y-69143275D01*
X208265636Y-69127352D01*
X209309230Y-69059442D01*
X210369552Y-66385758D01*
X210987252Y-64919830D01*
X211545347Y-63834482D01*
X212092303Y-63077986D01*
X212676586Y-62598611D01*
X213346661Y-62344628D01*
X214150993Y-62264307D01*
X214231388Y-62263828D01*
X215454296Y-62263828D01*
X215577306Y-69059442D01*
X216476617Y-69125628D01*
X217081878Y-69131384D01*
X217482565Y-69064257D01*
X217534950Y-69032792D01*
X217573293Y-68779322D01*
X217608310Y-68133986D01*
X217638852Y-67150526D01*
X217663768Y-65882684D01*
X217681908Y-64384203D01*
X217692123Y-62708825D01*
X217693972Y-61600858D01*
X217690029Y-59489252D01*
X217677198Y-57783810D01*
X217653979Y-56445145D01*
X217618872Y-55433869D01*
X217613706Y-55356811D01*
X215465902Y-55356811D01*
X215465902Y-60481372D01*
X214010500Y-60481372D01*
X213111577Y-60431711D01*
X212275421Y-60303042D01*
X211797229Y-60164714D01*
X211027728Y-59627856D01*
X210548672Y-58851185D01*
X210375215Y-57945300D01*
X210522515Y-57020797D01*
X211005728Y-56188277D01*
X211222327Y-55969530D01*
X211609774Y-55659036D01*
X211998567Y-55475515D01*
X212520653Y-55386164D01*
X213307981Y-55358180D01*
X213686961Y-55356811D01*
X215465902Y-55356811D01*
X217613706Y-55356811D01*
X217570377Y-54710594D01*
X217506993Y-54235931D01*
X217427221Y-53970492D01*
X217401728Y-53928278D01*
X217241316Y-53766729D01*
X216988789Y-53659743D01*
X216567623Y-53599994D01*
X215901297Y-53580157D01*
X214913290Y-53592908D01*
G36*
X79331497Y-53469493D02*
G01*
X77720398Y-53898020D01*
X76372752Y-54677934D01*
X75299545Y-55803243D01*
X74633004Y-56977275D01*
X74271036Y-58141582D01*
X74051036Y-59586521D01*
X73976778Y-61169076D01*
X74052038Y-62746235D01*
X74280591Y-64174982D01*
X74428760Y-64713772D01*
X75137272Y-66336730D01*
X76107993Y-67601095D01*
X77349205Y-68513074D01*
X78869188Y-69078874D01*
X80547592Y-69300138D01*
X81535015Y-69307917D01*
X82472990Y-69259520D01*
X83174525Y-69165251D01*
X83229937Y-69152348D01*
X84645386Y-68583933D01*
X85815824Y-67657301D01*
X86727859Y-66394921D01*
X87368098Y-64819267D01*
X87723148Y-62952810D01*
X87794837Y-61492894D01*
X87755108Y-60951199D01*
X85532721Y-60951199D01*
X85514473Y-62763339D01*
X85289329Y-64227745D01*
X84843166Y-65398441D01*
X84161861Y-66329454D01*
X84114008Y-66378061D01*
X83074645Y-67117360D01*
X81820303Y-67530757D01*
X80462638Y-67595474D01*
X79308361Y-67358510D01*
X78281721Y-66798260D01*
X77373909Y-65881818D01*
X76671316Y-64697423D01*
X76645850Y-64639102D01*
X76405594Y-63988160D01*
X76258145Y-63307349D01*
X76184346Y-62461083D01*
X76165040Y-61313774D01*
X76165184Y-61237137D01*
X76257772Y-59521695D01*
X76539174Y-58149012D01*
X77029602Y-57049359D01*
X77592813Y-56312123D01*
X78479878Y-55666862D01*
X79609319Y-55274948D01*
X80851403Y-55144563D01*
X82076394Y-55283892D01*
X83154557Y-55701119D01*
X83505025Y-55939178D01*
X84373730Y-56814019D01*
X84981789Y-57884808D01*
X85357829Y-59222305D01*
X85530475Y-60897269D01*
X85532721Y-60951199D01*
X87755108Y-60951199D01*
X87638113Y-59356053D01*
X87177531Y-57536629D01*
X86417315Y-56039803D01*
X85361691Y-54870757D01*
X84014882Y-54034672D01*
X82381113Y-53536729D01*
X81195060Y-53398346D01*
X79331497Y-53469493D01*
X79331497Y-53469493D01*
G37*
X79331497Y-53469493D02*
X77720398Y-53898020D01*
X76372752Y-54677934D01*
X75299545Y-55803243D01*
X74633004Y-56977275D01*
X74271036Y-58141582D01*
X74051036Y-59586521D01*
X73976778Y-61169076D01*
X74052038Y-62746235D01*
X74280591Y-64174982D01*
X74428760Y-64713772D01*
X75137272Y-66336730D01*
X76107993Y-67601095D01*
X77349205Y-68513074D01*
X78869188Y-69078874D01*
X80547592Y-69300138D01*
X81535015Y-69307917D01*
X82472990Y-69259520D01*
X83174525Y-69165251D01*
X83229937Y-69152348D01*
X84645386Y-68583933D01*
X85815824Y-67657301D01*
X86727859Y-66394921D01*
X87368098Y-64819267D01*
X87723148Y-62952810D01*
X87794837Y-61492894D01*
X87755108Y-60951199D01*
X85532721Y-60951199D01*
X85514473Y-62763339D01*
X85289329Y-64227745D01*
X84843166Y-65398441D01*
X84161861Y-66329454D01*
X84114008Y-66378061D01*
X83074645Y-67117360D01*
X81820303Y-67530757D01*
X80462638Y-67595474D01*
X79308361Y-67358510D01*
X78281721Y-66798260D01*
X77373909Y-65881818D01*
X76671316Y-64697423D01*
X76645850Y-64639102D01*
X76405594Y-63988160D01*
X76258145Y-63307349D01*
X76184346Y-62461083D01*
X76165040Y-61313774D01*
X76165184Y-61237137D01*
X76257772Y-59521695D01*
X76539174Y-58149012D01*
X77029602Y-57049359D01*
X77592813Y-56312123D01*
X78479878Y-55666862D01*
X79609319Y-55274948D01*
X80851403Y-55144563D01*
X82076394Y-55283892D01*
X83154557Y-55701119D01*
X83505025Y-55939178D01*
X84373730Y-56814019D01*
X84981789Y-57884808D01*
X85357829Y-59222305D01*
X85530475Y-60897269D01*
X85532721Y-60951199D01*
X87755108Y-60951199D01*
X87638113Y-59356053D01*
X87177531Y-57536629D01*
X86417315Y-56039803D01*
X85361691Y-54870757D01*
X84014882Y-54034672D01*
X82381113Y-53536729D01*
X81195060Y-53398346D01*
X79331497Y-53469493D01*
G36*
X179869075Y-53416767D02*
G01*
X178440079Y-53712262D01*
X177222174Y-54308563D01*
X176260222Y-55104429D01*
X175528067Y-55936311D01*
X175001286Y-56804420D01*
X174651849Y-57800011D01*
X174451726Y-59014334D01*
X174372886Y-60538645D01*
X174369054Y-61261197D01*
X174388955Y-62518344D01*
X174446733Y-63449831D01*
X174557601Y-64175036D01*
X174736767Y-64813335D01*
X174865846Y-65160319D01*
X175666824Y-66695599D01*
X176717115Y-67869413D01*
X178032622Y-68692517D01*
X179629250Y-69175668D01*
X181018101Y-69321309D01*
X182444107Y-69300352D01*
X183595569Y-69131253D01*
X183847554Y-69060498D01*
X185016666Y-68489380D01*
X186111238Y-67605096D01*
X186991488Y-66535294D01*
X187360881Y-65852202D01*
X187774150Y-64515672D01*
X188013674Y-62925566D01*
X188068085Y-61498448D01*
X185953036Y-61498448D01*
X185834149Y-63014722D01*
X185522622Y-64417937D01*
X185041885Y-65606125D01*
X184415371Y-66477315D01*
X184345701Y-66542986D01*
X183351913Y-67166500D01*
X182132666Y-67515410D01*
X180826386Y-67572334D01*
X179571497Y-67319888D01*
X179233897Y-67184941D01*
X178136792Y-66449192D01*
X177314681Y-65365407D01*
X176769472Y-63937689D01*
X176503079Y-62170134D01*
X176474674Y-61266225D01*
X176610086Y-59363878D01*
X177015849Y-57814282D01*
X177691254Y-56618255D01*
X178635591Y-55776614D01*
X179848151Y-55290178D01*
X181328225Y-55159764D01*
X181751181Y-55183808D01*
X183076385Y-55482964D01*
X184150196Y-56142565D01*
X184976454Y-57167087D01*
X185558995Y-58561007D01*
X185855851Y-59971086D01*
X185953036Y-61498448D01*
X188068085Y-61498448D01*
X188078492Y-61225505D01*
X187967646Y-59559112D01*
X187680177Y-58070008D01*
X187417932Y-57310658D01*
X186566492Y-55837604D01*
X185425619Y-54700269D01*
X184009402Y-53908112D01*
X182331930Y-53470590D01*
X181587955Y-53396824D01*
X179869075Y-53416767D01*
X179869075Y-53416767D01*
G37*
X179869075Y-53416767D02*
X178440079Y-53712262D01*
X177222174Y-54308563D01*
X176260222Y-55104429D01*
X175528067Y-55936311D01*
X175001286Y-56804420D01*
X174651849Y-57800011D01*
X174451726Y-59014334D01*
X174372886Y-60538645D01*
X174369054Y-61261197D01*
X174388955Y-62518344D01*
X174446733Y-63449831D01*
X174557601Y-64175036D01*
X174736767Y-64813335D01*
X174865846Y-65160319D01*
X175666824Y-66695599D01*
X176717115Y-67869413D01*
X178032622Y-68692517D01*
X179629250Y-69175668D01*
X181018101Y-69321309D01*
X182444107Y-69300352D01*
X183595569Y-69131253D01*
X183847554Y-69060498D01*
X185016666Y-68489380D01*
X186111238Y-67605096D01*
X186991488Y-66535294D01*
X187360881Y-65852202D01*
X187774150Y-64515672D01*
X188013674Y-62925566D01*
X188068085Y-61498448D01*
X185953036Y-61498448D01*
X185834149Y-63014722D01*
X185522622Y-64417937D01*
X185041885Y-65606125D01*
X184415371Y-66477315D01*
X184345701Y-66542986D01*
X183351913Y-67166500D01*
X182132666Y-67515410D01*
X180826386Y-67572334D01*
X179571497Y-67319888D01*
X179233897Y-67184941D01*
X178136792Y-66449192D01*
X177314681Y-65365407D01*
X176769472Y-63937689D01*
X176503079Y-62170134D01*
X176474674Y-61266225D01*
X176610086Y-59363878D01*
X177015849Y-57814282D01*
X177691254Y-56618255D01*
X178635591Y-55776614D01*
X179848151Y-55290178D01*
X181328225Y-55159764D01*
X181751181Y-55183808D01*
X183076385Y-55482964D01*
X184150196Y-56142565D01*
X184976454Y-57167087D01*
X185558995Y-58561007D01*
X185855851Y-59971086D01*
X185953036Y-61498448D01*
X188068085Y-61498448D01*
X188078492Y-61225505D01*
X187967646Y-59559112D01*
X187680177Y-58070008D01*
X187417932Y-57310658D01*
X186566492Y-55837604D01*
X185425619Y-54700269D01*
X184009402Y-53908112D01*
X182331930Y-53470590D01*
X181587955Y-53396824D01*
X179869075Y-53416767D01*
D13*
X241366999Y-38133400D03*
X49717001Y-38133400D03*
D14*
X227380800Y-91922600D03*
X63703200Y-91922600D03*
X48844200Y-53822600D03*
X242239800Y-53822600D03*
X145504499Y-53822600D03*
X265366999Y-15497599D03*
X265366999Y-29772600D03*
X25717001Y-29772600D03*
X25717001Y-15772600D03*
D15*
G36*
X266022539Y-12482601D02*
G01*
X266561408Y-12534944D01*
X267046132Y-12680812D01*
X267493287Y-12918047D01*
X267885849Y-13237621D01*
X268208862Y-13627355D01*
X268450023Y-14072408D01*
X268600148Y-14555829D01*
X268657001Y-15092077D01*
X268656999Y-107628138D01*
X268604656Y-108167009D01*
X268458788Y-108651732D01*
X268221552Y-109098888D01*
X267901979Y-109491449D01*
X267512243Y-109814463D01*
X267067192Y-110055623D01*
X266583771Y-110205748D01*
X266047529Y-110262600D01*
X25061466Y-110264659D01*
X24522591Y-110212316D01*
X24037868Y-110066448D01*
X23590712Y-109829212D01*
X23198151Y-109509639D01*
X22875137Y-109119903D01*
X22633977Y-108674852D01*
X22483852Y-108191431D01*
X22426999Y-107655183D01*
X22426999Y-91643377D01*
X224545800Y-91643377D01*
X224545800Y-92201823D01*
X224654748Y-92749539D01*
X224868456Y-93265476D01*
X225178712Y-93729807D01*
X225573593Y-94124688D01*
X226037924Y-94434944D01*
X226553861Y-94648652D01*
X227101577Y-94757600D01*
X227660023Y-94757600D01*
X228207739Y-94648652D01*
X228723676Y-94434944D01*
X229188007Y-94124688D01*
X229582888Y-93729807D01*
X229893144Y-93265476D01*
X230106852Y-92749539D01*
X230215800Y-92201823D01*
X230215800Y-91643377D01*
X230106852Y-91095661D01*
X229893144Y-90579724D01*
X229582888Y-90115393D01*
X229188007Y-89720512D01*
X228723676Y-89410256D01*
X228207739Y-89196548D01*
X227660023Y-89087600D01*
X227101577Y-89087600D01*
X226553861Y-89196548D01*
X226037924Y-89410256D01*
X225573593Y-89720512D01*
X225178712Y-90115393D01*
X224868456Y-90579724D01*
X224654748Y-91095661D01*
X224545800Y-91643377D01*
X22426999Y-91643377D01*
X22426999Y-60506383D01*
X37117786Y-60506383D01*
X37117786Y-60528740D01*
X37128082Y-62495171D01*
X37131463Y-62569613D01*
X37134063Y-62644073D01*
X37135856Y-62666358D01*
X37303825Y-64625630D01*
X37313168Y-64699588D01*
X37321728Y-64773571D01*
X37325302Y-64795640D01*
X37649861Y-66735130D01*
X37665105Y-66808097D01*
X37679571Y-66881159D01*
X37684904Y-66902871D01*
X38163963Y-68810084D01*
X38185004Y-68881574D01*
X38205289Y-68953261D01*
X38212346Y-68974475D01*
X38842818Y-70837124D01*
X38869532Y-70906715D01*
X38895493Y-70976524D01*
X38904229Y-70997104D01*
X39682052Y-72803191D01*
X39714249Y-72870391D01*
X39745737Y-72937918D01*
X39756095Y-72957731D01*
X40676259Y-74695619D01*
X40713760Y-74760052D01*
X40750545Y-74824805D01*
X40762458Y-74843724D01*
X41819035Y-76502217D01*
X41861557Y-76563397D01*
X41903441Y-76625028D01*
X41916834Y-76642931D01*
X43103017Y-78211346D01*
X43150300Y-78268910D01*
X43197002Y-78326995D01*
X43211787Y-78343765D01*
X44519935Y-79811998D01*
X44571704Y-79865606D01*
X44622890Y-79919734D01*
X44638973Y-79935265D01*
X46060657Y-81293855D01*
X46116550Y-81343132D01*
X46171922Y-81392989D01*
X46189198Y-81407180D01*
X47715261Y-82647378D01*
X47774942Y-82692025D01*
X47834118Y-82737269D01*
X47852476Y-82750028D01*
X49473086Y-83863843D01*
X49536163Y-83903565D01*
X49598769Y-83943912D01*
X49618092Y-83955158D01*
X51322808Y-84935413D01*
X51388863Y-84969946D01*
X51454507Y-85005144D01*
X51474647Y-85014793D01*
X51474670Y-85014805D01*
X51474691Y-85014814D01*
X53252510Y-85855185D01*
X53321064Y-85884284D01*
X53389378Y-85914130D01*
X53410251Y-85922142D01*
X55249762Y-86617235D01*
X55320494Y-86640764D01*
X55390916Y-86665013D01*
X55412347Y-86671320D01*
X55412365Y-86671326D01*
X55412382Y-86671330D01*
X57301694Y-87216653D01*
X57374068Y-87234430D01*
X57446227Y-87252957D01*
X57468105Y-87257528D01*
X57468111Y-87257529D01*
X57468116Y-87257530D01*
X59395093Y-87649577D01*
X59468606Y-87661484D01*
X59542069Y-87674173D01*
X59564250Y-87676975D01*
X61516465Y-87913220D01*
X61590733Y-87919195D01*
X61664943Y-87925949D01*
X61687275Y-87926963D01*
X61687277Y-87926963D01*
X63590240Y-88003393D01*
X63632950Y-88007600D01*
X227376048Y-88007600D01*
X227381619Y-88007051D01*
X227538901Y-88006228D01*
X227576142Y-88004537D01*
X227613407Y-88004537D01*
X227635741Y-88003523D01*
X229599680Y-87904034D01*
X229673905Y-87897279D01*
X229748156Y-87891305D01*
X229770334Y-87888503D01*
X229770338Y-87888503D01*
X229770341Y-87888502D01*
X231719972Y-87631829D01*
X231793383Y-87619148D01*
X231866951Y-87607233D01*
X231888836Y-87602661D01*
X233811605Y-87190454D01*
X233883790Y-87171920D01*
X233956135Y-87154151D01*
X233977562Y-87147844D01*
X233977585Y-87147838D01*
X233977605Y-87147831D01*
X235861100Y-86582756D01*
X235931568Y-86558492D01*
X236002255Y-86534978D01*
X236023127Y-86526966D01*
X237855258Y-85812648D01*
X237923572Y-85782802D01*
X237992126Y-85753703D01*
X238012278Y-85744048D01*
X238012289Y-85744043D01*
X238012299Y-85744038D01*
X239781231Y-84885091D01*
X239846921Y-84849869D01*
X239912932Y-84815359D01*
X239932245Y-84804119D01*
X239932254Y-84804114D01*
X239932261Y-84804109D01*
X241626612Y-83806060D01*
X241689266Y-83765682D01*
X241752295Y-83725991D01*
X241770640Y-83713240D01*
X241770654Y-83713231D01*
X241770665Y-83713222D01*
X243379510Y-82582508D01*
X243438712Y-82537245D01*
X243498367Y-82492617D01*
X243515630Y-82478437D01*
X243515644Y-82478426D01*
X243515656Y-82478415D01*
X245028635Y-81222316D01*
X245084000Y-81172466D01*
X245139900Y-81123183D01*
X245155983Y-81107652D01*
X246563362Y-79734248D01*
X246614546Y-79680122D01*
X246666318Y-79626511D01*
X246681103Y-79609740D01*
X247973804Y-78127889D01*
X248020492Y-78069821D01*
X248067788Y-78012242D01*
X248081180Y-77994340D01*
X249250874Y-76413590D01*
X249292731Y-76351998D01*
X249335281Y-76290778D01*
X249347194Y-76271859D01*
X250386346Y-74602392D01*
X250423131Y-74537639D01*
X250460632Y-74473206D01*
X250470983Y-74453405D01*
X250470990Y-74453393D01*
X250470995Y-74453383D01*
X251372905Y-72705964D01*
X251404401Y-72638420D01*
X251436590Y-72571237D01*
X251445326Y-72550657D01*
X252204194Y-70736524D01*
X252230167Y-70666684D01*
X252256869Y-70597123D01*
X252263926Y-70575909D01*
X252874858Y-68706760D01*
X252895143Y-68635074D01*
X252916184Y-68563583D01*
X252921517Y-68541871D01*
X253380577Y-66629748D01*
X253395050Y-66556655D01*
X253410287Y-66483719D01*
X253413861Y-66461649D01*
X253718093Y-64518868D01*
X253726656Y-64444859D01*
X253735996Y-64370924D01*
X253737789Y-64348639D01*
X253885231Y-62387717D01*
X253887831Y-62313264D01*
X253891212Y-62238817D01*
X253891212Y-62216460D01*
X253880916Y-60250029D01*
X253877535Y-60175587D01*
X253874935Y-60101127D01*
X253873142Y-60078842D01*
X253705173Y-58119571D01*
X253695831Y-58045619D01*
X253687270Y-57971629D01*
X253683696Y-57949560D01*
X253359137Y-56010071D01*
X253343899Y-55937132D01*
X253329427Y-55864040D01*
X253324094Y-55842328D01*
X252845035Y-53935116D01*
X252823990Y-53863612D01*
X252803709Y-53791940D01*
X252796652Y-53770725D01*
X252166180Y-51908076D01*
X252139466Y-51838485D01*
X252113505Y-51768676D01*
X252104769Y-51748096D01*
X251326946Y-49942010D01*
X251294751Y-49874814D01*
X251263261Y-49807282D01*
X251252903Y-49787469D01*
X250332739Y-48049581D01*
X250295251Y-47985171D01*
X250258453Y-47920394D01*
X250246552Y-47901497D01*
X250246540Y-47901476D01*
X250246528Y-47901459D01*
X249189963Y-46242983D01*
X249147420Y-46181772D01*
X249105556Y-46120171D01*
X249092164Y-46102269D01*
X247905981Y-44533853D01*
X247858660Y-44476243D01*
X247811996Y-44418205D01*
X247797226Y-44401452D01*
X247797212Y-44401435D01*
X247797199Y-44401422D01*
X246489063Y-42933203D01*
X246437293Y-42879593D01*
X246386107Y-42825466D01*
X246370025Y-42809935D01*
X244989176Y-41490367D01*
X245200264Y-41279279D01*
X245740339Y-40470999D01*
X246112349Y-39572886D01*
X246301999Y-38619455D01*
X246301999Y-37647345D01*
X246112349Y-36693914D01*
X245740339Y-35795801D01*
X245200264Y-34987521D01*
X244512878Y-34300135D01*
X243704598Y-33760060D01*
X242806485Y-33388050D01*
X241853054Y-33198400D01*
X240880944Y-33198400D01*
X239927513Y-33388050D01*
X239029400Y-33760060D01*
X238221120Y-34300135D01*
X237533734Y-34987521D01*
X236993659Y-35795801D01*
X236707631Y-36486334D01*
X235759235Y-36127965D01*
X235688520Y-36104441D01*
X235618082Y-36080187D01*
X235596651Y-36073880D01*
X235596633Y-36073874D01*
X235596616Y-36073870D01*
X233707303Y-35528547D01*
X233634993Y-35510786D01*
X233562771Y-35492242D01*
X233540893Y-35487672D01*
X233540887Y-35487671D01*
X233540882Y-35487670D01*
X231613905Y-35095623D01*
X231540408Y-35083719D01*
X231466930Y-35071027D01*
X231444749Y-35068225D01*
X229492533Y-34831980D01*
X229418265Y-34826005D01*
X229344055Y-34819251D01*
X229321723Y-34818237D01*
X229321721Y-34818237D01*
X227418758Y-34741807D01*
X227376048Y-34737600D01*
X63632950Y-34737600D01*
X63627379Y-34738149D01*
X63470097Y-34738972D01*
X63432856Y-34740663D01*
X63395591Y-34740663D01*
X63373257Y-34741677D01*
X61409318Y-34841166D01*
X61335093Y-34847921D01*
X61260842Y-34853895D01*
X61238664Y-34856697D01*
X61238660Y-34856697D01*
X61238657Y-34856698D01*
X59289026Y-35113371D01*
X59215593Y-35126055D01*
X59142048Y-35137967D01*
X59120163Y-35142539D01*
X57197393Y-35554746D01*
X57125218Y-35573277D01*
X57052863Y-35591049D01*
X57031430Y-35597358D01*
X57031414Y-35597362D01*
X57031400Y-35597367D01*
X55147898Y-36162444D01*
X55077442Y-36186704D01*
X55006743Y-36210222D01*
X54985870Y-36218234D01*
X54365504Y-36460105D01*
X54090341Y-35795801D01*
X53550266Y-34987521D01*
X52862880Y-34300135D01*
X52054600Y-33760060D01*
X51156487Y-33388050D01*
X50203056Y-33198400D01*
X49230946Y-33198400D01*
X48277515Y-33388050D01*
X47379402Y-33760060D01*
X46571122Y-34300135D01*
X45883736Y-34987521D01*
X45343661Y-35795801D01*
X44971651Y-36693914D01*
X44782001Y-37647345D01*
X44782001Y-38619455D01*
X44971651Y-39572886D01*
X45343661Y-40470999D01*
X45883736Y-41279279D01*
X46060669Y-41456212D01*
X45980363Y-41522884D01*
X45924995Y-41572738D01*
X45869097Y-41622018D01*
X45853015Y-41637548D01*
X44445636Y-43010952D01*
X44394426Y-43065105D01*
X44342680Y-43118690D01*
X44327895Y-43135460D01*
X43035194Y-44617311D01*
X42988502Y-44675384D01*
X42941210Y-44732958D01*
X42927818Y-44750860D01*
X41758124Y-46331610D01*
X41716247Y-46393230D01*
X41673717Y-46454422D01*
X41661817Y-46473321D01*
X41661803Y-46473341D01*
X41661793Y-46473359D01*
X40622652Y-48142808D01*
X40585843Y-48207602D01*
X40548366Y-48271995D01*
X40538015Y-48291795D01*
X40538008Y-48291807D01*
X40538008Y-48291808D01*
X39636093Y-50039237D01*
X39604606Y-50106760D01*
X39572408Y-50173963D01*
X39563672Y-50194543D01*
X38804804Y-52008675D01*
X38778831Y-52078516D01*
X38752129Y-52148076D01*
X38745072Y-52169291D01*
X38134140Y-54038440D01*
X38113848Y-54110148D01*
X38092814Y-54181617D01*
X38087481Y-54203329D01*
X37628421Y-56115453D01*
X37613938Y-56188594D01*
X37598711Y-56261482D01*
X37595141Y-56283529D01*
X37595136Y-56283552D01*
X37595134Y-56283573D01*
X37290905Y-58226333D01*
X37282342Y-58300340D01*
X37273002Y-58374276D01*
X37271209Y-58396561D01*
X37123767Y-60357483D01*
X37121167Y-60431935D01*
X37117786Y-60506383D01*
X22426999Y-60506383D01*
X22427000Y-29493377D01*
X22882001Y-29493377D01*
X22882001Y-30051823D01*
X22990949Y-30599539D01*
X23204657Y-31115476D01*
X23514913Y-31579807D01*
X23909794Y-31974688D01*
X24374125Y-32284944D01*
X24890062Y-32498652D01*
X25437778Y-32607600D01*
X25996224Y-32607600D01*
X26543940Y-32498652D01*
X27059877Y-32284944D01*
X27524208Y-31974688D01*
X27919089Y-31579807D01*
X28229345Y-31115476D01*
X28443053Y-30599539D01*
X28552001Y-30051823D01*
X28552001Y-29493377D01*
X262531999Y-29493377D01*
X262531999Y-30051823D01*
X262640947Y-30599539D01*
X262854655Y-31115476D01*
X263164911Y-31579807D01*
X263559792Y-31974688D01*
X264024123Y-32284944D01*
X264540060Y-32498652D01*
X265087776Y-32607600D01*
X265646222Y-32607600D01*
X266193938Y-32498652D01*
X266709875Y-32284944D01*
X267174206Y-31974688D01*
X267569087Y-31579807D01*
X267879343Y-31115476D01*
X268093051Y-30599539D01*
X268201999Y-30051823D01*
X268201999Y-29493377D01*
X268093051Y-28945661D01*
X267879343Y-28429724D01*
X267569087Y-27965393D01*
X267174206Y-27570512D01*
X266709875Y-27260256D01*
X266193938Y-27046548D01*
X265646222Y-26937600D01*
X265087776Y-26937600D01*
X264540060Y-27046548D01*
X264024123Y-27260256D01*
X263559792Y-27570512D01*
X263164911Y-27965393D01*
X262854655Y-28429724D01*
X262640947Y-28945661D01*
X262531999Y-29493377D01*
X28552001Y-29493377D01*
X28443053Y-28945661D01*
X28229345Y-28429724D01*
X27919089Y-27965393D01*
X27524208Y-27570512D01*
X27059877Y-27260256D01*
X26543940Y-27046548D01*
X25996224Y-26937600D01*
X25437778Y-26937600D01*
X24890062Y-27046548D01*
X24374125Y-27260256D01*
X23909794Y-27570512D01*
X23514913Y-27965393D01*
X23204657Y-28429724D01*
X22990949Y-28945661D01*
X22882001Y-29493377D01*
X22427000Y-29493377D01*
X22427000Y-15493377D01*
X22882001Y-15493377D01*
X22882001Y-16051823D01*
X22990949Y-16599539D01*
X23204657Y-17115476D01*
X23514913Y-17579807D01*
X23909794Y-17974688D01*
X24374125Y-18284944D01*
X24890062Y-18498652D01*
X25437778Y-18607600D01*
X25996224Y-18607600D01*
X26543940Y-18498652D01*
X27059877Y-18284944D01*
X27524208Y-17974688D01*
X27919089Y-17579807D01*
X28229345Y-17115476D01*
X28443053Y-16599539D01*
X28552001Y-16051823D01*
X28552001Y-15493377D01*
X28497300Y-15218376D01*
X262531999Y-15218376D01*
X262531999Y-15776822D01*
X262640947Y-16324538D01*
X262854655Y-16840475D01*
X263164911Y-17304806D01*
X263559792Y-17699687D01*
X264024123Y-18009943D01*
X264540060Y-18223651D01*
X265087776Y-18332599D01*
X265646222Y-18332599D01*
X266193938Y-18223651D01*
X266709875Y-18009943D01*
X267174206Y-17699687D01*
X267569087Y-17304806D01*
X267879343Y-16840475D01*
X268093051Y-16324538D01*
X268201999Y-15776822D01*
X268201999Y-15218376D01*
X268093051Y-14670660D01*
X267879343Y-14154723D01*
X267569087Y-13690392D01*
X267174206Y-13295511D01*
X266709875Y-12985255D01*
X266193938Y-12771547D01*
X265646222Y-12662599D01*
X265087776Y-12662599D01*
X264540060Y-12771547D01*
X264024123Y-12985255D01*
X263559792Y-13295511D01*
X263164911Y-13690392D01*
X262854655Y-14154723D01*
X262640947Y-14670660D01*
X262531999Y-15218376D01*
X28497300Y-15218376D01*
X28443053Y-14945661D01*
X28229345Y-14429724D01*
X27919089Y-13965393D01*
X27524208Y-13570512D01*
X27059877Y-13260256D01*
X26543940Y-13046548D01*
X25996224Y-12937600D01*
X25437778Y-12937600D01*
X24890062Y-13046548D01*
X24374125Y-13260256D01*
X23909794Y-13570512D01*
X23514913Y-13965393D01*
X23204657Y-14429724D01*
X22990949Y-14945661D01*
X22882001Y-15493377D01*
X22427000Y-15493377D01*
X22427001Y-15117061D01*
X22479344Y-14578192D01*
X22625212Y-14093468D01*
X22862447Y-13646313D01*
X23182021Y-13253751D01*
X23571755Y-12930738D01*
X24016808Y-12689577D01*
X24500229Y-12539452D01*
X25036477Y-12482599D01*
X266022539Y-12482601D01*
X266022539Y-12482601D01*
G37*
X266022539Y-12482601D02*
X266561408Y-12534944D01*
X267046132Y-12680812D01*
X267493287Y-12918047D01*
X267885849Y-13237621D01*
X268208862Y-13627355D01*
X268450023Y-14072408D01*
X268600148Y-14555829D01*
X268657001Y-15092077D01*
X268656999Y-107628138D01*
X268604656Y-108167009D01*
X268458788Y-108651732D01*
X268221552Y-109098888D01*
X267901979Y-109491449D01*
X267512243Y-109814463D01*
X267067192Y-110055623D01*
X266583771Y-110205748D01*
X266047529Y-110262600D01*
X25061466Y-110264659D01*
X24522591Y-110212316D01*
X24037868Y-110066448D01*
X23590712Y-109829212D01*
X23198151Y-109509639D01*
X22875137Y-109119903D01*
X22633977Y-108674852D01*
X22483852Y-108191431D01*
X22426999Y-107655183D01*
X22426999Y-91643377D01*
X224545800Y-91643377D01*
X224545800Y-92201823D01*
X224654748Y-92749539D01*
X224868456Y-93265476D01*
X225178712Y-93729807D01*
X225573593Y-94124688D01*
X226037924Y-94434944D01*
X226553861Y-94648652D01*
X227101577Y-94757600D01*
X227660023Y-94757600D01*
X228207739Y-94648652D01*
X228723676Y-94434944D01*
X229188007Y-94124688D01*
X229582888Y-93729807D01*
X229893144Y-93265476D01*
X230106852Y-92749539D01*
X230215800Y-92201823D01*
X230215800Y-91643377D01*
X230106852Y-91095661D01*
X229893144Y-90579724D01*
X229582888Y-90115393D01*
X229188007Y-89720512D01*
X228723676Y-89410256D01*
X228207739Y-89196548D01*
X227660023Y-89087600D01*
X227101577Y-89087600D01*
X226553861Y-89196548D01*
X226037924Y-89410256D01*
X225573593Y-89720512D01*
X225178712Y-90115393D01*
X224868456Y-90579724D01*
X224654748Y-91095661D01*
X224545800Y-91643377D01*
X22426999Y-91643377D01*
X22426999Y-60506383D01*
X37117786Y-60506383D01*
X37117786Y-60528740D01*
X37128082Y-62495171D01*
X37131463Y-62569613D01*
X37134063Y-62644073D01*
X37135856Y-62666358D01*
X37303825Y-64625630D01*
X37313168Y-64699588D01*
X37321728Y-64773571D01*
X37325302Y-64795640D01*
X37649861Y-66735130D01*
X37665105Y-66808097D01*
X37679571Y-66881159D01*
X37684904Y-66902871D01*
X38163963Y-68810084D01*
X38185004Y-68881574D01*
X38205289Y-68953261D01*
X38212346Y-68974475D01*
X38842818Y-70837124D01*
X38869532Y-70906715D01*
X38895493Y-70976524D01*
X38904229Y-70997104D01*
X39682052Y-72803191D01*
X39714249Y-72870391D01*
X39745737Y-72937918D01*
X39756095Y-72957731D01*
X40676259Y-74695619D01*
X40713760Y-74760052D01*
X40750545Y-74824805D01*
X40762458Y-74843724D01*
X41819035Y-76502217D01*
X41861557Y-76563397D01*
X41903441Y-76625028D01*
X41916834Y-76642931D01*
X43103017Y-78211346D01*
X43150300Y-78268910D01*
X43197002Y-78326995D01*
X43211787Y-78343765D01*
X44519935Y-79811998D01*
X44571704Y-79865606D01*
X44622890Y-79919734D01*
X44638973Y-79935265D01*
X46060657Y-81293855D01*
X46116550Y-81343132D01*
X46171922Y-81392989D01*
X46189198Y-81407180D01*
X47715261Y-82647378D01*
X47774942Y-82692025D01*
X47834118Y-82737269D01*
X47852476Y-82750028D01*
X49473086Y-83863843D01*
X49536163Y-83903565D01*
X49598769Y-83943912D01*
X49618092Y-83955158D01*
X51322808Y-84935413D01*
X51388863Y-84969946D01*
X51454507Y-85005144D01*
X51474647Y-85014793D01*
X51474670Y-85014805D01*
X51474691Y-85014814D01*
X53252510Y-85855185D01*
X53321064Y-85884284D01*
X53389378Y-85914130D01*
X53410251Y-85922142D01*
X55249762Y-86617235D01*
X55320494Y-86640764D01*
X55390916Y-86665013D01*
X55412347Y-86671320D01*
X55412365Y-86671326D01*
X55412382Y-86671330D01*
X57301694Y-87216653D01*
X57374068Y-87234430D01*
X57446227Y-87252957D01*
X57468105Y-87257528D01*
X57468111Y-87257529D01*
X57468116Y-87257530D01*
X59395093Y-87649577D01*
X59468606Y-87661484D01*
X59542069Y-87674173D01*
X59564250Y-87676975D01*
X61516465Y-87913220D01*
X61590733Y-87919195D01*
X61664943Y-87925949D01*
X61687275Y-87926963D01*
X61687277Y-87926963D01*
X63590240Y-88003393D01*
X63632950Y-88007600D01*
X227376048Y-88007600D01*
X227381619Y-88007051D01*
X227538901Y-88006228D01*
X227576142Y-88004537D01*
X227613407Y-88004537D01*
X227635741Y-88003523D01*
X229599680Y-87904034D01*
X229673905Y-87897279D01*
X229748156Y-87891305D01*
X229770334Y-87888503D01*
X229770338Y-87888503D01*
X229770341Y-87888502D01*
X231719972Y-87631829D01*
X231793383Y-87619148D01*
X231866951Y-87607233D01*
X231888836Y-87602661D01*
X233811605Y-87190454D01*
X233883790Y-87171920D01*
X233956135Y-87154151D01*
X233977562Y-87147844D01*
X233977585Y-87147838D01*
X233977605Y-87147831D01*
X235861100Y-86582756D01*
X235931568Y-86558492D01*
X236002255Y-86534978D01*
X236023127Y-86526966D01*
X237855258Y-85812648D01*
X237923572Y-85782802D01*
X237992126Y-85753703D01*
X238012278Y-85744048D01*
X238012289Y-85744043D01*
X238012299Y-85744038D01*
X239781231Y-84885091D01*
X239846921Y-84849869D01*
X239912932Y-84815359D01*
X239932245Y-84804119D01*
X239932254Y-84804114D01*
X239932261Y-84804109D01*
X241626612Y-83806060D01*
X241689266Y-83765682D01*
X241752295Y-83725991D01*
X241770640Y-83713240D01*
X241770654Y-83713231D01*
X241770665Y-83713222D01*
X243379510Y-82582508D01*
X243438712Y-82537245D01*
X243498367Y-82492617D01*
X243515630Y-82478437D01*
X243515644Y-82478426D01*
X243515656Y-82478415D01*
X245028635Y-81222316D01*
X245084000Y-81172466D01*
X245139900Y-81123183D01*
X245155983Y-81107652D01*
X246563362Y-79734248D01*
X246614546Y-79680122D01*
X246666318Y-79626511D01*
X246681103Y-79609740D01*
X247973804Y-78127889D01*
X248020492Y-78069821D01*
X248067788Y-78012242D01*
X248081180Y-77994340D01*
X249250874Y-76413590D01*
X249292731Y-76351998D01*
X249335281Y-76290778D01*
X249347194Y-76271859D01*
X250386346Y-74602392D01*
X250423131Y-74537639D01*
X250460632Y-74473206D01*
X250470983Y-74453405D01*
X250470990Y-74453393D01*
X250470995Y-74453383D01*
X251372905Y-72705964D01*
X251404401Y-72638420D01*
X251436590Y-72571237D01*
X251445326Y-72550657D01*
X252204194Y-70736524D01*
X252230167Y-70666684D01*
X252256869Y-70597123D01*
X252263926Y-70575909D01*
X252874858Y-68706760D01*
X252895143Y-68635074D01*
X252916184Y-68563583D01*
X252921517Y-68541871D01*
X253380577Y-66629748D01*
X253395050Y-66556655D01*
X253410287Y-66483719D01*
X253413861Y-66461649D01*
X253718093Y-64518868D01*
X253726656Y-64444859D01*
X253735996Y-64370924D01*
X253737789Y-64348639D01*
X253885231Y-62387717D01*
X253887831Y-62313264D01*
X253891212Y-62238817D01*
X253891212Y-62216460D01*
X253880916Y-60250029D01*
X253877535Y-60175587D01*
X253874935Y-60101127D01*
X253873142Y-60078842D01*
X253705173Y-58119571D01*
X253695831Y-58045619D01*
X253687270Y-57971629D01*
X253683696Y-57949560D01*
X253359137Y-56010071D01*
X253343899Y-55937132D01*
X253329427Y-55864040D01*
X253324094Y-55842328D01*
X252845035Y-53935116D01*
X252823990Y-53863612D01*
X252803709Y-53791940D01*
X252796652Y-53770725D01*
X252166180Y-51908076D01*
X252139466Y-51838485D01*
X252113505Y-51768676D01*
X252104769Y-51748096D01*
X251326946Y-49942010D01*
X251294751Y-49874814D01*
X251263261Y-49807282D01*
X251252903Y-49787469D01*
X250332739Y-48049581D01*
X250295251Y-47985171D01*
X250258453Y-47920394D01*
X250246552Y-47901497D01*
X250246540Y-47901476D01*
X250246528Y-47901459D01*
X249189963Y-46242983D01*
X249147420Y-46181772D01*
X249105556Y-46120171D01*
X249092164Y-46102269D01*
X247905981Y-44533853D01*
X247858660Y-44476243D01*
X247811996Y-44418205D01*
X247797226Y-44401452D01*
X247797212Y-44401435D01*
X247797199Y-44401422D01*
X246489063Y-42933203D01*
X246437293Y-42879593D01*
X246386107Y-42825466D01*
X246370025Y-42809935D01*
X244989176Y-41490367D01*
X245200264Y-41279279D01*
X245740339Y-40470999D01*
X246112349Y-39572886D01*
X246301999Y-38619455D01*
X246301999Y-37647345D01*
X246112349Y-36693914D01*
X245740339Y-35795801D01*
X245200264Y-34987521D01*
X244512878Y-34300135D01*
X243704598Y-33760060D01*
X242806485Y-33388050D01*
X241853054Y-33198400D01*
X240880944Y-33198400D01*
X239927513Y-33388050D01*
X239029400Y-33760060D01*
X238221120Y-34300135D01*
X237533734Y-34987521D01*
X236993659Y-35795801D01*
X236707631Y-36486334D01*
X235759235Y-36127965D01*
X235688520Y-36104441D01*
X235618082Y-36080187D01*
X235596651Y-36073880D01*
X235596633Y-36073874D01*
X235596616Y-36073870D01*
X233707303Y-35528547D01*
X233634993Y-35510786D01*
X233562771Y-35492242D01*
X233540893Y-35487672D01*
X233540887Y-35487671D01*
X233540882Y-35487670D01*
X231613905Y-35095623D01*
X231540408Y-35083719D01*
X231466930Y-35071027D01*
X231444749Y-35068225D01*
X229492533Y-34831980D01*
X229418265Y-34826005D01*
X229344055Y-34819251D01*
X229321723Y-34818237D01*
X229321721Y-34818237D01*
X227418758Y-34741807D01*
X227376048Y-34737600D01*
X63632950Y-34737600D01*
X63627379Y-34738149D01*
X63470097Y-34738972D01*
X63432856Y-34740663D01*
X63395591Y-34740663D01*
X63373257Y-34741677D01*
X61409318Y-34841166D01*
X61335093Y-34847921D01*
X61260842Y-34853895D01*
X61238664Y-34856697D01*
X61238660Y-34856697D01*
X61238657Y-34856698D01*
X59289026Y-35113371D01*
X59215593Y-35126055D01*
X59142048Y-35137967D01*
X59120163Y-35142539D01*
X57197393Y-35554746D01*
X57125218Y-35573277D01*
X57052863Y-35591049D01*
X57031430Y-35597358D01*
X57031414Y-35597362D01*
X57031400Y-35597367D01*
X55147898Y-36162444D01*
X55077442Y-36186704D01*
X55006743Y-36210222D01*
X54985870Y-36218234D01*
X54365504Y-36460105D01*
X54090341Y-35795801D01*
X53550266Y-34987521D01*
X52862880Y-34300135D01*
X52054600Y-33760060D01*
X51156487Y-33388050D01*
X50203056Y-33198400D01*
X49230946Y-33198400D01*
X48277515Y-33388050D01*
X47379402Y-33760060D01*
X46571122Y-34300135D01*
X45883736Y-34987521D01*
X45343661Y-35795801D01*
X44971651Y-36693914D01*
X44782001Y-37647345D01*
X44782001Y-38619455D01*
X44971651Y-39572886D01*
X45343661Y-40470999D01*
X45883736Y-41279279D01*
X46060669Y-41456212D01*
X45980363Y-41522884D01*
X45924995Y-41572738D01*
X45869097Y-41622018D01*
X45853015Y-41637548D01*
X44445636Y-43010952D01*
X44394426Y-43065105D01*
X44342680Y-43118690D01*
X44327895Y-43135460D01*
X43035194Y-44617311D01*
X42988502Y-44675384D01*
X42941210Y-44732958D01*
X42927818Y-44750860D01*
X41758124Y-46331610D01*
X41716247Y-46393230D01*
X41673717Y-46454422D01*
X41661817Y-46473321D01*
X41661803Y-46473341D01*
X41661793Y-46473359D01*
X40622652Y-48142808D01*
X40585843Y-48207602D01*
X40548366Y-48271995D01*
X40538015Y-48291795D01*
X40538008Y-48291807D01*
X40538008Y-48291808D01*
X39636093Y-50039237D01*
X39604606Y-50106760D01*
X39572408Y-50173963D01*
X39563672Y-50194543D01*
X38804804Y-52008675D01*
X38778831Y-52078516D01*
X38752129Y-52148076D01*
X38745072Y-52169291D01*
X38134140Y-54038440D01*
X38113848Y-54110148D01*
X38092814Y-54181617D01*
X38087481Y-54203329D01*
X37628421Y-56115453D01*
X37613938Y-56188594D01*
X37598711Y-56261482D01*
X37595141Y-56283529D01*
X37595136Y-56283552D01*
X37595134Y-56283573D01*
X37290905Y-58226333D01*
X37282342Y-58300340D01*
X37273002Y-58374276D01*
X37271209Y-58396561D01*
X37123767Y-60357483D01*
X37121167Y-60431935D01*
X37117786Y-60506383D01*
X22426999Y-60506383D01*
X22427000Y-29493377D01*
X22882001Y-29493377D01*
X22882001Y-30051823D01*
X22990949Y-30599539D01*
X23204657Y-31115476D01*
X23514913Y-31579807D01*
X23909794Y-31974688D01*
X24374125Y-32284944D01*
X24890062Y-32498652D01*
X25437778Y-32607600D01*
X25996224Y-32607600D01*
X26543940Y-32498652D01*
X27059877Y-32284944D01*
X27524208Y-31974688D01*
X27919089Y-31579807D01*
X28229345Y-31115476D01*
X28443053Y-30599539D01*
X28552001Y-30051823D01*
X28552001Y-29493377D01*
X262531999Y-29493377D01*
X262531999Y-30051823D01*
X262640947Y-30599539D01*
X262854655Y-31115476D01*
X263164911Y-31579807D01*
X263559792Y-31974688D01*
X264024123Y-32284944D01*
X264540060Y-32498652D01*
X265087776Y-32607600D01*
X265646222Y-32607600D01*
X266193938Y-32498652D01*
X266709875Y-32284944D01*
X267174206Y-31974688D01*
X267569087Y-31579807D01*
X267879343Y-31115476D01*
X268093051Y-30599539D01*
X268201999Y-30051823D01*
X268201999Y-29493377D01*
X268093051Y-28945661D01*
X267879343Y-28429724D01*
X267569087Y-27965393D01*
X267174206Y-27570512D01*
X266709875Y-27260256D01*
X266193938Y-27046548D01*
X265646222Y-26937600D01*
X265087776Y-26937600D01*
X264540060Y-27046548D01*
X264024123Y-27260256D01*
X263559792Y-27570512D01*
X263164911Y-27965393D01*
X262854655Y-28429724D01*
X262640947Y-28945661D01*
X262531999Y-29493377D01*
X28552001Y-29493377D01*
X28443053Y-28945661D01*
X28229345Y-28429724D01*
X27919089Y-27965393D01*
X27524208Y-27570512D01*
X27059877Y-27260256D01*
X26543940Y-27046548D01*
X25996224Y-26937600D01*
X25437778Y-26937600D01*
X24890062Y-27046548D01*
X24374125Y-27260256D01*
X23909794Y-27570512D01*
X23514913Y-27965393D01*
X23204657Y-28429724D01*
X22990949Y-28945661D01*
X22882001Y-29493377D01*
X22427000Y-29493377D01*
X22427000Y-15493377D01*
X22882001Y-15493377D01*
X22882001Y-16051823D01*
X22990949Y-16599539D01*
X23204657Y-17115476D01*
X23514913Y-17579807D01*
X23909794Y-17974688D01*
X24374125Y-18284944D01*
X24890062Y-18498652D01*
X25437778Y-18607600D01*
X25996224Y-18607600D01*
X26543940Y-18498652D01*
X27059877Y-18284944D01*
X27524208Y-17974688D01*
X27919089Y-17579807D01*
X28229345Y-17115476D01*
X28443053Y-16599539D01*
X28552001Y-16051823D01*
X28552001Y-15493377D01*
X28497300Y-15218376D01*
X262531999Y-15218376D01*
X262531999Y-15776822D01*
X262640947Y-16324538D01*
X262854655Y-16840475D01*
X263164911Y-17304806D01*
X263559792Y-17699687D01*
X264024123Y-18009943D01*
X264540060Y-18223651D01*
X265087776Y-18332599D01*
X265646222Y-18332599D01*
X266193938Y-18223651D01*
X266709875Y-18009943D01*
X267174206Y-17699687D01*
X267569087Y-17304806D01*
X267879343Y-16840475D01*
X268093051Y-16324538D01*
X268201999Y-15776822D01*
X268201999Y-15218376D01*
X268093051Y-14670660D01*
X267879343Y-14154723D01*
X267569087Y-13690392D01*
X267174206Y-13295511D01*
X266709875Y-12985255D01*
X266193938Y-12771547D01*
X265646222Y-12662599D01*
X265087776Y-12662599D01*
X264540060Y-12771547D01*
X264024123Y-12985255D01*
X263559792Y-13295511D01*
X263164911Y-13690392D01*
X262854655Y-14154723D01*
X262640947Y-14670660D01*
X262531999Y-15218376D01*
X28497300Y-15218376D01*
X28443053Y-14945661D01*
X28229345Y-14429724D01*
X27919089Y-13965393D01*
X27524208Y-13570512D01*
X27059877Y-13260256D01*
X26543940Y-13046548D01*
X25996224Y-12937600D01*
X25437778Y-12937600D01*
X24890062Y-13046548D01*
X24374125Y-13260256D01*
X23909794Y-13570512D01*
X23514913Y-13965393D01*
X23204657Y-14429724D01*
X22990949Y-14945661D01*
X22882001Y-15493377D01*
X22427000Y-15493377D01*
X22427001Y-15117061D01*
X22479344Y-14578192D01*
X22625212Y-14093468D01*
X22862447Y-13646313D01*
X23182021Y-13253751D01*
X23571755Y-12930738D01*
X24016808Y-12689577D01*
X24500229Y-12539452D01*
X25036477Y-12482599D01*
X266022539Y-12482601D01*
M02*
