M48
; DRILL file {KiCad (5.1.4)-1} date 10/26/2019 10:45:30 PM
; FORMAT={-:-/ absolute / inch / decimal}
; #@! TF.CreationDate,2019-10-26T22:45:30-04:00
; #@! TF.GenerationSoftware,Kicad,Pcbnew,(5.1.4)-1
; #@! TF.FileFunction,NonPlated,1,2,NPTH
FMAT,2
INCH
T1C0.0669
T2C0.1200
T3C0.1201
T4C0.1570
T5C0.1575
%
G90
G05
T1
X9.9362Y-3.994
X10.3362Y-3.994
X3.655Y-1.744
X4.055Y-1.744
X8.7175Y-3.244
X9.1175Y-3.244
X2.7175Y-3.994
X3.1175Y-3.994
X2.155Y-1.744
X2.555Y-1.744
X5.7175Y-3.244
X6.1175Y-3.244
X4.5925Y-2.494
X4.9925Y-2.494
X2.7175Y-3.244
X3.1175Y-3.244
X1.2175Y-1.744
X1.6175Y-1.744
X8.3425Y-2.494
X8.7425Y-2.494
X6.0925Y-2.494
X6.4925Y-2.494
X6.7488Y-3.994
X7.1487Y-3.994
X9.8425Y-1.744
X10.2425Y-1.744
X5.4363Y-3.994
X5.8362Y-3.994
X5.905Y-1.744
X6.305Y-1.744
X8.2487Y-3.994
X8.6487Y-3.994
X4.9675Y-3.244
X5.3675Y-3.244
X2.3425Y-2.494
X2.7425Y-2.494
X2.8112Y-3.994
X3.2112Y-3.994
X4.1238Y-3.994
X4.5237Y-3.994
X8.905Y-1.744
X9.305Y-1.744
X6.4675Y-3.244
X6.8675Y-3.244
X7.2175Y-3.244
X7.6175Y-3.244
X3.0925Y-2.494
X3.4925Y-2.494
X1.4988Y-3.244
X1.8987Y-3.244
X1.1238Y-2.494
X1.5237Y-2.494
X7.5925Y-2.494
X7.9925Y-2.494
X5.155Y-1.744
X5.555Y-1.744
X3.8425Y-2.494
X4.2425Y-2.494
X9.0925Y-3.994
X9.4925Y-3.994
X7.405Y-1.744
X7.805Y-1.744
X9.7487Y-3.244
X10.1487Y-3.244
X4.405Y-1.744
X4.805Y-1.744
X5.3425Y-3.994
X5.7425Y-3.994
X2.905Y-1.744
X3.305Y-1.744
X1.1238Y-3.9941
X1.5237Y-3.9941
X8.155Y-1.744
X8.555Y-1.744
X7.9675Y-3.244
X8.3675Y-3.244
X3.4675Y-3.244
X3.8675Y-3.244
X4.2175Y-3.244
X4.6175Y-3.244
X5.3425Y-2.494
X5.7425Y-2.494
X9.5612Y-2.494
X9.9612Y-2.494
X6.8425Y-2.494
X7.2425Y-2.494
X1.3113Y-2.494
X1.7112Y-2.494
X1.9675Y-3.994
X2.3675Y-3.994
X6.655Y-1.744
X7.055Y-1.744
T2
X3.6677Y-4.2694
X7.6048Y-4.2694
T3
X6.4802Y-4.2696
X7.4173Y-4.2696
X3.8552Y-4.2696
X4.7923Y-4.2696
X1.2302Y-2.9684
X2.1673Y-2.9684
X9.2927Y-2.2184
X10.2298Y-2.2184
T4
X3.6677Y-3.6694
X7.6048Y-3.6694
T5
X9.9488Y-3.244
X4.605Y-1.744
X5.5425Y-3.994
X3.105Y-1.744
X1.3237Y-3.9941
X8.355Y-1.744
X8.1675Y-3.244
X3.6675Y-3.244
X4.4175Y-3.244
X5.5425Y-2.494
X9.2927Y-2.8184
X9.7613Y-2.494
X10.2298Y-2.8184
X7.0425Y-2.494
X1.5112Y-2.494
X2.1675Y-3.994
X6.855Y-1.744
X10.1363Y-3.994
X3.855Y-1.744
X8.9175Y-3.244
X2.9175Y-3.994
X2.355Y-1.744
X5.9175Y-3.244
X4.7925Y-2.494
X2.9175Y-3.244
X1.4175Y-1.744
X8.5425Y-2.494
X6.2925Y-2.494
X6.4802Y-3.6696
X6.9487Y-3.994
X7.4173Y-3.6696
X10.0425Y-1.744
X5.6362Y-3.994
X6.105Y-1.744
X8.4488Y-3.994
X5.1675Y-3.244
X2.5425Y-2.494
X3.0112Y-3.994
X3.8552Y-3.6696
X4.3237Y-3.994
X4.7923Y-3.6696
X9.105Y-1.744
X6.6675Y-3.244
X7.4175Y-3.244
X3.2925Y-2.494
X1.2302Y-3.5684
X1.6987Y-3.244
X2.1673Y-3.5684
X1.3237Y-2.494
X7.7925Y-2.494
X5.355Y-1.744
X4.0425Y-2.494
X9.2925Y-3.994
X7.605Y-1.744
T0
M30
