M48
; DRILL file {KiCad (5.1.5)-3} date 2/2/2020 4:09:30 AM
; FORMAT={-:-/ absolute / inch / decimal}
; #@! TF.CreationDate,2020-02-02T04:09:30-05:00
; #@! TF.GenerationSoftware,Kicad,Pcbnew,(5.1.5)-3
; #@! TF.FileFunction,NonPlated,1,2,NPTH
FMAT,2
INCH
T1C0.0669
T2C0.1200
T3C0.1201
T4C0.1570
T5C0.1575
%
G90
G05
T1
X5.4188Y-5.2313
X5.8187Y-5.2313
X7.2938Y-4.4813
X7.6937Y-4.4813
X2.4187Y-3.7312
X2.8188Y-3.7312
X6.1688Y-3.7312
X6.5687Y-3.7312
X2.2312Y-2.9812
X2.6313Y-2.9812
X1.2Y-4.4813
X1.6Y-4.4813
X6.7313Y-2.9812
X7.1312Y-2.9812
X4.4813Y-2.9812
X4.8812Y-2.9812
X8.7937Y-4.4813
X9.1937Y-4.4813
X9.825Y-4.4813
X10.225Y-4.4813
X4.2Y-5.2313
X4.6Y-5.2313
X3.1687Y-3.7312
X3.5688Y-3.7312
X6.9188Y-3.7312
X7.3187Y-3.7312
X9.9187Y-2.9812
X10.3187Y-2.9812
X7.4813Y-2.9812
X7.8812Y-2.9812
X5.5125Y-5.2313
X5.9125Y-5.2313
X5.7938Y-4.4813
X6.1937Y-4.4813
X1.575Y-4.4813
X1.975Y-4.4813
X8.4187Y-3.7312
X8.8187Y-3.7312
X3.7312Y-2.9812
X4.1312Y-2.9812
X5.9813Y-2.9812
X6.3812Y-2.9812
X1.2Y-5.2313
X1.6Y-5.2313
X2.0437Y-5.2313
X2.4438Y-5.2313
X6.5438Y-4.4813
X6.9437Y-4.4813
X8.0437Y-4.4813
X8.4437Y-4.4813
X3.5437Y-4.4813
X3.9438Y-4.4813
X7.6688Y-3.7312
X8.0687Y-3.7312
X2.0437Y-4.4813
X2.4438Y-4.4813
X2.8875Y-5.2313
X3.2875Y-5.2313
X9.1687Y-5.2313
X9.5687Y-5.2313
X1.3875Y-3.7312
X1.7875Y-3.7312
X10.0125Y-5.2313
X10.4125Y-5.2313
X3.9187Y-3.7312
X4.3187Y-3.7312
X1.2937Y-2.9812
X1.6937Y-2.9812
X2.7937Y-4.4813
X3.1938Y-4.4813
X8.325Y-5.2313
X8.725Y-5.2313
X4.2938Y-4.4813
X4.6937Y-4.4813
X4.6688Y-3.7312
X5.0687Y-3.7312
X2.9812Y-2.9812
X3.3813Y-2.9812
X5.0438Y-4.4813
X5.4437Y-4.4813
X8.9812Y-2.9812
X9.3812Y-2.9812
X1.2Y-3.7312
X1.6Y-3.7312
X6.825Y-5.2313
X7.225Y-5.2313
X2.7937Y-5.2313
X3.1938Y-5.2313
X9.6375Y-3.7312
X10.0375Y-3.7312
X5.4188Y-3.7312
X5.8187Y-3.7312
X8.2312Y-2.9812
X8.6312Y-2.9812
X5.2313Y-2.9812
X5.6312Y-2.9812
T2
X3.744Y-5.5066
X7.681Y-5.5066
T3
X6.5565Y-5.5068
X7.4935Y-5.5068
X9.369Y-3.4557
X10.306Y-3.4557
X3.9315Y-5.5068
X4.8685Y-5.5068
X1.3065Y-4.2057
X2.2435Y-4.2057
T4
X3.744Y-4.9066
X7.681Y-4.9066
T5
X5.4312Y-2.9812
X5.6187Y-5.2313
X7.4937Y-4.4813
X2.6187Y-3.7312
X6.3687Y-3.7312
X2.4312Y-2.9812
X1.4Y-4.4813
X6.9312Y-2.9812
X4.6812Y-2.9812
X8.9938Y-4.4813
X10.025Y-4.4813
X3.9315Y-4.9068
X4.4Y-5.2313
X4.8685Y-4.9068
X3.3687Y-3.7312
X7.1187Y-3.7312
X10.1188Y-2.9812
X7.6812Y-2.9812
X5.7125Y-5.2313
X5.9937Y-4.4813
X1.3065Y-4.8057
X1.775Y-4.4813
X2.2435Y-4.8057
X8.6188Y-3.7312
X3.9312Y-2.9812
X6.1812Y-2.9812
X1.4Y-5.2313
X2.2437Y-5.2313
X6.7437Y-4.4813
X8.2438Y-4.4813
X3.7437Y-4.4813
X7.8687Y-3.7312
X2.2437Y-4.4813
X3.0875Y-5.2313
X9.3688Y-5.2313
X1.5875Y-3.7312
X10.2125Y-5.2313
X4.1187Y-3.7312
X1.4937Y-2.9812
X2.9937Y-4.4813
X8.525Y-5.2313
X4.4937Y-4.4813
X4.8687Y-3.7312
X3.1812Y-2.9812
X5.2437Y-4.4813
X9.1813Y-2.9812
X1.4Y-3.7312
X6.5565Y-4.9068
X7.025Y-5.2313
X7.4935Y-4.9068
X2.9937Y-5.2313
X9.369Y-4.0557
X9.8375Y-3.7312
X10.306Y-4.0557
X5.6187Y-3.7312
X8.4313Y-2.9812
T0
M30
