M48
; DRILL file {KiCad (5.1.4)-1} date 11/3/2019 12:56:48 AM
; FORMAT={-:-/ absolute / inch / decimal}
; #@! TF.CreationDate,2019-11-03T00:56:48-04:00
; #@! TF.GenerationSoftware,Kicad,Pcbnew,(5.1.4)-1
; #@! TF.FileFunction,Plated,1,2,PTH
FMAT,2
INCH
T1C0.0157
T2C0.0236
T3C0.0276
T4C0.0315
T5C0.0354
T6C0.0400
T7C0.0433
T8C0.0591
T9C0.0866
%
G90
G05
T1
X4.9035Y-0.6285
X5.4149Y-1.117
X5.4299Y-1.0785
X5.4594Y-1.0515
X5.4889Y-1.0235
X5.715Y-0.864
X5.752Y-0.88
X6.3Y-0.6415
X6.7345Y-0.674
X6.7365Y-0.6295
X6.744Y-0.583
X6.744Y-0.713
X6.7625Y-0.75
X6.809Y-0.5342
X6.8235Y-1.2245
X6.8392Y-0.786
X6.8435Y-1.0825
X6.8818Y-0.7385
X7.351Y-0.804
X7.4767Y-0.7332
X7.5009Y-0.6781
X7.5137Y-0.7196
X7.5747Y-0.751
X7.897Y-0.7215
X8.064Y-0.723
X8.346Y-1.551
X5.6112Y-0.751
X5.6114Y-0.8032
X5.6447Y-0.751
X5.6449Y-0.8032
X5.6781Y-0.751
X5.6783Y-0.8032
X5.7116Y-0.751
X5.7118Y-0.8032
X5.7451Y-0.751
X5.7453Y-0.8032
X5.7785Y-0.751
X5.7787Y-0.8032
X5.812Y-0.751
X5.8122Y-0.8032
X5.8456Y-0.751
X5.8456Y-0.8032
T2
X6.0545Y-0.8174
X6.0545Y-0.8765
T3
X6.45Y-0.7501
X6.65Y-0.7501
X6.45Y-1.0442
X6.65Y-1.0442
X6.45Y-0.652
X6.65Y-0.652
X6.45Y-1.1422
X6.65Y-1.1422
X6.45Y-0.554
X6.65Y-0.554
X6.45Y-0.9461
X6.65Y-0.9461
X6.45Y-0.8481
X6.65Y-0.8481
X5.4025Y-0.5561
X5.4025Y-0.7569
T4
X2.5545Y-0.926
X2.5545Y-1.126
X9.9666Y-0.926
X9.9666Y-1.126
X8.0615Y-1.0511
X8.0615Y-1.1495
X3.8865Y-0.926
X3.8865Y-1.126
X5.3517Y-0.926
X5.3517Y-1.126
X1.622Y-0.926
X1.622Y-1.126
X7.6755Y-1.0805
X7.8676Y-1.0805
X8.5886Y-0.926
X8.5886Y-1.126
X4.2861Y-0.926
X4.2861Y-1.126
X4.6857Y-0.926
X4.6857Y-1.126
X3.3537Y-0.926
X3.3537Y-1.126
X1.7552Y-0.926
X1.7552Y-1.126
X8.7264Y-0.926
X8.7264Y-1.126
X1.4888Y-0.926
X1.4888Y-1.126
X8.8642Y-0.926
X8.8642Y-1.126
X9.8288Y-0.926
X9.8288Y-1.126
X4.0197Y-0.926
X4.0197Y-1.126
X3.0873Y-0.926
X3.0873Y-1.126
X7.4825Y-1.0511
X7.4825Y-1.1495
X9.4154Y-0.926
X9.4154Y-1.126
X7.1935Y-1.0265
X7.3903Y-1.0265
X1.3556Y-0.926
X1.3556Y-1.126
X5.2185Y-0.926
X5.2185Y-1.126
X2.0217Y-0.926
X2.0217Y-1.126
X9.5532Y-0.926
X9.5532Y-1.126
X4.1529Y-0.926
X4.1529Y-1.126
X4.9521Y-0.926
X4.9521Y-1.126
X5.9485Y-1.0335
X6.1485Y-1.0335
X2.9541Y-0.926
X2.9541Y-1.126
X9.1398Y-0.926
X9.1398Y-1.126
X4.8189Y-0.926
X4.8189Y-1.126
X3.7533Y-0.926
X3.7533Y-1.126
X3.2205Y-0.926
X3.2205Y-1.126
X9.691Y-0.926
X9.691Y-1.126
X2.2881Y-0.926
X2.2881Y-1.126
X4.5525Y-0.926
X4.5525Y-1.126
X1.8885Y-0.926
X1.8885Y-1.126
X4.4193Y-0.926
X4.4193Y-1.126
X7.4352Y-0.5235
X7.6321Y-0.5235
X9.002Y-0.926
X9.002Y-1.126
X10.1044Y-0.926
X10.1044Y-1.126
X5.0853Y-0.926
X5.0853Y-1.126
X6.8352Y-0.6248
X6.8352Y-0.9247
X6.9352Y-0.6248
X6.9352Y-0.9247
X7.0352Y-0.6248
X7.0352Y-0.9247
X7.1352Y-0.6248
X7.1352Y-0.9247
X7.2352Y-0.6248
X7.2352Y-0.9247
X7.3352Y-0.6248
X7.3352Y-0.9247
X7.4352Y-0.6248
X7.4352Y-0.9247
X7.5352Y-0.6248
X7.5352Y-0.9247
X7.6352Y-0.6248
X7.6352Y-0.9247
X7.7352Y-0.6248
X7.7352Y-0.9247
X7.8352Y-0.6248
X7.8352Y-0.9247
X7.9352Y-0.6248
X7.9352Y-0.9247
X8.0352Y-0.6248
X8.0352Y-0.9247
X8.1352Y-0.6248
X8.1352Y-0.9247
X9.2776Y-0.926
X9.2776Y-1.126
X2.6877Y-0.926
X2.6877Y-1.126
X3.4869Y-0.926
X3.4869Y-1.126
X3.6201Y-0.926
X3.6201Y-1.126
X5.949Y-1.1425
X6.149Y-1.1425
X2.8209Y-0.926
X2.8209Y-1.126
X2.4213Y-0.926
X2.4213Y-1.126
X2.1549Y-0.926
X2.1549Y-1.126
T5
X6.0165Y-0.6015
X6.1165Y-0.6015
T6
X4.6135Y-0.5845
X4.6135Y-0.6845
X4.7135Y-0.5845
X4.7135Y-0.6845
X4.8135Y-0.5845
X4.8135Y-0.6845
T7
X3.6793Y-0.552
X3.6793Y-0.7292
X3.9353Y-0.552
X3.9353Y-0.7292
X4.1495Y-0.552
X4.1495Y-0.7292
X4.4054Y-0.552
X4.4054Y-0.7292
T8
X3.705Y-1.644
X3.955Y-1.544
X2.8613Y-3.894
X3.1113Y-3.794
X9.7988Y-3.144
X10.0488Y-3.044
X1.3613Y-2.394
X1.6113Y-2.294
X3.5175Y-3.144
X3.7675Y-3.044
X6.705Y-1.644
X6.955Y-1.544
X5.4863Y-3.894
X5.7363Y-3.794
X6.7988Y-3.894
X7.0488Y-3.794
X4.6425Y-2.394
X4.8925Y-2.294
X5.0175Y-3.144
X5.2675Y-3.044
X6.8925Y-2.394
X7.1425Y-2.294
X2.7675Y-3.894
X3.0175Y-3.794
X6.1425Y-2.394
X6.3925Y-2.294
X8.205Y-1.644
X8.455Y-1.544
X1.1738Y-2.394
X1.4238Y-2.294
X2.955Y-1.644
X3.205Y-1.544
X2.0175Y-3.894
X2.2675Y-3.794
X4.1738Y-3.894
X4.4238Y-3.794
X8.7675Y-3.144
X9.0175Y-3.044
X9.8925Y-1.644
X10.1425Y-1.544
X2.7675Y-3.144
X3.0175Y-3.044
X5.955Y-1.644
X6.205Y-1.544
X8.0175Y-3.144
X8.2675Y-3.044
X1.2675Y-1.644
X1.5175Y-1.544
X3.8925Y-2.394
X4.1425Y-2.294
X4.2675Y-3.144
X4.5175Y-3.044
X2.3925Y-2.394
X2.6425Y-2.294
X9.1425Y-3.894
X9.3925Y-3.794
X8.3925Y-2.394
X8.6425Y-2.294
X4.455Y-1.644
X4.705Y-1.544
X3.1425Y-2.394
X3.3925Y-2.294
X5.205Y-1.644
X5.455Y-1.544
X2.205Y-1.644
X2.455Y-1.544
X8.2988Y-3.894
X8.5488Y-3.794
X9.9863Y-3.894
X10.2363Y-3.794
X5.7675Y-3.144
X6.0175Y-3.044
X7.455Y-1.644
X7.705Y-1.544
X1.1738Y-3.8941
X1.4238Y-3.7941
X5.3925Y-2.394
X5.6425Y-2.294
X6.5175Y-3.144
X6.7675Y-3.044
X7.6425Y-2.394
X7.8925Y-2.294
X7.2675Y-3.144
X7.5175Y-3.044
X9.6113Y-2.394
X9.8613Y-2.294
X5.3925Y-3.894
X5.6425Y-3.794
X8.955Y-1.644
X9.205Y-1.544
X1.5488Y-3.144
X1.7987Y-3.044
T9
X10.4475Y-0.6101
X9.537Y-2.119
X2.508Y-3.619
X5.7285Y-2.119
X8.952Y-3.619
X1.0125Y-1.1721
X1.923Y-2.119
X1.0125Y-0.621
X10.4475Y-1.1721
T2
G00X5.5582Y-0.6473
M15
G01X5.5582Y-0.6158
M16
G05
G00X5.5582Y-0.7941
M15
G01X5.5582Y-0.735
M16
G05
G00X5.8988Y-0.6473
M15
G01X5.8988Y-0.6158
M16
G05
G00X5.8988Y-0.7941
M15
G01X5.8988Y-0.735
M16
G05
T0
M30
