G04 #@! TF.GenerationSoftware,KiCad,Pcbnew,(5.1.4)-1*
G04 #@! TF.CreationDate,2019-10-26T22:45:28-04:00*
G04 #@! TF.ProjectId,romeo-pcb,726f6d65-6f2d-4706-9362-2e6b69636164,rev?*
G04 #@! TF.SameCoordinates,Original*
G04 #@! TF.FileFunction,Legend,Top*
G04 #@! TF.FilePolarity,Positive*
%FSLAX46Y46*%
G04 Gerber Fmt 4.6, Leading zero omitted, Abs format (unit mm)*
G04 Created by KiCad (PCBNEW (5.1.4)-1) date 2019-10-26 22:45:28*
%MOMM*%
%LPD*%
G04 APERTURE LIST*
%ADD10C,0.150000*%
%ADD11C,0.100000*%
%ADD12C,0.120000*%
%ADD13C,0.200000*%
%ADD14C,0.203200*%
G04 APERTURE END LIST*
D10*
X195405952Y-20102580D02*
X195405952Y-20816866D01*
X195358333Y-20959723D01*
X195263095Y-21054961D01*
X195120238Y-21102580D01*
X195025000Y-21102580D01*
X196358333Y-21102580D02*
X195882142Y-21102580D01*
X195882142Y-20102580D01*
X197263095Y-21007342D02*
X197215476Y-21054961D01*
X197072619Y-21102580D01*
X196977380Y-21102580D01*
X196834523Y-21054961D01*
X196739285Y-20959723D01*
X196691666Y-20864485D01*
X196644047Y-20674009D01*
X196644047Y-20531152D01*
X196691666Y-20340676D01*
X196739285Y-20245438D01*
X196834523Y-20150200D01*
X196977380Y-20102580D01*
X197072619Y-20102580D01*
X197215476Y-20150200D01*
X197263095Y-20197819D01*
X197977380Y-20102580D02*
X197977380Y-20816866D01*
X197929761Y-20959723D01*
X197834523Y-21054961D01*
X197691666Y-21102580D01*
X197596428Y-21102580D01*
X198929761Y-21102580D02*
X198453571Y-21102580D01*
X198453571Y-20102580D01*
X199834523Y-21007342D02*
X199786904Y-21054961D01*
X199644047Y-21102580D01*
X199548809Y-21102580D01*
X199405952Y-21054961D01*
X199310714Y-20959723D01*
X199263095Y-20864485D01*
X199215476Y-20674009D01*
X199215476Y-20531152D01*
X199263095Y-20340676D01*
X199310714Y-20245438D01*
X199405952Y-20150200D01*
X199548809Y-20102580D01*
X199644047Y-20102580D01*
X199786904Y-20150200D01*
X199834523Y-20197819D01*
X200548809Y-20102580D02*
X200548809Y-20816866D01*
X200501190Y-20959723D01*
X200405952Y-21054961D01*
X200263095Y-21102580D01*
X200167857Y-21102580D01*
X201501190Y-21102580D02*
X201025000Y-21102580D01*
X201025000Y-20102580D01*
X202405952Y-21007342D02*
X202358333Y-21054961D01*
X202215476Y-21102580D01*
X202120238Y-21102580D01*
X201977380Y-21054961D01*
X201882142Y-20959723D01*
X201834523Y-20864485D01*
X201786904Y-20674009D01*
X201786904Y-20531152D01*
X201834523Y-20340676D01*
X201882142Y-20245438D01*
X201977380Y-20150200D01*
X202120238Y-20102580D01*
X202215476Y-20102580D01*
X202358333Y-20150200D01*
X202405952Y-20197819D01*
X203120238Y-20102580D02*
X203120238Y-20816866D01*
X203072619Y-20959723D01*
X202977380Y-21054961D01*
X202834523Y-21102580D01*
X202739285Y-21102580D01*
X204072619Y-21102580D02*
X203596428Y-21102580D01*
X203596428Y-20102580D01*
X204977380Y-21007342D02*
X204929761Y-21054961D01*
X204786904Y-21102580D01*
X204691666Y-21102580D01*
X204548809Y-21054961D01*
X204453571Y-20959723D01*
X204405952Y-20864485D01*
X204358333Y-20674009D01*
X204358333Y-20531152D01*
X204405952Y-20340676D01*
X204453571Y-20245438D01*
X204548809Y-20150200D01*
X204691666Y-20102580D01*
X204786904Y-20102580D01*
X204929761Y-20150200D01*
X204977380Y-20197819D01*
X176003723Y-19242066D02*
X176479914Y-19242066D01*
X175908485Y-19527780D02*
X176241819Y-18527780D01*
X176575152Y-19527780D01*
X176765628Y-18527780D02*
X177337057Y-18527780D01*
X177051342Y-19527780D02*
X177051342Y-18527780D01*
X177670390Y-19527780D02*
X177670390Y-18861114D01*
X177670390Y-18956352D02*
X177718009Y-18908733D01*
X177813247Y-18861114D01*
X177956104Y-18861114D01*
X178051342Y-18908733D01*
X178098961Y-19003971D01*
X178098961Y-19527780D01*
X178098961Y-19003971D02*
X178146580Y-18908733D01*
X178241819Y-18861114D01*
X178384676Y-18861114D01*
X178479914Y-18908733D01*
X178527533Y-19003971D01*
X178527533Y-19527780D01*
X179384676Y-19480161D02*
X179289438Y-19527780D01*
X179098961Y-19527780D01*
X179003723Y-19480161D01*
X178956104Y-19384923D01*
X178956104Y-19003971D01*
X179003723Y-18908733D01*
X179098961Y-18861114D01*
X179289438Y-18861114D01*
X179384676Y-18908733D01*
X179432295Y-19003971D01*
X179432295Y-19099209D01*
X178956104Y-19194447D01*
X180289438Y-18861114D02*
X180289438Y-19670638D01*
X180241819Y-19765876D01*
X180194200Y-19813495D01*
X180098961Y-19861114D01*
X179956104Y-19861114D01*
X179860866Y-19813495D01*
X180289438Y-19480161D02*
X180194200Y-19527780D01*
X180003723Y-19527780D01*
X179908485Y-19480161D01*
X179860866Y-19432542D01*
X179813247Y-19337304D01*
X179813247Y-19051590D01*
X179860866Y-18956352D01*
X179908485Y-18908733D01*
X180003723Y-18861114D01*
X180194200Y-18861114D01*
X180289438Y-18908733D01*
X181194200Y-19527780D02*
X181194200Y-19003971D01*
X181146580Y-18908733D01*
X181051342Y-18861114D01*
X180860866Y-18861114D01*
X180765628Y-18908733D01*
X181194200Y-19480161D02*
X181098961Y-19527780D01*
X180860866Y-19527780D01*
X180765628Y-19480161D01*
X180718009Y-19384923D01*
X180718009Y-19289685D01*
X180765628Y-19194447D01*
X180860866Y-19146828D01*
X181098961Y-19146828D01*
X181194200Y-19099209D01*
X181575152Y-18527780D02*
X182194200Y-18527780D01*
X181860866Y-18908733D01*
X182003723Y-18908733D01*
X182098961Y-18956352D01*
X182146580Y-19003971D01*
X182194200Y-19099209D01*
X182194200Y-19337304D01*
X182146580Y-19432542D01*
X182098961Y-19480161D01*
X182003723Y-19527780D01*
X181718009Y-19527780D01*
X181622771Y-19480161D01*
X181575152Y-19432542D01*
X182575152Y-18623019D02*
X182622771Y-18575400D01*
X182718009Y-18527780D01*
X182956104Y-18527780D01*
X183051342Y-18575400D01*
X183098961Y-18623019D01*
X183146580Y-18718257D01*
X183146580Y-18813495D01*
X183098961Y-18956352D01*
X182527533Y-19527780D01*
X183146580Y-19527780D01*
X183718009Y-18956352D02*
X183622771Y-18908733D01*
X183575152Y-18861114D01*
X183527533Y-18765876D01*
X183527533Y-18718257D01*
X183575152Y-18623019D01*
X183622771Y-18575400D01*
X183718009Y-18527780D01*
X183908485Y-18527780D01*
X184003723Y-18575400D01*
X184051342Y-18623019D01*
X184098961Y-18718257D01*
X184098961Y-18765876D01*
X184051342Y-18861114D01*
X184003723Y-18908733D01*
X183908485Y-18956352D01*
X183718009Y-18956352D01*
X183622771Y-19003971D01*
X183575152Y-19051590D01*
X183527533Y-19146828D01*
X183527533Y-19337304D01*
X183575152Y-19432542D01*
X183622771Y-19480161D01*
X183718009Y-19527780D01*
X183908485Y-19527780D01*
X184003723Y-19480161D01*
X184051342Y-19432542D01*
X184098961Y-19337304D01*
X184098961Y-19146828D01*
X184051342Y-19051590D01*
X184003723Y-19003971D01*
X183908485Y-18956352D01*
X184527533Y-19527780D02*
X184527533Y-18527780D01*
X184908485Y-18527780D01*
X185003723Y-18575400D01*
X185051342Y-18623019D01*
X185098961Y-18718257D01*
X185098961Y-18861114D01*
X185051342Y-18956352D01*
X185003723Y-19003971D01*
X184908485Y-19051590D01*
X184527533Y-19051590D01*
X185527533Y-19146828D02*
X186289438Y-19146828D01*
X186765628Y-19527780D02*
X186765628Y-18527780D01*
X187146580Y-18527780D01*
X187241819Y-18575400D01*
X187289438Y-18623019D01*
X187337057Y-18718257D01*
X187337057Y-18861114D01*
X187289438Y-18956352D01*
X187241819Y-19003971D01*
X187146580Y-19051590D01*
X186765628Y-19051590D01*
X187765628Y-18527780D02*
X187765628Y-19337304D01*
X187813247Y-19432542D01*
X187860866Y-19480161D01*
X187956104Y-19527780D01*
X188146580Y-19527780D01*
X188241819Y-19480161D01*
X188289438Y-19432542D01*
X188337057Y-19337304D01*
X188337057Y-18527780D01*
D11*
X116636876Y-19691400D02*
X116560685Y-19653304D01*
X116446400Y-19653304D01*
X116332114Y-19691400D01*
X116255923Y-19767590D01*
X116217828Y-19843780D01*
X116179733Y-19996161D01*
X116179733Y-20110447D01*
X116217828Y-20262828D01*
X116255923Y-20339019D01*
X116332114Y-20415209D01*
X116446400Y-20453304D01*
X116522590Y-20453304D01*
X116636876Y-20415209D01*
X116674971Y-20377114D01*
X116674971Y-20110447D01*
X116522590Y-20110447D01*
X117017828Y-20453304D02*
X117017828Y-19653304D01*
X117474971Y-20453304D01*
X117474971Y-19653304D01*
X117855923Y-20453304D02*
X117855923Y-19653304D01*
X118046400Y-19653304D01*
X118160685Y-19691400D01*
X118236876Y-19767590D01*
X118274971Y-19843780D01*
X118313066Y-19996161D01*
X118313066Y-20110447D01*
X118274971Y-20262828D01*
X118236876Y-20339019D01*
X118160685Y-20415209D01*
X118046400Y-20453304D01*
X117855923Y-20453304D01*
G36*
X117652800Y-19405600D02*
G01*
X116890800Y-19405600D01*
X117246400Y-18669000D01*
X117652800Y-19405600D01*
G37*
X117652800Y-19405600D02*
X116890800Y-19405600D01*
X117246400Y-18669000D01*
X117652800Y-19405600D01*
D10*
X121477209Y-13330180D02*
X121477209Y-12330180D01*
X121905780Y-13282561D02*
X122048638Y-13330180D01*
X122286733Y-13330180D01*
X122381971Y-13282561D01*
X122429590Y-13234942D01*
X122477209Y-13139704D01*
X122477209Y-13044466D01*
X122429590Y-12949228D01*
X122381971Y-12901609D01*
X122286733Y-12853990D01*
X122096257Y-12806371D01*
X122001019Y-12758752D01*
X121953400Y-12711133D01*
X121905780Y-12615895D01*
X121905780Y-12520657D01*
X121953400Y-12425419D01*
X122001019Y-12377800D01*
X122096257Y-12330180D01*
X122334352Y-12330180D01*
X122477209Y-12377800D01*
X122905780Y-13330180D02*
X122905780Y-12330180D01*
X123286733Y-12330180D01*
X123381971Y-12377800D01*
X123429590Y-12425419D01*
X123477209Y-12520657D01*
X123477209Y-12663514D01*
X123429590Y-12758752D01*
X123381971Y-12806371D01*
X123286733Y-12853990D01*
X122905780Y-12853990D01*
D11*
X148565157Y-30469742D02*
X149165157Y-30469742D01*
X148452657Y-31369742D01*
X149052657Y-31369742D01*
X149454442Y-30898314D02*
X149754442Y-30898314D01*
X149824085Y-31369742D02*
X149395514Y-31369742D01*
X149508014Y-30469742D01*
X149936585Y-30469742D01*
X150209800Y-31369742D02*
X150322300Y-30469742D01*
X150724085Y-31369742D01*
X150836585Y-30469742D01*
X151211585Y-30898314D02*
X151511585Y-30898314D01*
X151581228Y-31369742D02*
X151152657Y-31369742D01*
X151265157Y-30469742D01*
X151693728Y-30469742D01*
X152481228Y-31369742D02*
X152234800Y-30941171D01*
X151966942Y-31369742D02*
X152079442Y-30469742D01*
X152422300Y-30469742D01*
X152502657Y-30512600D01*
X152540157Y-30555457D01*
X152572300Y-30641171D01*
X152556228Y-30769742D01*
X152502657Y-30855457D01*
X152454442Y-30898314D01*
X152363371Y-30941171D01*
X152020514Y-30941171D01*
X153552657Y-31369742D02*
X153665157Y-30469742D01*
X153879442Y-30469742D01*
X154002657Y-30512600D01*
X154077657Y-30598314D01*
X154109800Y-30684028D01*
X154131228Y-30855457D01*
X154115157Y-30984028D01*
X154050871Y-31155457D01*
X153997300Y-31241171D01*
X153900871Y-31326885D01*
X153766942Y-31369742D01*
X153552657Y-31369742D01*
X154452657Y-31369742D02*
X154565157Y-30469742D01*
X155165157Y-30469742D02*
X155336585Y-30469742D01*
X155416942Y-30512600D01*
X155491942Y-30598314D01*
X155513371Y-30769742D01*
X155475871Y-31069742D01*
X155411585Y-31241171D01*
X155315157Y-31326885D01*
X155224085Y-31369742D01*
X155052657Y-31369742D01*
X154972300Y-31326885D01*
X154897300Y-31241171D01*
X154875871Y-31069742D01*
X154913371Y-30769742D01*
X154977657Y-30598314D01*
X155074085Y-30512600D01*
X155165157Y-30469742D01*
X155824085Y-31369742D02*
X155936585Y-30469742D01*
X156150871Y-30469742D01*
X156274085Y-30512600D01*
X156349085Y-30598314D01*
X156381228Y-30684028D01*
X156402657Y-30855457D01*
X156386585Y-30984028D01*
X156322300Y-31155457D01*
X156268728Y-31241171D01*
X156172300Y-31326885D01*
X156038371Y-31369742D01*
X155824085Y-31369742D01*
X156783014Y-30898314D02*
X157083014Y-30898314D01*
X157152657Y-31369742D02*
X156724085Y-31369742D01*
X156836585Y-30469742D01*
X157265157Y-30469742D01*
X157500871Y-31326885D02*
X157624085Y-31369742D01*
X157838371Y-31369742D01*
X157929442Y-31326885D01*
X157977657Y-31284028D01*
X158031228Y-31198314D01*
X158041942Y-31112600D01*
X158009800Y-31026885D01*
X157972300Y-30984028D01*
X157891942Y-30941171D01*
X157725871Y-30898314D01*
X157645514Y-30855457D01*
X157608014Y-30812600D01*
X157575871Y-30726885D01*
X157586585Y-30641171D01*
X157640157Y-30555457D01*
X157688371Y-30512600D01*
X157779442Y-30469742D01*
X157993728Y-30469742D01*
X158116942Y-30512600D01*
X36050980Y-66927361D02*
X36193838Y-66974980D01*
X36431933Y-66974980D01*
X36527171Y-66927361D01*
X36574790Y-66879742D01*
X36622409Y-66784504D01*
X36622409Y-66689266D01*
X36574790Y-66594028D01*
X36527171Y-66546409D01*
X36431933Y-66498790D01*
X36241457Y-66451171D01*
X36146219Y-66403552D01*
X36098600Y-66355933D01*
X36050980Y-66260695D01*
X36050980Y-66165457D01*
X36098600Y-66070219D01*
X36146219Y-66022600D01*
X36241457Y-65974980D01*
X36479552Y-65974980D01*
X36622409Y-66022600D01*
X36908123Y-65974980D02*
X37479552Y-65974980D01*
X37193838Y-66974980D02*
X37193838Y-65974980D01*
X37765266Y-66689266D02*
X38241457Y-66689266D01*
X37670028Y-66974980D02*
X38003361Y-65974980D01*
X38336695Y-66974980D01*
X38670028Y-66974980D02*
X38670028Y-65974980D01*
X39241457Y-66974980D01*
X39241457Y-65974980D01*
X39717647Y-66974980D02*
X39717647Y-65974980D01*
X39955742Y-65974980D01*
X40098600Y-66022600D01*
X40193838Y-66117838D01*
X40241457Y-66213076D01*
X40289076Y-66403552D01*
X40289076Y-66546409D01*
X40241457Y-66736885D01*
X40193838Y-66832123D01*
X40098600Y-66927361D01*
X39955742Y-66974980D01*
X39717647Y-66974980D01*
X40670028Y-66689266D02*
X41146219Y-66689266D01*
X40574790Y-66974980D02*
X40908123Y-65974980D01*
X41241457Y-66974980D01*
X42146219Y-66974980D02*
X41812885Y-66498790D01*
X41574790Y-66974980D02*
X41574790Y-65974980D01*
X41955742Y-65974980D01*
X42050980Y-66022600D01*
X42098600Y-66070219D01*
X42146219Y-66165457D01*
X42146219Y-66308314D01*
X42098600Y-66403552D01*
X42050980Y-66451171D01*
X41955742Y-66498790D01*
X41574790Y-66498790D01*
X42574790Y-66974980D02*
X42574790Y-65974980D01*
X42812885Y-65974980D01*
X42955742Y-66022600D01*
X43050980Y-66117838D01*
X43098600Y-66213076D01*
X43146219Y-66403552D01*
X43146219Y-66546409D01*
X43098600Y-66736885D01*
X43050980Y-66832123D01*
X42955742Y-66927361D01*
X42812885Y-66974980D01*
X42574790Y-66974980D01*
X28551571Y-66927361D02*
X28694428Y-66974980D01*
X28932523Y-66974980D01*
X29027761Y-66927361D01*
X29075380Y-66879742D01*
X29123000Y-66784504D01*
X29123000Y-66689266D01*
X29075380Y-66594028D01*
X29027761Y-66546409D01*
X28932523Y-66498790D01*
X28742047Y-66451171D01*
X28646809Y-66403552D01*
X28599190Y-66355933D01*
X28551571Y-66260695D01*
X28551571Y-66165457D01*
X28599190Y-66070219D01*
X28646809Y-66022600D01*
X28742047Y-65974980D01*
X28980142Y-65974980D01*
X29123000Y-66022600D01*
X29408714Y-65974980D02*
X29980142Y-65974980D01*
X29694428Y-66974980D02*
X29694428Y-65974980D01*
X30313476Y-66451171D02*
X30646809Y-66451171D01*
X30789666Y-66974980D02*
X30313476Y-66974980D01*
X30313476Y-65974980D01*
X30789666Y-65974980D01*
X31218238Y-66974980D02*
X31218238Y-65974980D01*
X31599190Y-65974980D01*
X31694428Y-66022600D01*
X31742047Y-66070219D01*
X31789666Y-66165457D01*
X31789666Y-66308314D01*
X31742047Y-66403552D01*
X31694428Y-66451171D01*
X31599190Y-66498790D01*
X31218238Y-66498790D01*
X32218238Y-66974980D02*
X32218238Y-65974980D01*
X32599190Y-65974980D01*
X32694428Y-66022600D01*
X32742047Y-66070219D01*
X32789666Y-66165457D01*
X32789666Y-66308314D01*
X32742047Y-66403552D01*
X32694428Y-66451171D01*
X32599190Y-66498790D01*
X32218238Y-66498790D01*
X33218238Y-66451171D02*
X33551571Y-66451171D01*
X33694428Y-66974980D02*
X33218238Y-66974980D01*
X33218238Y-65974980D01*
X33694428Y-65974980D01*
X34123000Y-66974980D02*
X34123000Y-65974980D01*
X34361095Y-65974980D01*
X34503952Y-66022600D01*
X34599190Y-66117838D01*
X34646809Y-66213076D01*
X34694428Y-66403552D01*
X34694428Y-66546409D01*
X34646809Y-66736885D01*
X34599190Y-66832123D01*
X34503952Y-66927361D01*
X34361095Y-66974980D01*
X34123000Y-66974980D01*
X256165528Y-104965974D02*
X255594100Y-104965974D01*
X255879814Y-104965974D02*
X255879814Y-103965974D01*
X255784576Y-104108832D01*
X255689338Y-104204070D01*
X255594100Y-104251689D01*
X256594100Y-104870736D02*
X256641719Y-104918355D01*
X256594100Y-104965974D01*
X256546480Y-104918355D01*
X256594100Y-104870736D01*
X256594100Y-104965974D01*
X257022671Y-104061213D02*
X257070290Y-104013594D01*
X257165528Y-103965974D01*
X257403623Y-103965974D01*
X257498861Y-104013594D01*
X257546480Y-104061213D01*
X257594100Y-104156451D01*
X257594100Y-104251689D01*
X257546480Y-104394546D01*
X256975052Y-104965974D01*
X257594100Y-104965974D01*
X258498861Y-103965974D02*
X258022671Y-103965974D01*
X257975052Y-104442165D01*
X258022671Y-104394546D01*
X258117909Y-104346927D01*
X258356004Y-104346927D01*
X258451242Y-104394546D01*
X258498861Y-104442165D01*
X258546480Y-104537403D01*
X258546480Y-104775498D01*
X258498861Y-104870736D01*
X258451242Y-104918355D01*
X258356004Y-104965974D01*
X258117909Y-104965974D01*
X258022671Y-104918355D01*
X257975052Y-104870736D01*
X258975052Y-103965974D02*
X258975052Y-104775498D01*
X259022671Y-104870736D01*
X259070290Y-104918355D01*
X259165528Y-104965974D01*
X259356004Y-104965974D01*
X259451242Y-104918355D01*
X259498861Y-104870736D01*
X259546480Y-104775498D01*
X259546480Y-103965974D01*
X213112528Y-104965974D02*
X212541100Y-104965974D01*
X212826814Y-104965974D02*
X212826814Y-103965974D01*
X212731576Y-104108832D01*
X212636338Y-104204070D01*
X212541100Y-104251689D01*
X213541100Y-104870736D02*
X213588719Y-104918355D01*
X213541100Y-104965974D01*
X213493480Y-104918355D01*
X213541100Y-104870736D01*
X213541100Y-104965974D01*
X213969671Y-104061213D02*
X214017290Y-104013594D01*
X214112528Y-103965974D01*
X214350623Y-103965974D01*
X214445861Y-104013594D01*
X214493480Y-104061213D01*
X214541100Y-104156451D01*
X214541100Y-104251689D01*
X214493480Y-104394546D01*
X213922052Y-104965974D01*
X214541100Y-104965974D01*
X215445861Y-103965974D02*
X214969671Y-103965974D01*
X214922052Y-104442165D01*
X214969671Y-104394546D01*
X215064909Y-104346927D01*
X215303004Y-104346927D01*
X215398242Y-104394546D01*
X215445861Y-104442165D01*
X215493480Y-104537403D01*
X215493480Y-104775498D01*
X215445861Y-104870736D01*
X215398242Y-104918355D01*
X215303004Y-104965974D01*
X215064909Y-104965974D01*
X214969671Y-104918355D01*
X214922052Y-104870736D01*
X215922052Y-103965974D02*
X215922052Y-104775498D01*
X215969671Y-104870736D01*
X216017290Y-104918355D01*
X216112528Y-104965974D01*
X216303004Y-104965974D01*
X216398242Y-104918355D01*
X216445861Y-104870736D01*
X216493480Y-104775498D01*
X216493480Y-103965974D01*
X235854904Y-104965974D02*
X235283476Y-104965974D01*
X235569190Y-104965974D02*
X235569190Y-103965974D01*
X235473952Y-104108832D01*
X235378714Y-104204070D01*
X235283476Y-104251689D01*
X236283476Y-103965974D02*
X236283476Y-104775498D01*
X236331095Y-104870736D01*
X236378714Y-104918355D01*
X236473952Y-104965974D01*
X236664428Y-104965974D01*
X236759666Y-104918355D01*
X236807285Y-104870736D01*
X236854904Y-104775498D01*
X236854904Y-103965974D01*
X54664004Y-104965974D02*
X54092576Y-104965974D01*
X54378290Y-104965974D02*
X54378290Y-103965974D01*
X54283052Y-104108832D01*
X54187814Y-104204070D01*
X54092576Y-104251689D01*
X55092576Y-103965974D02*
X55092576Y-104775498D01*
X55140195Y-104870736D01*
X55187814Y-104918355D01*
X55283052Y-104965974D01*
X55473528Y-104965974D01*
X55568766Y-104918355D01*
X55616385Y-104870736D01*
X55664004Y-104775498D01*
X55664004Y-103965974D01*
X32302628Y-104965974D02*
X31731200Y-104965974D01*
X32016914Y-104965974D02*
X32016914Y-103965974D01*
X31921676Y-104108832D01*
X31826438Y-104204070D01*
X31731200Y-104251689D01*
X32731200Y-104870736D02*
X32778819Y-104918355D01*
X32731200Y-104965974D01*
X32683580Y-104918355D01*
X32731200Y-104870736D01*
X32731200Y-104965974D01*
X33159771Y-104061213D02*
X33207390Y-104013594D01*
X33302628Y-103965974D01*
X33540723Y-103965974D01*
X33635961Y-104013594D01*
X33683580Y-104061213D01*
X33731200Y-104156451D01*
X33731200Y-104251689D01*
X33683580Y-104394546D01*
X33112152Y-104965974D01*
X33731200Y-104965974D01*
X34635961Y-103965974D02*
X34159771Y-103965974D01*
X34112152Y-104442165D01*
X34159771Y-104394546D01*
X34255009Y-104346927D01*
X34493104Y-104346927D01*
X34588342Y-104394546D01*
X34635961Y-104442165D01*
X34683580Y-104537403D01*
X34683580Y-104775498D01*
X34635961Y-104870736D01*
X34588342Y-104918355D01*
X34493104Y-104965974D01*
X34255009Y-104965974D01*
X34159771Y-104918355D01*
X34112152Y-104870736D01*
X35112152Y-103965974D02*
X35112152Y-104775498D01*
X35159771Y-104870736D01*
X35207390Y-104918355D01*
X35302628Y-104965974D01*
X35493104Y-104965974D01*
X35588342Y-104918355D01*
X35635961Y-104870736D01*
X35683580Y-104775498D01*
X35683580Y-103965974D01*
X174555400Y-104195619D02*
X174603019Y-104148000D01*
X174698257Y-104100380D01*
X174936352Y-104100380D01*
X175031590Y-104148000D01*
X175079209Y-104195619D01*
X175126828Y-104290857D01*
X175126828Y-104386095D01*
X175079209Y-104528952D01*
X174507780Y-105100380D01*
X175126828Y-105100380D01*
X175555400Y-105005142D02*
X175603019Y-105052761D01*
X175555400Y-105100380D01*
X175507780Y-105052761D01*
X175555400Y-105005142D01*
X175555400Y-105100380D01*
X175936352Y-104100380D02*
X176603019Y-104100380D01*
X176174447Y-105100380D01*
X177460161Y-104100380D02*
X176983971Y-104100380D01*
X176936352Y-104576571D01*
X176983971Y-104528952D01*
X177079209Y-104481333D01*
X177317304Y-104481333D01*
X177412542Y-104528952D01*
X177460161Y-104576571D01*
X177507780Y-104671809D01*
X177507780Y-104909904D01*
X177460161Y-105005142D01*
X177412542Y-105052761D01*
X177317304Y-105100380D01*
X177079209Y-105100380D01*
X176983971Y-105052761D01*
X176936352Y-105005142D01*
X177936352Y-104100380D02*
X177936352Y-104909904D01*
X177983971Y-105005142D01*
X178031590Y-105052761D01*
X178126828Y-105100380D01*
X178317304Y-105100380D01*
X178412542Y-105052761D01*
X178460161Y-105005142D01*
X178507780Y-104909904D01*
X178507780Y-104100380D01*
X107918500Y-104246419D02*
X107966119Y-104198800D01*
X108061357Y-104151180D01*
X108299452Y-104151180D01*
X108394690Y-104198800D01*
X108442309Y-104246419D01*
X108489928Y-104341657D01*
X108489928Y-104436895D01*
X108442309Y-104579752D01*
X107870880Y-105151180D01*
X108489928Y-105151180D01*
X108918500Y-105055942D02*
X108966119Y-105103561D01*
X108918500Y-105151180D01*
X108870880Y-105103561D01*
X108918500Y-105055942D01*
X108918500Y-105151180D01*
X109347071Y-104246419D02*
X109394690Y-104198800D01*
X109489928Y-104151180D01*
X109728023Y-104151180D01*
X109823261Y-104198800D01*
X109870880Y-104246419D01*
X109918500Y-104341657D01*
X109918500Y-104436895D01*
X109870880Y-104579752D01*
X109299452Y-105151180D01*
X109918500Y-105151180D01*
X110823261Y-104151180D02*
X110347071Y-104151180D01*
X110299452Y-104627371D01*
X110347071Y-104579752D01*
X110442309Y-104532133D01*
X110680404Y-104532133D01*
X110775642Y-104579752D01*
X110823261Y-104627371D01*
X110870880Y-104722609D01*
X110870880Y-104960704D01*
X110823261Y-105055942D01*
X110775642Y-105103561D01*
X110680404Y-105151180D01*
X110442309Y-105151180D01*
X110347071Y-105103561D01*
X110299452Y-105055942D01*
X111299452Y-104151180D02*
X111299452Y-104960704D01*
X111347071Y-105055942D01*
X111394690Y-105103561D01*
X111489928Y-105151180D01*
X111680404Y-105151180D01*
X111775642Y-105103561D01*
X111823261Y-105055942D01*
X111870880Y-104960704D01*
X111870880Y-104151180D01*
X139830204Y-104965974D02*
X139258776Y-104965974D01*
X139544490Y-104965974D02*
X139544490Y-103965974D01*
X139449252Y-104108832D01*
X139354014Y-104204070D01*
X139258776Y-104251689D01*
X140258776Y-103965974D02*
X140258776Y-104775498D01*
X140306395Y-104870736D01*
X140354014Y-104918355D01*
X140449252Y-104965974D01*
X140639728Y-104965974D01*
X140734966Y-104918355D01*
X140782585Y-104870736D01*
X140830204Y-104775498D01*
X140830204Y-103965974D01*
X75939828Y-104965974D02*
X75368400Y-104965974D01*
X75654114Y-104965974D02*
X75654114Y-103965974D01*
X75558876Y-104108832D01*
X75463638Y-104204070D01*
X75368400Y-104251689D01*
X76368400Y-104870736D02*
X76416019Y-104918355D01*
X76368400Y-104965974D01*
X76320780Y-104918355D01*
X76368400Y-104870736D01*
X76368400Y-104965974D01*
X76796971Y-104061213D02*
X76844590Y-104013594D01*
X76939828Y-103965974D01*
X77177923Y-103965974D01*
X77273161Y-104013594D01*
X77320780Y-104061213D01*
X77368400Y-104156451D01*
X77368400Y-104251689D01*
X77320780Y-104394546D01*
X76749352Y-104965974D01*
X77368400Y-104965974D01*
X78273161Y-103965974D02*
X77796971Y-103965974D01*
X77749352Y-104442165D01*
X77796971Y-104394546D01*
X77892209Y-104346927D01*
X78130304Y-104346927D01*
X78225542Y-104394546D01*
X78273161Y-104442165D01*
X78320780Y-104537403D01*
X78320780Y-104775498D01*
X78273161Y-104870736D01*
X78225542Y-104918355D01*
X78130304Y-104965974D01*
X77892209Y-104965974D01*
X77796971Y-104918355D01*
X77749352Y-104870736D01*
X78749352Y-103965974D02*
X78749352Y-104775498D01*
X78796971Y-104870736D01*
X78844590Y-104918355D01*
X78939828Y-104965974D01*
X79130304Y-104965974D01*
X79225542Y-104918355D01*
X79273161Y-104870736D01*
X79320780Y-104775498D01*
X79320780Y-103965974D01*
X72926604Y-104965974D02*
X72355176Y-104965974D01*
X72640890Y-104965974D02*
X72640890Y-103965974D01*
X72545652Y-104108832D01*
X72450414Y-104204070D01*
X72355176Y-104251689D01*
X73355176Y-103965974D02*
X73355176Y-104775498D01*
X73402795Y-104870736D01*
X73450414Y-104918355D01*
X73545652Y-104965974D01*
X73736128Y-104965974D01*
X73831366Y-104918355D01*
X73878985Y-104870736D01*
X73926604Y-104775498D01*
X73926604Y-103965974D01*
D12*
X187484400Y-27128100D02*
X187484400Y-27143100D01*
X187484400Y-25003100D02*
X187484400Y-25018100D01*
X182944400Y-27128100D02*
X182944400Y-27143100D01*
X182944400Y-25003100D02*
X182944400Y-25018100D01*
X182944400Y-27143100D02*
X187484400Y-27143100D01*
X182944400Y-25003100D02*
X187484400Y-25003100D01*
X227650700Y-24590400D02*
X227650700Y-27560400D01*
X229650700Y-24580400D02*
X229640700Y-27570400D01*
X227650700Y-27570400D02*
X229640700Y-27570400D01*
X228660700Y-27780400D02*
X228660700Y-26660400D01*
X228660700Y-24320400D02*
X228660700Y-25600400D01*
X227650700Y-24580400D02*
X229650700Y-24580400D01*
X228660700Y-25710400D02*
X229200700Y-26660400D01*
X228650700Y-25720400D02*
X228120700Y-26630400D01*
X228120700Y-26660400D02*
X229200700Y-26660400D01*
X228120700Y-25610400D02*
X229200700Y-25610400D01*
X189084850Y-12241900D02*
X189084850Y-12226900D01*
X189084850Y-14366900D02*
X189084850Y-14351900D01*
X193624850Y-12241900D02*
X193624850Y-12226900D01*
X193624850Y-14366900D02*
X193624850Y-14351900D01*
X193624850Y-12226900D02*
X189084850Y-12226900D01*
X193624850Y-14366900D02*
X189084850Y-14366900D01*
X155904300Y-21513100D02*
G75*
G03X155904300Y-21513100I-2120000J0D01*
G01*
X154624300Y-21513100D02*
X155864300Y-21513100D01*
X151704300Y-21513100D02*
X152944300Y-21513100D01*
X154624300Y-21473100D02*
X155864300Y-21473100D01*
X151704300Y-21473100D02*
X152944300Y-21473100D01*
X154624300Y-21433100D02*
X155863300Y-21433100D01*
X151705300Y-21433100D02*
X152944300Y-21433100D01*
X151707300Y-21393100D02*
X152944300Y-21393100D01*
X154624300Y-21393100D02*
X155861300Y-21393100D01*
X151710300Y-21353100D02*
X152944300Y-21353100D01*
X154624300Y-21353100D02*
X155858300Y-21353100D01*
X151713300Y-21313100D02*
X152944300Y-21313100D01*
X154624300Y-21313100D02*
X155855300Y-21313100D01*
X151717300Y-21273100D02*
X152944300Y-21273100D01*
X154624300Y-21273100D02*
X155851300Y-21273100D01*
X151722300Y-21233100D02*
X152944300Y-21233100D01*
X154624300Y-21233100D02*
X155846300Y-21233100D01*
X151728300Y-21193100D02*
X152944300Y-21193100D01*
X154624300Y-21193100D02*
X155840300Y-21193100D01*
X151734300Y-21153100D02*
X152944300Y-21153100D01*
X154624300Y-21153100D02*
X155834300Y-21153100D01*
X151742300Y-21113100D02*
X152944300Y-21113100D01*
X154624300Y-21113100D02*
X155826300Y-21113100D01*
X151750300Y-21073100D02*
X152944300Y-21073100D01*
X154624300Y-21073100D02*
X155818300Y-21073100D01*
X151759300Y-21033100D02*
X152944300Y-21033100D01*
X154624300Y-21033100D02*
X155809300Y-21033100D01*
X151768300Y-20993100D02*
X152944300Y-20993100D01*
X154624300Y-20993100D02*
X155800300Y-20993100D01*
X151779300Y-20953100D02*
X152944300Y-20953100D01*
X154624300Y-20953100D02*
X155789300Y-20953100D01*
X151790300Y-20913100D02*
X152944300Y-20913100D01*
X154624300Y-20913100D02*
X155778300Y-20913100D01*
X151802300Y-20873100D02*
X152944300Y-20873100D01*
X154624300Y-20873100D02*
X155766300Y-20873100D01*
X151816300Y-20833100D02*
X152944300Y-20833100D01*
X154624300Y-20833100D02*
X155752300Y-20833100D01*
X151830300Y-20792100D02*
X152944300Y-20792100D01*
X154624300Y-20792100D02*
X155738300Y-20792100D01*
X151844300Y-20752100D02*
X152944300Y-20752100D01*
X154624300Y-20752100D02*
X155724300Y-20752100D01*
X151860300Y-20712100D02*
X152944300Y-20712100D01*
X154624300Y-20712100D02*
X155708300Y-20712100D01*
X151877300Y-20672100D02*
X152944300Y-20672100D01*
X154624300Y-20672100D02*
X155691300Y-20672100D01*
X151895300Y-20632100D02*
X152944300Y-20632100D01*
X154624300Y-20632100D02*
X155673300Y-20632100D01*
X151914300Y-20592100D02*
X152944300Y-20592100D01*
X154624300Y-20592100D02*
X155654300Y-20592100D01*
X151933300Y-20552100D02*
X152944300Y-20552100D01*
X154624300Y-20552100D02*
X155635300Y-20552100D01*
X151954300Y-20512100D02*
X152944300Y-20512100D01*
X154624300Y-20512100D02*
X155614300Y-20512100D01*
X151976300Y-20472100D02*
X152944300Y-20472100D01*
X154624300Y-20472100D02*
X155592300Y-20472100D01*
X151999300Y-20432100D02*
X152944300Y-20432100D01*
X154624300Y-20432100D02*
X155569300Y-20432100D01*
X152024300Y-20392100D02*
X152944300Y-20392100D01*
X154624300Y-20392100D02*
X155544300Y-20392100D01*
X152049300Y-20352100D02*
X152944300Y-20352100D01*
X154624300Y-20352100D02*
X155519300Y-20352100D01*
X152076300Y-20312100D02*
X152944300Y-20312100D01*
X154624300Y-20312100D02*
X155492300Y-20312100D01*
X152104300Y-20272100D02*
X152944300Y-20272100D01*
X154624300Y-20272100D02*
X155464300Y-20272100D01*
X152134300Y-20232100D02*
X152944300Y-20232100D01*
X154624300Y-20232100D02*
X155434300Y-20232100D01*
X152165300Y-20192100D02*
X152944300Y-20192100D01*
X154624300Y-20192100D02*
X155403300Y-20192100D01*
X152197300Y-20152100D02*
X152944300Y-20152100D01*
X154624300Y-20152100D02*
X155371300Y-20152100D01*
X152232300Y-20112100D02*
X152944300Y-20112100D01*
X154624300Y-20112100D02*
X155336300Y-20112100D01*
X152268300Y-20072100D02*
X152944300Y-20072100D01*
X154624300Y-20072100D02*
X155300300Y-20072100D01*
X152306300Y-20032100D02*
X152944300Y-20032100D01*
X154624300Y-20032100D02*
X155262300Y-20032100D01*
X152346300Y-19992100D02*
X152944300Y-19992100D01*
X154624300Y-19992100D02*
X155222300Y-19992100D01*
X152388300Y-19952100D02*
X152944300Y-19952100D01*
X154624300Y-19952100D02*
X155180300Y-19952100D01*
X152433300Y-19912100D02*
X155135300Y-19912100D01*
X152480300Y-19872100D02*
X155088300Y-19872100D01*
X152530300Y-19832100D02*
X155038300Y-19832100D01*
X152584300Y-19792100D02*
X154984300Y-19792100D01*
X152642300Y-19752100D02*
X154926300Y-19752100D01*
X152704300Y-19712100D02*
X154864300Y-19712100D01*
X152771300Y-19672100D02*
X154797300Y-19672100D01*
X152844300Y-19632100D02*
X154724300Y-19632100D01*
X152925300Y-19592100D02*
X154643300Y-19592100D01*
X153016300Y-19552100D02*
X154552300Y-19552100D01*
X153120300Y-19512100D02*
X154448300Y-19512100D01*
X153247300Y-19472100D02*
X154321300Y-19472100D01*
X153414300Y-19432100D02*
X154154300Y-19432100D01*
X152589300Y-23782901D02*
X152589300Y-23382901D01*
X152389300Y-23582901D02*
X152789300Y-23582901D01*
X205681600Y-28576300D02*
X205681600Y-27318300D01*
X203841600Y-28576300D02*
X203841600Y-27318300D01*
X190975000Y-28576300D02*
X190975000Y-27318300D01*
X189135000Y-28576300D02*
X189135000Y-27318300D01*
X112146151Y-17020800D02*
X112146151Y-15520800D01*
X110896151Y-13020800D02*
X106396151Y-13020800D01*
X105146151Y-15520800D02*
X105146151Y-17020800D01*
X106396151Y-19520800D02*
X110896151Y-19520800D01*
X194197200Y-24919700D02*
X200597200Y-24919700D01*
X194197200Y-29969700D02*
X200597200Y-29969700D01*
X194197200Y-29969700D02*
G75*
G02X194197200Y-24919700I0J2525000D01*
G01*
X200597200Y-29969700D02*
G75*
G03X200597200Y-24919700I0J2525000D01*
G01*
D10*
X150129499Y-14300200D02*
X140879499Y-14300200D01*
X149979499Y-20960200D02*
X141029499Y-20960200D01*
X141024499Y-12550200D02*
X141029499Y-11790200D01*
X149979499Y-11790200D02*
X141029499Y-11790200D01*
X149979499Y-11790200D02*
X149984499Y-12550200D01*
X145504499Y-14300200D02*
X145504499Y-15570200D01*
D12*
X172284850Y-17028650D02*
X172284850Y-18678650D01*
X207964850Y-17028650D02*
X172284850Y-17028650D01*
X207964850Y-22328650D02*
X207964850Y-17028650D01*
X172284850Y-22328650D02*
X207964850Y-22328650D01*
X172284850Y-20678650D02*
X172284850Y-22328650D01*
X172284850Y-18678650D02*
G75*
G02X172284850Y-20678650I0J-1000000D01*
G01*
X100205402Y-17020800D02*
X100205402Y-15520800D01*
X98955402Y-13020800D02*
X94455402Y-13020800D01*
X93205402Y-15520800D02*
X93205402Y-17020800D01*
X94455402Y-19520800D02*
X98955402Y-19520800D01*
X164449500Y-17481600D02*
X168289500Y-17481600D01*
X164449500Y-15641600D02*
X168289500Y-15641600D01*
X168289500Y-13151600D02*
X164449500Y-13151600D01*
X168289500Y-14991600D02*
X164449500Y-14991600D01*
X168289500Y-25601600D02*
X164449500Y-25601600D01*
X168289500Y-27441600D02*
X164449500Y-27441600D01*
X164449500Y-24951600D02*
X168289500Y-24951600D01*
X164449500Y-23111600D02*
X168289500Y-23111600D01*
X164449500Y-22461600D02*
X168289500Y-22461600D01*
X164449500Y-20621600D02*
X168289500Y-20621600D01*
X168289500Y-18131600D02*
X164449500Y-18131600D01*
X168289500Y-19971600D02*
X164449500Y-19971600D01*
X168289500Y-28091600D02*
X164449500Y-28091600D01*
X168289500Y-29931600D02*
X164449500Y-29931600D01*
X152529100Y-16358100D02*
X152529100Y-16514100D01*
X152529100Y-14042100D02*
X152529100Y-14198100D01*
X155130230Y-16357937D02*
G75*
G02X153048139Y-16358100I-1041130J1079837D01*
G01*
X155130230Y-14198263D02*
G75*
G03X153048139Y-14198100I-1041130J-1079837D01*
G01*
X155761435Y-16356708D02*
G75*
G02X152529100Y-16513616I-1672335J1078608D01*
G01*
X155761435Y-14199492D02*
G75*
G03X152529100Y-14042584I-1672335J-1078608D01*
G01*
D13*
X120973500Y-13566300D02*
X120973500Y-12766300D01*
X120973500Y-12766300D02*
X118423500Y-12766300D01*
X118423500Y-12766300D02*
X118423500Y-13566300D01*
D14*
X115913500Y-13576300D02*
X123533500Y-13576300D01*
X123533500Y-18656300D02*
X115913500Y-18656300D01*
X115913500Y-18656300D02*
X115913500Y-13576300D01*
X123533500Y-13576300D02*
X123533500Y-18656300D01*
D12*
X155101900Y-25250900D02*
X152131900Y-25250900D01*
X155111900Y-27250900D02*
X152121900Y-27240900D01*
X152121900Y-25250900D02*
X152121900Y-27240900D01*
X151911900Y-26260900D02*
X153031900Y-26260900D01*
X155371900Y-26260900D02*
X154091900Y-26260900D01*
X155111900Y-25250900D02*
X155111900Y-27250900D01*
X153981900Y-26260900D02*
X153031900Y-26800900D01*
X153971900Y-26250900D02*
X153061900Y-25720900D01*
X153031900Y-25720900D02*
X153031900Y-26800900D01*
X154081900Y-25720900D02*
X154081900Y-26800900D01*
X155114600Y-28019500D02*
X152144600Y-28019500D01*
X155124600Y-30019500D02*
X152134600Y-30009500D01*
X152134600Y-28019500D02*
X152134600Y-30009500D01*
X151924600Y-29029500D02*
X153044600Y-29029500D01*
X155384600Y-29029500D02*
X154104600Y-29029500D01*
X155124600Y-28019500D02*
X155124600Y-30019500D01*
X153994600Y-29029500D02*
X153044600Y-29569500D01*
X153984600Y-29019500D02*
X153074600Y-28489500D01*
X153044600Y-28489500D02*
X153044600Y-29569500D01*
X154094600Y-28489500D02*
X154094600Y-29569500D01*
X224150700Y-24590400D02*
X224150700Y-27560400D01*
X226150700Y-24580400D02*
X226140700Y-27570400D01*
X224150700Y-27570400D02*
X226140700Y-27570400D01*
X225160700Y-27780400D02*
X225160700Y-26660400D01*
X225160700Y-24320400D02*
X225160700Y-25600400D01*
X224150700Y-24580400D02*
X226150700Y-24580400D01*
X225160700Y-25710400D02*
X225700700Y-26660400D01*
X225150700Y-25720400D02*
X224620700Y-26630400D01*
X224620700Y-26660400D02*
X225700700Y-26660400D01*
X224620700Y-25610400D02*
X225700700Y-25610400D01*
X220650700Y-24590400D02*
X220650700Y-27560400D01*
X222650700Y-24580400D02*
X222640700Y-27570400D01*
X220650700Y-27570400D02*
X222640700Y-27570400D01*
X221660700Y-27780400D02*
X221660700Y-26660400D01*
X221660700Y-24320400D02*
X221660700Y-25600400D01*
X220650700Y-24580400D02*
X222650700Y-24580400D01*
X221660700Y-25710400D02*
X222200700Y-26660400D01*
X221650700Y-25720400D02*
X221120700Y-26630400D01*
X221120700Y-26660400D02*
X222200700Y-26660400D01*
X221120700Y-25610400D02*
X222200700Y-25610400D01*
X101099960Y-24590400D02*
X101099960Y-27560400D01*
X103099960Y-24580400D02*
X103089960Y-27570400D01*
X101099960Y-27570400D02*
X103089960Y-27570400D01*
X102109960Y-27780400D02*
X102109960Y-26660400D01*
X102109960Y-24320400D02*
X102109960Y-25600400D01*
X101099960Y-24580400D02*
X103099960Y-24580400D01*
X102109960Y-25710400D02*
X102649960Y-26660400D01*
X102099960Y-25720400D02*
X101569960Y-26630400D01*
X101569960Y-26660400D02*
X102649960Y-26660400D01*
X101569960Y-25610400D02*
X102649960Y-25610400D01*
X97716627Y-24590400D02*
X97716627Y-27560400D01*
X99716627Y-24580400D02*
X99706627Y-27570400D01*
X97716627Y-27570400D02*
X99706627Y-27570400D01*
X98726627Y-27780400D02*
X98726627Y-26660400D01*
X98726627Y-24320400D02*
X98726627Y-25600400D01*
X97716627Y-24580400D02*
X99716627Y-24580400D01*
X98726627Y-25710400D02*
X99266627Y-26660400D01*
X98716627Y-25720400D02*
X98186627Y-26630400D01*
X98186627Y-26660400D02*
X99266627Y-26660400D01*
X98186627Y-25610400D02*
X99266627Y-25610400D01*
X80799962Y-24590400D02*
X80799962Y-27560400D01*
X82799962Y-24580400D02*
X82789962Y-27570400D01*
X80799962Y-27570400D02*
X82789962Y-27570400D01*
X81809962Y-27780400D02*
X81809962Y-26660400D01*
X81809962Y-24320400D02*
X81809962Y-25600400D01*
X80799962Y-24580400D02*
X82799962Y-24580400D01*
X81809962Y-25710400D02*
X82349962Y-26660400D01*
X81799962Y-25720400D02*
X81269962Y-26630400D01*
X81269962Y-26660400D02*
X82349962Y-26660400D01*
X81269962Y-25610400D02*
X82349962Y-25610400D01*
X57116631Y-24590400D02*
X57116631Y-27560400D01*
X59116631Y-24580400D02*
X59106631Y-27570400D01*
X57116631Y-27570400D02*
X59106631Y-27570400D01*
X58126631Y-27780400D02*
X58126631Y-26660400D01*
X58126631Y-24320400D02*
X58126631Y-25600400D01*
X57116631Y-24580400D02*
X59116631Y-24580400D01*
X58126631Y-25710400D02*
X58666631Y-26660400D01*
X58116631Y-25720400D02*
X57586631Y-26630400D01*
X57586631Y-26660400D02*
X58666631Y-26660400D01*
X57586631Y-25610400D02*
X58666631Y-25610400D01*
X46966632Y-24590400D02*
X46966632Y-27560400D01*
X48966632Y-24580400D02*
X48956632Y-27570400D01*
X46966632Y-27570400D02*
X48956632Y-27570400D01*
X47976632Y-27780400D02*
X47976632Y-26660400D01*
X47976632Y-24320400D02*
X47976632Y-25600400D01*
X46966632Y-24580400D02*
X48966632Y-24580400D01*
X47976632Y-25710400D02*
X48516632Y-26660400D01*
X47966632Y-25720400D02*
X47436632Y-26630400D01*
X47436632Y-26660400D02*
X48516632Y-26660400D01*
X47436632Y-25610400D02*
X48516632Y-25610400D01*
X40199966Y-24590400D02*
X40199966Y-27560400D01*
X42199966Y-24580400D02*
X42189966Y-27570400D01*
X40199966Y-27570400D02*
X42189966Y-27570400D01*
X41209966Y-27780400D02*
X41209966Y-26660400D01*
X41209966Y-24320400D02*
X41209966Y-25600400D01*
X40199966Y-24580400D02*
X42199966Y-24580400D01*
X41209966Y-25710400D02*
X41749966Y-26660400D01*
X41199966Y-25720400D02*
X40669966Y-26630400D01*
X40669966Y-26660400D02*
X41749966Y-26660400D01*
X40669966Y-25610400D02*
X41749966Y-25610400D01*
X238150700Y-24590400D02*
X238150700Y-27560400D01*
X240150700Y-24580400D02*
X240140700Y-27570400D01*
X238150700Y-27570400D02*
X240140700Y-27570400D01*
X239160700Y-27780400D02*
X239160700Y-26660400D01*
X239160700Y-24320400D02*
X239160700Y-25600400D01*
X238150700Y-24580400D02*
X240150700Y-24580400D01*
X239160700Y-25710400D02*
X239700700Y-26660400D01*
X239150700Y-25720400D02*
X238620700Y-26630400D01*
X238620700Y-26660400D02*
X239700700Y-26660400D01*
X238620700Y-25610400D02*
X239700700Y-25610400D01*
X234650700Y-24590400D02*
X234650700Y-27560400D01*
X236650700Y-24580400D02*
X236640700Y-27570400D01*
X234650700Y-27570400D02*
X236640700Y-27570400D01*
X235660700Y-27780400D02*
X235660700Y-26660400D01*
X235660700Y-24320400D02*
X235660700Y-25600400D01*
X234650700Y-24580400D02*
X236650700Y-24580400D01*
X235660700Y-25710400D02*
X236200700Y-26660400D01*
X235650700Y-25720400D02*
X235120700Y-26630400D01*
X235120700Y-26660400D02*
X236200700Y-26660400D01*
X235120700Y-25610400D02*
X236200700Y-25610400D01*
X231150700Y-24590400D02*
X231150700Y-27560400D01*
X233150700Y-24580400D02*
X233140700Y-27570400D01*
X231150700Y-27570400D02*
X233140700Y-27570400D01*
X232160700Y-27780400D02*
X232160700Y-26660400D01*
X232160700Y-24320400D02*
X232160700Y-25600400D01*
X231150700Y-24580400D02*
X233150700Y-24580400D01*
X232160700Y-25710400D02*
X232700700Y-26660400D01*
X232150700Y-25720400D02*
X231620700Y-26630400D01*
X231620700Y-26660400D02*
X232700700Y-26660400D01*
X231620700Y-25610400D02*
X232700700Y-25610400D01*
X111249959Y-24590400D02*
X111249959Y-27560400D01*
X113249959Y-24580400D02*
X113239959Y-27570400D01*
X111249959Y-27570400D02*
X113239959Y-27570400D01*
X112259959Y-27780400D02*
X112259959Y-26660400D01*
X112259959Y-24320400D02*
X112259959Y-25600400D01*
X111249959Y-24580400D02*
X113249959Y-24580400D01*
X112259959Y-25710400D02*
X112799959Y-26660400D01*
X112249959Y-25720400D02*
X111719959Y-26630400D01*
X111719959Y-26660400D02*
X112799959Y-26660400D01*
X111719959Y-25610400D02*
X112799959Y-25610400D01*
X107866626Y-24590400D02*
X107866626Y-27560400D01*
X109866626Y-24580400D02*
X109856626Y-27570400D01*
X107866626Y-27570400D02*
X109856626Y-27570400D01*
X108876626Y-27780400D02*
X108876626Y-26660400D01*
X108876626Y-24320400D02*
X108876626Y-25600400D01*
X107866626Y-24580400D02*
X109866626Y-24580400D01*
X108876626Y-25710400D02*
X109416626Y-26660400D01*
X108866626Y-25720400D02*
X108336626Y-26630400D01*
X108336626Y-26660400D02*
X109416626Y-26660400D01*
X108336626Y-25610400D02*
X109416626Y-25610400D01*
X104483293Y-24590400D02*
X104483293Y-27560400D01*
X106483293Y-24580400D02*
X106473293Y-27570400D01*
X104483293Y-27570400D02*
X106473293Y-27570400D01*
X105493293Y-27780400D02*
X105493293Y-26660400D01*
X105493293Y-24320400D02*
X105493293Y-25600400D01*
X104483293Y-24580400D02*
X106483293Y-24580400D01*
X105493293Y-25710400D02*
X106033293Y-26660400D01*
X105483293Y-25720400D02*
X104953293Y-26630400D01*
X104953293Y-26660400D02*
X106033293Y-26660400D01*
X104953293Y-25610400D02*
X106033293Y-25610400D01*
X87566628Y-24590400D02*
X87566628Y-27560400D01*
X89566628Y-24580400D02*
X89556628Y-27570400D01*
X87566628Y-27570400D02*
X89556628Y-27570400D01*
X88576628Y-27780400D02*
X88576628Y-26660400D01*
X88576628Y-24320400D02*
X88576628Y-25600400D01*
X87566628Y-24580400D02*
X89566628Y-24580400D01*
X88576628Y-25710400D02*
X89116628Y-26660400D01*
X88566628Y-25720400D02*
X88036628Y-26630400D01*
X88036628Y-26660400D02*
X89116628Y-26660400D01*
X88036628Y-25610400D02*
X89116628Y-25610400D01*
X84183295Y-24590400D02*
X84183295Y-27560400D01*
X86183295Y-24580400D02*
X86173295Y-27570400D01*
X84183295Y-27570400D02*
X86173295Y-27570400D01*
X85193295Y-27780400D02*
X85193295Y-26660400D01*
X85193295Y-24320400D02*
X85193295Y-25600400D01*
X84183295Y-24580400D02*
X86183295Y-24580400D01*
X85193295Y-25710400D02*
X85733295Y-26660400D01*
X85183295Y-25720400D02*
X84653295Y-26630400D01*
X84653295Y-26660400D02*
X85733295Y-26660400D01*
X84653295Y-25610400D02*
X85733295Y-25610400D01*
X63883297Y-24590400D02*
X63883297Y-27560400D01*
X65883297Y-24580400D02*
X65873297Y-27570400D01*
X63883297Y-27570400D02*
X65873297Y-27570400D01*
X64893297Y-27780400D02*
X64893297Y-26660400D01*
X64893297Y-24320400D02*
X64893297Y-25600400D01*
X63883297Y-24580400D02*
X65883297Y-24580400D01*
X64893297Y-25710400D02*
X65433297Y-26660400D01*
X64883297Y-25720400D02*
X64353297Y-26630400D01*
X64353297Y-26660400D02*
X65433297Y-26660400D01*
X64353297Y-25610400D02*
X65433297Y-25610400D01*
X60499964Y-24590400D02*
X60499964Y-27560400D01*
X62499964Y-24580400D02*
X62489964Y-27570400D01*
X60499964Y-27570400D02*
X62489964Y-27570400D01*
X61509964Y-27780400D02*
X61509964Y-26660400D01*
X61509964Y-24320400D02*
X61509964Y-25600400D01*
X60499964Y-24580400D02*
X62499964Y-24580400D01*
X61509964Y-25710400D02*
X62049964Y-26660400D01*
X61499964Y-25720400D02*
X60969964Y-26630400D01*
X60969964Y-26660400D02*
X62049964Y-26660400D01*
X60969964Y-25610400D02*
X62049964Y-25610400D01*
X43583299Y-24590400D02*
X43583299Y-27560400D01*
X45583299Y-24580400D02*
X45573299Y-27570400D01*
X43583299Y-27570400D02*
X45573299Y-27570400D01*
X44593299Y-27780400D02*
X44593299Y-26660400D01*
X44593299Y-24320400D02*
X44593299Y-25600400D01*
X43583299Y-24580400D02*
X45583299Y-24580400D01*
X44593299Y-25710400D02*
X45133299Y-26660400D01*
X44583299Y-25720400D02*
X44053299Y-26630400D01*
X44053299Y-26660400D02*
X45133299Y-26660400D01*
X44053299Y-25610400D02*
X45133299Y-25610400D01*
X245150700Y-24590400D02*
X245150700Y-27560400D01*
X247150700Y-24580400D02*
X247140700Y-27570400D01*
X245150700Y-27570400D02*
X247140700Y-27570400D01*
X246160700Y-27780400D02*
X246160700Y-26660400D01*
X246160700Y-24320400D02*
X246160700Y-25600400D01*
X245150700Y-24580400D02*
X247150700Y-24580400D01*
X246160700Y-25710400D02*
X246700700Y-26660400D01*
X246150700Y-25720400D02*
X245620700Y-26630400D01*
X245620700Y-26660400D02*
X246700700Y-26660400D01*
X245620700Y-25610400D02*
X246700700Y-25610400D01*
X241650700Y-24590400D02*
X241650700Y-27560400D01*
X243650700Y-24580400D02*
X243640700Y-27570400D01*
X241650700Y-27570400D02*
X243640700Y-27570400D01*
X242660700Y-27780400D02*
X242660700Y-26660400D01*
X242660700Y-24320400D02*
X242660700Y-25600400D01*
X241650700Y-24580400D02*
X243650700Y-24580400D01*
X242660700Y-25710400D02*
X243200700Y-26660400D01*
X242650700Y-25720400D02*
X242120700Y-26630400D01*
X242120700Y-26660400D02*
X243200700Y-26660400D01*
X242120700Y-25610400D02*
X243200700Y-25610400D01*
X124783291Y-24590400D02*
X124783291Y-27560400D01*
X126783291Y-24580400D02*
X126773291Y-27570400D01*
X124783291Y-27570400D02*
X126773291Y-27570400D01*
X125793291Y-27780400D02*
X125793291Y-26660400D01*
X125793291Y-24320400D02*
X125793291Y-25600400D01*
X124783291Y-24580400D02*
X126783291Y-24580400D01*
X125793291Y-25710400D02*
X126333291Y-26660400D01*
X125783291Y-25720400D02*
X125253291Y-26630400D01*
X125253291Y-26660400D02*
X126333291Y-26660400D01*
X125253291Y-25610400D02*
X126333291Y-25610400D01*
X121399958Y-24590400D02*
X121399958Y-27560400D01*
X123399958Y-24580400D02*
X123389958Y-27570400D01*
X121399958Y-27570400D02*
X123389958Y-27570400D01*
X122409958Y-27780400D02*
X122409958Y-26660400D01*
X122409958Y-24320400D02*
X122409958Y-25600400D01*
X121399958Y-24580400D02*
X123399958Y-24580400D01*
X122409958Y-25710400D02*
X122949958Y-26660400D01*
X122399958Y-25720400D02*
X121869958Y-26630400D01*
X121869958Y-26660400D02*
X122949958Y-26660400D01*
X121869958Y-25610400D02*
X122949958Y-25610400D01*
X118016625Y-24590400D02*
X118016625Y-27560400D01*
X120016625Y-24580400D02*
X120006625Y-27570400D01*
X118016625Y-27570400D02*
X120006625Y-27570400D01*
X119026625Y-27780400D02*
X119026625Y-26660400D01*
X119026625Y-24320400D02*
X119026625Y-25600400D01*
X118016625Y-24580400D02*
X120016625Y-24580400D01*
X119026625Y-25710400D02*
X119566625Y-26660400D01*
X119016625Y-25720400D02*
X118486625Y-26630400D01*
X118486625Y-26660400D02*
X119566625Y-26660400D01*
X118486625Y-25610400D02*
X119566625Y-25610400D01*
X114633292Y-24590400D02*
X114633292Y-27560400D01*
X116633292Y-24580400D02*
X116623292Y-27570400D01*
X114633292Y-27570400D02*
X116623292Y-27570400D01*
X115643292Y-27780400D02*
X115643292Y-26660400D01*
X115643292Y-24320400D02*
X115643292Y-25600400D01*
X114633292Y-24580400D02*
X116633292Y-24580400D01*
X115643292Y-25710400D02*
X116183292Y-26660400D01*
X115633292Y-25720400D02*
X115103292Y-26630400D01*
X115103292Y-26660400D02*
X116183292Y-26660400D01*
X115103292Y-25610400D02*
X116183292Y-25610400D01*
X90949961Y-24590400D02*
X90949961Y-27560400D01*
X92949961Y-24580400D02*
X92939961Y-27570400D01*
X90949961Y-27570400D02*
X92939961Y-27570400D01*
X91959961Y-27780400D02*
X91959961Y-26660400D01*
X91959961Y-24320400D02*
X91959961Y-25600400D01*
X90949961Y-24580400D02*
X92949961Y-24580400D01*
X91959961Y-25710400D02*
X92499961Y-26660400D01*
X91949961Y-25720400D02*
X91419961Y-26630400D01*
X91419961Y-26660400D02*
X92499961Y-26660400D01*
X91419961Y-25610400D02*
X92499961Y-25610400D01*
X77416629Y-24590400D02*
X77416629Y-27560400D01*
X79416629Y-24580400D02*
X79406629Y-27570400D01*
X77416629Y-27570400D02*
X79406629Y-27570400D01*
X78426629Y-27780400D02*
X78426629Y-26660400D01*
X78426629Y-24320400D02*
X78426629Y-25600400D01*
X77416629Y-24580400D02*
X79416629Y-24580400D01*
X78426629Y-25710400D02*
X78966629Y-26660400D01*
X78416629Y-25720400D02*
X77886629Y-26630400D01*
X77886629Y-26660400D02*
X78966629Y-26660400D01*
X77886629Y-25610400D02*
X78966629Y-25610400D01*
X67266630Y-24590400D02*
X67266630Y-27560400D01*
X69266630Y-24580400D02*
X69256630Y-27570400D01*
X67266630Y-27570400D02*
X69256630Y-27570400D01*
X68276630Y-27780400D02*
X68276630Y-26660400D01*
X68276630Y-24320400D02*
X68276630Y-25600400D01*
X67266630Y-24580400D02*
X69266630Y-24580400D01*
X68276630Y-25710400D02*
X68816630Y-26660400D01*
X68266630Y-25720400D02*
X67736630Y-26630400D01*
X67736630Y-26660400D02*
X68816630Y-26660400D01*
X67736630Y-25610400D02*
X68816630Y-25610400D01*
X53733298Y-24590400D02*
X53733298Y-27560400D01*
X55733298Y-24580400D02*
X55723298Y-27570400D01*
X53733298Y-27570400D02*
X55723298Y-27570400D01*
X54743298Y-27780400D02*
X54743298Y-26660400D01*
X54743298Y-24320400D02*
X54743298Y-25600400D01*
X53733298Y-24580400D02*
X55733298Y-24580400D01*
X54743298Y-25710400D02*
X55283298Y-26660400D01*
X54733298Y-25720400D02*
X54203298Y-26630400D01*
X54203298Y-26660400D02*
X55283298Y-26660400D01*
X54203298Y-25610400D02*
X55283298Y-25610400D01*
X36816633Y-24590400D02*
X36816633Y-27560400D01*
X38816633Y-24580400D02*
X38806633Y-27570400D01*
X36816633Y-27570400D02*
X38806633Y-27570400D01*
X37826633Y-27780400D02*
X37826633Y-26660400D01*
X37826633Y-24320400D02*
X37826633Y-25600400D01*
X36816633Y-24580400D02*
X38816633Y-24580400D01*
X37826633Y-25710400D02*
X38366633Y-26660400D01*
X37816633Y-25720400D02*
X37286633Y-26630400D01*
X37286633Y-26660400D02*
X38366633Y-26660400D01*
X37286633Y-25610400D02*
X38366633Y-25610400D01*
X255650700Y-24590400D02*
X255650700Y-27560400D01*
X257650700Y-24580400D02*
X257640700Y-27570400D01*
X255650700Y-27570400D02*
X257640700Y-27570400D01*
X256660700Y-27780400D02*
X256660700Y-26660400D01*
X256660700Y-24320400D02*
X256660700Y-25600400D01*
X255650700Y-24580400D02*
X257650700Y-24580400D01*
X256660700Y-25710400D02*
X257200700Y-26660400D01*
X256650700Y-25720400D02*
X256120700Y-26630400D01*
X256120700Y-26660400D02*
X257200700Y-26660400D01*
X256120700Y-25610400D02*
X257200700Y-25610400D01*
X252150700Y-24590400D02*
X252150700Y-27560400D01*
X254150700Y-24580400D02*
X254140700Y-27570400D01*
X252150700Y-27570400D02*
X254140700Y-27570400D01*
X253160700Y-27780400D02*
X253160700Y-26660400D01*
X253160700Y-24320400D02*
X253160700Y-25600400D01*
X252150700Y-24580400D02*
X254150700Y-24580400D01*
X253160700Y-25710400D02*
X253700700Y-26660400D01*
X253150700Y-25720400D02*
X252620700Y-26630400D01*
X252620700Y-26660400D02*
X253700700Y-26660400D01*
X252620700Y-25610400D02*
X253700700Y-25610400D01*
X248650700Y-24590400D02*
X248650700Y-27560400D01*
X250650700Y-24580400D02*
X250640700Y-27570400D01*
X248650700Y-27570400D02*
X250640700Y-27570400D01*
X249660700Y-27780400D02*
X249660700Y-26660400D01*
X249660700Y-24320400D02*
X249660700Y-25600400D01*
X248650700Y-24580400D02*
X250650700Y-24580400D01*
X249660700Y-25710400D02*
X250200700Y-26660400D01*
X249650700Y-25720400D02*
X249120700Y-26630400D01*
X249120700Y-26660400D02*
X250200700Y-26660400D01*
X249120700Y-25610400D02*
X250200700Y-25610400D01*
X217150700Y-24590400D02*
X217150700Y-27560400D01*
X219150700Y-24580400D02*
X219140700Y-27570400D01*
X217150700Y-27570400D02*
X219140700Y-27570400D01*
X218160700Y-27780400D02*
X218160700Y-26660400D01*
X218160700Y-24320400D02*
X218160700Y-25600400D01*
X217150700Y-24580400D02*
X219150700Y-24580400D01*
X218160700Y-25710400D02*
X218700700Y-26660400D01*
X218150700Y-25720400D02*
X217620700Y-26630400D01*
X217620700Y-26660400D02*
X218700700Y-26660400D01*
X217620700Y-25610400D02*
X218700700Y-25610400D01*
X134933300Y-24590400D02*
X134933300Y-27560400D01*
X136933300Y-24580400D02*
X136923300Y-27570400D01*
X134933300Y-27570400D02*
X136923300Y-27570400D01*
X135943300Y-27780400D02*
X135943300Y-26660400D01*
X135943300Y-24320400D02*
X135943300Y-25600400D01*
X134933300Y-24580400D02*
X136933300Y-24580400D01*
X135943300Y-25710400D02*
X136483300Y-26660400D01*
X135933300Y-25720400D02*
X135403300Y-26630400D01*
X135403300Y-26660400D02*
X136483300Y-26660400D01*
X135403300Y-25610400D02*
X136483300Y-25610400D01*
X131549957Y-24590400D02*
X131549957Y-27560400D01*
X133549957Y-24580400D02*
X133539957Y-27570400D01*
X131549957Y-27570400D02*
X133539957Y-27570400D01*
X132559957Y-27780400D02*
X132559957Y-26660400D01*
X132559957Y-24320400D02*
X132559957Y-25600400D01*
X131549957Y-24580400D02*
X133549957Y-24580400D01*
X132559957Y-25710400D02*
X133099957Y-26660400D01*
X132549957Y-25720400D02*
X132019957Y-26630400D01*
X132019957Y-26660400D02*
X133099957Y-26660400D01*
X132019957Y-25610400D02*
X133099957Y-25610400D01*
X128166624Y-24590400D02*
X128166624Y-27560400D01*
X130166624Y-24580400D02*
X130156624Y-27570400D01*
X128166624Y-27570400D02*
X130156624Y-27570400D01*
X129176624Y-27780400D02*
X129176624Y-26660400D01*
X129176624Y-24320400D02*
X129176624Y-25600400D01*
X128166624Y-24580400D02*
X130166624Y-24580400D01*
X129176624Y-25710400D02*
X129716624Y-26660400D01*
X129166624Y-25720400D02*
X128636624Y-26630400D01*
X128636624Y-26660400D02*
X129716624Y-26660400D01*
X128636624Y-25610400D02*
X129716624Y-25610400D01*
X94333294Y-24590400D02*
X94333294Y-27560400D01*
X96333294Y-24580400D02*
X96323294Y-27570400D01*
X94333294Y-27570400D02*
X96323294Y-27570400D01*
X95343294Y-27780400D02*
X95343294Y-26660400D01*
X95343294Y-24320400D02*
X95343294Y-25600400D01*
X94333294Y-24580400D02*
X96333294Y-24580400D01*
X95343294Y-25710400D02*
X95883294Y-26660400D01*
X95333294Y-25720400D02*
X94803294Y-26630400D01*
X94803294Y-26660400D02*
X95883294Y-26660400D01*
X94803294Y-25610400D02*
X95883294Y-25610400D01*
X74033296Y-24590400D02*
X74033296Y-27560400D01*
X76033296Y-24580400D02*
X76023296Y-27570400D01*
X74033296Y-27570400D02*
X76023296Y-27570400D01*
X75043296Y-27780400D02*
X75043296Y-26660400D01*
X75043296Y-24320400D02*
X75043296Y-25600400D01*
X74033296Y-24580400D02*
X76033296Y-24580400D01*
X75043296Y-25710400D02*
X75583296Y-26660400D01*
X75033296Y-25720400D02*
X74503296Y-26630400D01*
X74503296Y-26660400D02*
X75583296Y-26660400D01*
X74503296Y-25610400D02*
X75583296Y-25610400D01*
X70649963Y-24590400D02*
X70649963Y-27560400D01*
X72649963Y-24580400D02*
X72639963Y-27570400D01*
X70649963Y-27570400D02*
X72639963Y-27570400D01*
X71659963Y-27780400D02*
X71659963Y-26660400D01*
X71659963Y-24320400D02*
X71659963Y-25600400D01*
X70649963Y-24580400D02*
X72649963Y-24580400D01*
X71659963Y-25710400D02*
X72199963Y-26660400D01*
X71649963Y-25720400D02*
X71119963Y-26630400D01*
X71119963Y-26660400D02*
X72199963Y-26660400D01*
X71119963Y-25610400D02*
X72199963Y-25610400D01*
X50349965Y-24590400D02*
X50349965Y-27560400D01*
X52349965Y-24580400D02*
X52339965Y-27570400D01*
X50349965Y-27570400D02*
X52339965Y-27570400D01*
X51359965Y-27780400D02*
X51359965Y-26660400D01*
X51359965Y-24320400D02*
X51359965Y-25600400D01*
X50349965Y-24580400D02*
X52349965Y-24580400D01*
X51359965Y-25710400D02*
X51899965Y-26660400D01*
X51349965Y-25720400D02*
X50819965Y-26630400D01*
X50819965Y-26660400D02*
X51899965Y-26660400D01*
X50819965Y-25610400D02*
X51899965Y-25610400D01*
X33433300Y-24590400D02*
X33433300Y-27560400D01*
X35433300Y-24580400D02*
X35423300Y-27570400D01*
X33433300Y-27570400D02*
X35423300Y-27570400D01*
X34443300Y-27780400D02*
X34443300Y-26660400D01*
X34443300Y-24320400D02*
X34443300Y-25600400D01*
X33433300Y-24580400D02*
X35433300Y-24580400D01*
X34443300Y-25710400D02*
X34983300Y-26660400D01*
X34433300Y-25720400D02*
X33903300Y-26630400D01*
X33903300Y-26660400D02*
X34983300Y-26660400D01*
X33903300Y-25610400D02*
X34983300Y-25610400D01*
D10*
X185049947Y-26412744D02*
X185002328Y-26460363D01*
X184859471Y-26507982D01*
X184764233Y-26507982D01*
X184621375Y-26460363D01*
X184526137Y-26365125D01*
X184478518Y-26269887D01*
X184430899Y-26079411D01*
X184430899Y-25936554D01*
X184478518Y-25746078D01*
X184526137Y-25650840D01*
X184621375Y-25555602D01*
X184764233Y-25507982D01*
X184859471Y-25507982D01*
X185002328Y-25555602D01*
X185049947Y-25603221D01*
X185954709Y-25507982D02*
X185478518Y-25507982D01*
X185430899Y-25984173D01*
X185478518Y-25936554D01*
X185573756Y-25888935D01*
X185811852Y-25888935D01*
X185907090Y-25936554D01*
X185954709Y-25984173D01*
X186002328Y-26079411D01*
X186002328Y-26317506D01*
X185954709Y-26412744D01*
X185907090Y-26460363D01*
X185811852Y-26507982D01*
X185573756Y-26507982D01*
X185478518Y-26460363D01*
X185430899Y-26412744D01*
X184171023Y-27518805D02*
X184266261Y-27518805D01*
X184361499Y-27566425D01*
X184409118Y-27614044D01*
X184456737Y-27709282D01*
X184504356Y-27899758D01*
X184504356Y-28137853D01*
X184456737Y-28328329D01*
X184409118Y-28423567D01*
X184361499Y-28471186D01*
X184266261Y-28518805D01*
X184171023Y-28518805D01*
X184075785Y-28471186D01*
X184028166Y-28423567D01*
X183980547Y-28328329D01*
X183932928Y-28137853D01*
X183932928Y-27899758D01*
X183980547Y-27709282D01*
X184028166Y-27614044D01*
X184075785Y-27566425D01*
X184171023Y-27518805D01*
X184932928Y-28423567D02*
X184980547Y-28471186D01*
X184932928Y-28518805D01*
X184885309Y-28471186D01*
X184932928Y-28423567D01*
X184932928Y-28518805D01*
X185932928Y-28518805D02*
X185361499Y-28518805D01*
X185647213Y-28518805D02*
X185647213Y-27518805D01*
X185551975Y-27661663D01*
X185456737Y-27756901D01*
X185361499Y-27804520D01*
X186790070Y-27852139D02*
X186790070Y-28518805D01*
X186361499Y-27852139D02*
X186361499Y-28375948D01*
X186409118Y-28471186D01*
X186504356Y-28518805D01*
X186647213Y-28518805D01*
X186742451Y-28471186D01*
X186790070Y-28423567D01*
X229012604Y-31991828D02*
X228212604Y-31991828D01*
X228212604Y-31801352D01*
X228250700Y-31687066D01*
X228326890Y-31610876D01*
X228403080Y-31572780D01*
X228555461Y-31534685D01*
X228669747Y-31534685D01*
X228822128Y-31572780D01*
X228898319Y-31610876D01*
X228974509Y-31687066D01*
X229012604Y-31801352D01*
X229012604Y-31991828D01*
X228479271Y-30848971D02*
X229012604Y-30848971D01*
X228174509Y-31039447D02*
X228745938Y-31229923D01*
X228745938Y-30734685D01*
X228479271Y-30087066D02*
X229012604Y-30087066D01*
X228174509Y-30277542D02*
X228745938Y-30468019D01*
X228745938Y-29972780D01*
X191185969Y-13671540D02*
X191138350Y-13719159D01*
X190995493Y-13766778D01*
X190900255Y-13766778D01*
X190757397Y-13719159D01*
X190662159Y-13623921D01*
X190614540Y-13528683D01*
X190566921Y-13338207D01*
X190566921Y-13195350D01*
X190614540Y-13004874D01*
X190662159Y-12909636D01*
X190757397Y-12814398D01*
X190900255Y-12766778D01*
X190995493Y-12766778D01*
X191138350Y-12814398D01*
X191185969Y-12862017D01*
X192043112Y-13100112D02*
X192043112Y-13766778D01*
X191805016Y-12719159D02*
X191566921Y-13433445D01*
X192185969Y-13433445D01*
X184802114Y-12723880D02*
X184897352Y-12723880D01*
X184992590Y-12771500D01*
X185040209Y-12819119D01*
X185087828Y-12914357D01*
X185135447Y-13104833D01*
X185135447Y-13342928D01*
X185087828Y-13533404D01*
X185040209Y-13628642D01*
X184992590Y-13676261D01*
X184897352Y-13723880D01*
X184802114Y-13723880D01*
X184706876Y-13676261D01*
X184659257Y-13628642D01*
X184611638Y-13533404D01*
X184564019Y-13342928D01*
X184564019Y-13104833D01*
X184611638Y-12914357D01*
X184659257Y-12819119D01*
X184706876Y-12771500D01*
X184802114Y-12723880D01*
X185564019Y-13628642D02*
X185611638Y-13676261D01*
X185564019Y-13723880D01*
X185516400Y-13676261D01*
X185564019Y-13628642D01*
X185564019Y-13723880D01*
X186564019Y-13723880D02*
X185992590Y-13723880D01*
X186278304Y-13723880D02*
X186278304Y-12723880D01*
X186183066Y-12866738D01*
X186087828Y-12961976D01*
X185992590Y-13009595D01*
X187421161Y-13057214D02*
X187421161Y-13723880D01*
X186992590Y-13057214D02*
X186992590Y-13581023D01*
X187040209Y-13676261D01*
X187135447Y-13723880D01*
X187278304Y-13723880D01*
X187373542Y-13676261D01*
X187421161Y-13628642D01*
X153530143Y-18945662D02*
X153482524Y-18993281D01*
X153339667Y-19040900D01*
X153244429Y-19040900D01*
X153101571Y-18993281D01*
X153006333Y-18898043D01*
X152958714Y-18802805D01*
X152911095Y-18612329D01*
X152911095Y-18469472D01*
X152958714Y-18278996D01*
X153006333Y-18183758D01*
X153101571Y-18088520D01*
X153244429Y-18040900D01*
X153339667Y-18040900D01*
X153482524Y-18088520D01*
X153530143Y-18136139D01*
X153863476Y-18040900D02*
X154482524Y-18040900D01*
X154149190Y-18421853D01*
X154292048Y-18421853D01*
X154387286Y-18469472D01*
X154434905Y-18517091D01*
X154482524Y-18612329D01*
X154482524Y-18850424D01*
X154434905Y-18945662D01*
X154387286Y-18993281D01*
X154292048Y-19040900D01*
X154006333Y-19040900D01*
X153911095Y-18993281D01*
X153863476Y-18945662D01*
X204647427Y-31374234D02*
X204599808Y-31421853D01*
X204456951Y-31469472D01*
X204361713Y-31469472D01*
X204218855Y-31421853D01*
X204123617Y-31326615D01*
X204075998Y-31231377D01*
X204028379Y-31040901D01*
X204028379Y-30898044D01*
X204075998Y-30707568D01*
X204123617Y-30612330D01*
X204218855Y-30517092D01*
X204361713Y-30469472D01*
X204456951Y-30469472D01*
X204599808Y-30517092D01*
X204647427Y-30564711D01*
X205028379Y-30564711D02*
X205075998Y-30517092D01*
X205171236Y-30469472D01*
X205409332Y-30469472D01*
X205504570Y-30517092D01*
X205552189Y-30564711D01*
X205599808Y-30659949D01*
X205599808Y-30755187D01*
X205552189Y-30898044D01*
X204980760Y-31469472D01*
X205599808Y-31469472D01*
X203733417Y-31910525D02*
X203781036Y-31862906D01*
X203876274Y-31815286D01*
X204114369Y-31815286D01*
X204209607Y-31862906D01*
X204257226Y-31910525D01*
X204304845Y-32005763D01*
X204304845Y-32101001D01*
X204257226Y-32243858D01*
X203685798Y-32815286D01*
X204304845Y-32815286D01*
X204685798Y-31910525D02*
X204733417Y-31862906D01*
X204828655Y-31815286D01*
X205066750Y-31815286D01*
X205161988Y-31862906D01*
X205209607Y-31910525D01*
X205257226Y-32005763D01*
X205257226Y-32101001D01*
X205209607Y-32243858D01*
X204638179Y-32815286D01*
X205257226Y-32815286D01*
X205685798Y-32148620D02*
X205685798Y-33148620D01*
X205685798Y-32196239D02*
X205781036Y-32148620D01*
X205971512Y-32148620D01*
X206066750Y-32196239D01*
X206114369Y-32243858D01*
X206161988Y-32339096D01*
X206161988Y-32624810D01*
X206114369Y-32720048D01*
X206066750Y-32767667D01*
X205971512Y-32815286D01*
X205781036Y-32815286D01*
X205685798Y-32767667D01*
X189940827Y-31374234D02*
X189893208Y-31421853D01*
X189750351Y-31469472D01*
X189655113Y-31469472D01*
X189512255Y-31421853D01*
X189417017Y-31326615D01*
X189369398Y-31231377D01*
X189321779Y-31040901D01*
X189321779Y-30898044D01*
X189369398Y-30707568D01*
X189417017Y-30612330D01*
X189512255Y-30517092D01*
X189655113Y-30469472D01*
X189750351Y-30469472D01*
X189893208Y-30517092D01*
X189940827Y-30564711D01*
X190893208Y-31469472D02*
X190321779Y-31469472D01*
X190607494Y-31469472D02*
X190607494Y-30469472D01*
X190512255Y-30612330D01*
X190417017Y-30707568D01*
X190321779Y-30755187D01*
X189026817Y-31910525D02*
X189074436Y-31862906D01*
X189169674Y-31815286D01*
X189407769Y-31815286D01*
X189503007Y-31862906D01*
X189550626Y-31910525D01*
X189598245Y-32005763D01*
X189598245Y-32101001D01*
X189550626Y-32243858D01*
X188979198Y-32815286D01*
X189598245Y-32815286D01*
X189979198Y-31910525D02*
X190026817Y-31862906D01*
X190122055Y-31815286D01*
X190360150Y-31815286D01*
X190455388Y-31862906D01*
X190503007Y-31910525D01*
X190550626Y-32005763D01*
X190550626Y-32101001D01*
X190503007Y-32243858D01*
X189931579Y-32815286D01*
X190550626Y-32815286D01*
X190979198Y-32148620D02*
X190979198Y-33148620D01*
X190979198Y-32196239D02*
X191074436Y-32148620D01*
X191264912Y-32148620D01*
X191360150Y-32196239D01*
X191407769Y-32243858D01*
X191455388Y-32339096D01*
X191455388Y-32624810D01*
X191407769Y-32720048D01*
X191360150Y-32767667D01*
X191264912Y-32815286D01*
X191074436Y-32815286D01*
X190979198Y-32767667D01*
X107227857Y-20477171D02*
X107370714Y-20524790D01*
X107418333Y-20572409D01*
X107465952Y-20667647D01*
X107465952Y-20810504D01*
X107418333Y-20905742D01*
X107370714Y-20953361D01*
X107275476Y-21000980D01*
X106894523Y-21000980D01*
X106894523Y-20000980D01*
X107227857Y-20000980D01*
X107323095Y-20048600D01*
X107370714Y-20096219D01*
X107418333Y-20191457D01*
X107418333Y-20286695D01*
X107370714Y-20381933D01*
X107323095Y-20429552D01*
X107227857Y-20477171D01*
X106894523Y-20477171D01*
X108085000Y-20000980D02*
X108275476Y-20000980D01*
X108370714Y-20048600D01*
X108465952Y-20143838D01*
X108513571Y-20334314D01*
X108513571Y-20667647D01*
X108465952Y-20858123D01*
X108370714Y-20953361D01*
X108275476Y-21000980D01*
X108085000Y-21000980D01*
X107989761Y-20953361D01*
X107894523Y-20858123D01*
X107846904Y-20667647D01*
X107846904Y-20334314D01*
X107894523Y-20143838D01*
X107989761Y-20048600D01*
X108085000Y-20000980D01*
X109132619Y-20000980D02*
X109323095Y-20000980D01*
X109418333Y-20048600D01*
X109513571Y-20143838D01*
X109561190Y-20334314D01*
X109561190Y-20667647D01*
X109513571Y-20858123D01*
X109418333Y-20953361D01*
X109323095Y-21000980D01*
X109132619Y-21000980D01*
X109037380Y-20953361D01*
X108942142Y-20858123D01*
X108894523Y-20667647D01*
X108894523Y-20334314D01*
X108942142Y-20143838D01*
X109037380Y-20048600D01*
X109132619Y-20000980D01*
X109846904Y-20000980D02*
X110418333Y-20000980D01*
X110132619Y-21000980D02*
X110132619Y-20000980D01*
D11*
X142544990Y-103965974D02*
X142354514Y-103965974D01*
X142259276Y-104013594D01*
X142211657Y-104061213D01*
X142116419Y-104204070D01*
X142068800Y-104394546D01*
X142068800Y-104775498D01*
X142116419Y-104870736D01*
X142164038Y-104918355D01*
X142259276Y-104965974D01*
X142449752Y-104965974D01*
X142544990Y-104918355D01*
X142592609Y-104870736D01*
X142640228Y-104775498D01*
X142640228Y-104537403D01*
X142592609Y-104442165D01*
X142544990Y-104394546D01*
X142449752Y-104346927D01*
X142259276Y-104346927D01*
X142164038Y-104394546D01*
X142116419Y-104442165D01*
X142068800Y-104537403D01*
X143068800Y-104870736D02*
X143116419Y-104918355D01*
X143068800Y-104965974D01*
X143021180Y-104918355D01*
X143068800Y-104870736D01*
X143068800Y-104965974D01*
X143497371Y-104061213D02*
X143544990Y-104013594D01*
X143640228Y-103965974D01*
X143878323Y-103965974D01*
X143973561Y-104013594D01*
X144021180Y-104061213D01*
X144068800Y-104156451D01*
X144068800Y-104251689D01*
X144021180Y-104394546D01*
X143449752Y-104965974D01*
X144068800Y-104965974D01*
X144973561Y-103965974D02*
X144497371Y-103965974D01*
X144449752Y-104442165D01*
X144497371Y-104394546D01*
X144592609Y-104346927D01*
X144830704Y-104346927D01*
X144925942Y-104394546D01*
X144973561Y-104442165D01*
X145021180Y-104537403D01*
X145021180Y-104775498D01*
X144973561Y-104870736D01*
X144925942Y-104918355D01*
X144830704Y-104965974D01*
X144592609Y-104965974D01*
X144497371Y-104918355D01*
X144449752Y-104870736D01*
X145449752Y-103965974D02*
X145449752Y-104775498D01*
X145497371Y-104870736D01*
X145544990Y-104918355D01*
X145640228Y-104965974D01*
X145830704Y-104965974D01*
X145925942Y-104918355D01*
X145973561Y-104870736D01*
X146021180Y-104775498D01*
X146021180Y-103965974D01*
D10*
X196921009Y-27439826D02*
X196921009Y-27916016D01*
X196587676Y-26916016D02*
X196921009Y-27439826D01*
X197254342Y-26916016D01*
X198111485Y-27916016D02*
X197540057Y-27916016D01*
X197825771Y-27916016D02*
X197825771Y-26916016D01*
X197730533Y-27058874D01*
X197635295Y-27154112D01*
X197540057Y-27201731D01*
X143783901Y-12615210D02*
X143783901Y-13424734D01*
X143831520Y-13519972D01*
X143879139Y-13567591D01*
X143974377Y-13615210D01*
X144164854Y-13615210D01*
X144260092Y-13567591D01*
X144307711Y-13519972D01*
X144355330Y-13424734D01*
X144355330Y-12615210D01*
X144783901Y-13567591D02*
X144926758Y-13615210D01*
X145164854Y-13615210D01*
X145260092Y-13567591D01*
X145307711Y-13519972D01*
X145355330Y-13424734D01*
X145355330Y-13329496D01*
X145307711Y-13234258D01*
X145260092Y-13186639D01*
X145164854Y-13139020D01*
X144974377Y-13091401D01*
X144879139Y-13043782D01*
X144831520Y-12996163D01*
X144783901Y-12900925D01*
X144783901Y-12805687D01*
X144831520Y-12710449D01*
X144879139Y-12662830D01*
X144974377Y-12615210D01*
X145212473Y-12615210D01*
X145355330Y-12662830D01*
X146117235Y-13091401D02*
X146260092Y-13139020D01*
X146307711Y-13186639D01*
X146355330Y-13281877D01*
X146355330Y-13424734D01*
X146307711Y-13519972D01*
X146260092Y-13567591D01*
X146164854Y-13615210D01*
X145783901Y-13615210D01*
X145783901Y-12615210D01*
X146117235Y-12615210D01*
X146212473Y-12662830D01*
X146260092Y-12710449D01*
X146307711Y-12805687D01*
X146307711Y-12900925D01*
X146260092Y-12996163D01*
X146212473Y-13043782D01*
X146117235Y-13091401D01*
X145783901Y-13091401D01*
X147307711Y-13615210D02*
X146736282Y-13615210D01*
X147021997Y-13615210D02*
X147021997Y-12615210D01*
X146926758Y-12758068D01*
X146831520Y-12853306D01*
X146736282Y-12900925D01*
X175945895Y-20381980D02*
X175945895Y-21191504D01*
X175993514Y-21286742D01*
X176041133Y-21334361D01*
X176136371Y-21381980D01*
X176326847Y-21381980D01*
X176422085Y-21334361D01*
X176469704Y-21286742D01*
X176517323Y-21191504D01*
X176517323Y-20381980D01*
X177517323Y-21381980D02*
X176945895Y-21381980D01*
X177231609Y-21381980D02*
X177231609Y-20381980D01*
X177136371Y-20524838D01*
X177041133Y-20620076D01*
X176945895Y-20667695D01*
X95169219Y-21000980D02*
X94835885Y-20524790D01*
X94597790Y-21000980D02*
X94597790Y-20000980D01*
X94978742Y-20000980D01*
X95073980Y-20048600D01*
X95121600Y-20096219D01*
X95169219Y-20191457D01*
X95169219Y-20334314D01*
X95121600Y-20429552D01*
X95073980Y-20477171D01*
X94978742Y-20524790D01*
X94597790Y-20524790D01*
X95597790Y-20477171D02*
X95931123Y-20477171D01*
X96073980Y-21000980D02*
X95597790Y-21000980D01*
X95597790Y-20000980D01*
X96073980Y-20000980D01*
X96454933Y-20953361D02*
X96597790Y-21000980D01*
X96835885Y-21000980D01*
X96931123Y-20953361D01*
X96978742Y-20905742D01*
X97026361Y-20810504D01*
X97026361Y-20715266D01*
X96978742Y-20620028D01*
X96931123Y-20572409D01*
X96835885Y-20524790D01*
X96645409Y-20477171D01*
X96550171Y-20429552D01*
X96502552Y-20381933D01*
X96454933Y-20286695D01*
X96454933Y-20191457D01*
X96502552Y-20096219D01*
X96550171Y-20048600D01*
X96645409Y-20000980D01*
X96883504Y-20000980D01*
X97026361Y-20048600D01*
X97454933Y-20477171D02*
X97788266Y-20477171D01*
X97931123Y-21000980D02*
X97454933Y-21000980D01*
X97454933Y-20000980D01*
X97931123Y-20000980D01*
X98216838Y-20000980D02*
X98788266Y-20000980D01*
X98502552Y-21000980D02*
X98502552Y-20000980D01*
X171127180Y-16715566D02*
X170650990Y-17048900D01*
X171127180Y-17286995D02*
X170127180Y-17286995D01*
X170127180Y-16906042D01*
X170174800Y-16810804D01*
X170222419Y-16763185D01*
X170317657Y-16715566D01*
X170460514Y-16715566D01*
X170555752Y-16763185D01*
X170603371Y-16810804D01*
X170650990Y-16906042D01*
X170650990Y-17286995D01*
X170127180Y-16382233D02*
X170127180Y-15715566D01*
X171127180Y-16144138D01*
X165491728Y-17013980D02*
X164920300Y-17013980D01*
X165206014Y-17013980D02*
X165206014Y-16013980D01*
X165110776Y-16156838D01*
X165015538Y-16252076D01*
X164920300Y-16299695D01*
X165920300Y-16918742D02*
X165967919Y-16966361D01*
X165920300Y-17013980D01*
X165872680Y-16966361D01*
X165920300Y-16918742D01*
X165920300Y-17013980D01*
X166872680Y-16013980D02*
X166396490Y-16013980D01*
X166348871Y-16490171D01*
X166396490Y-16442552D01*
X166491728Y-16394933D01*
X166729823Y-16394933D01*
X166825061Y-16442552D01*
X166872680Y-16490171D01*
X166920300Y-16585409D01*
X166920300Y-16823504D01*
X166872680Y-16918742D01*
X166825061Y-16966361D01*
X166729823Y-17013980D01*
X166491728Y-17013980D01*
X166396490Y-16966361D01*
X166348871Y-16918742D01*
X167348871Y-17013980D02*
X167348871Y-16013980D01*
X167920300Y-17013980D02*
X167491728Y-16442552D01*
X167920300Y-16013980D02*
X167348871Y-16585409D01*
X171127180Y-14200166D02*
X170650990Y-14533500D01*
X171127180Y-14771595D02*
X170127180Y-14771595D01*
X170127180Y-14390642D01*
X170174800Y-14295404D01*
X170222419Y-14247785D01*
X170317657Y-14200166D01*
X170460514Y-14200166D01*
X170555752Y-14247785D01*
X170603371Y-14295404D01*
X170650990Y-14390642D01*
X170650990Y-14771595D01*
X170127180Y-13343023D02*
X170127180Y-13533500D01*
X170174800Y-13628738D01*
X170222419Y-13676357D01*
X170365276Y-13771595D01*
X170555752Y-13819214D01*
X170936704Y-13819214D01*
X171031942Y-13771595D01*
X171079561Y-13723976D01*
X171127180Y-13628738D01*
X171127180Y-13438261D01*
X171079561Y-13343023D01*
X171031942Y-13295404D01*
X170936704Y-13247785D01*
X170698609Y-13247785D01*
X170603371Y-13295404D01*
X170555752Y-13343023D01*
X170508133Y-13438261D01*
X170508133Y-13628738D01*
X170555752Y-13723976D01*
X170603371Y-13771595D01*
X170698609Y-13819214D01*
X165628223Y-14537480D02*
X165056795Y-14537480D01*
X165342509Y-14537480D02*
X165342509Y-13537480D01*
X165247271Y-13680338D01*
X165152033Y-13775576D01*
X165056795Y-13823195D01*
X166247271Y-13537480D02*
X166342509Y-13537480D01*
X166437747Y-13585100D01*
X166485366Y-13632719D01*
X166532985Y-13727957D01*
X166580604Y-13918433D01*
X166580604Y-14156528D01*
X166532985Y-14347004D01*
X166485366Y-14442242D01*
X166437747Y-14489861D01*
X166342509Y-14537480D01*
X166247271Y-14537480D01*
X166152033Y-14489861D01*
X166104414Y-14442242D01*
X166056795Y-14347004D01*
X166009176Y-14156528D01*
X166009176Y-13918433D01*
X166056795Y-13727957D01*
X166104414Y-13632719D01*
X166152033Y-13585100D01*
X166247271Y-13537480D01*
X167009176Y-14537480D02*
X167009176Y-13537480D01*
X167580604Y-14537480D02*
X167152033Y-13966052D01*
X167580604Y-13537480D02*
X167009176Y-14108909D01*
X171139880Y-26675566D02*
X170663690Y-27008900D01*
X171139880Y-27246995D02*
X170139880Y-27246995D01*
X170139880Y-26866042D01*
X170187500Y-26770804D01*
X170235119Y-26723185D01*
X170330357Y-26675566D01*
X170473214Y-26675566D01*
X170568452Y-26723185D01*
X170616071Y-26770804D01*
X170663690Y-26866042D01*
X170663690Y-27246995D01*
X170139880Y-25770804D02*
X170139880Y-26246995D01*
X170616071Y-26294614D01*
X170568452Y-26246995D01*
X170520833Y-26151757D01*
X170520833Y-25913661D01*
X170568452Y-25818423D01*
X170616071Y-25770804D01*
X170711309Y-25723185D01*
X170949404Y-25723185D01*
X171044642Y-25770804D01*
X171092261Y-25818423D01*
X171139880Y-25913661D01*
X171139880Y-26151757D01*
X171092261Y-26246995D01*
X171044642Y-26294614D01*
X165110776Y-23530780D02*
X165777442Y-23530780D01*
X165348871Y-24530780D01*
X166634585Y-23530780D02*
X166158395Y-23530780D01*
X166110776Y-24006971D01*
X166158395Y-23959352D01*
X166253633Y-23911733D01*
X166491728Y-23911733D01*
X166586966Y-23959352D01*
X166634585Y-24006971D01*
X166682204Y-24102209D01*
X166682204Y-24340304D01*
X166634585Y-24435542D01*
X166586966Y-24483161D01*
X166491728Y-24530780D01*
X166253633Y-24530780D01*
X166158395Y-24483161D01*
X166110776Y-24435542D01*
X167682204Y-24530780D02*
X167348871Y-24054590D01*
X167110776Y-24530780D02*
X167110776Y-23530780D01*
X167491728Y-23530780D01*
X167586966Y-23578400D01*
X167634585Y-23626019D01*
X167682204Y-23721257D01*
X167682204Y-23864114D01*
X167634585Y-23959352D01*
X167586966Y-24006971D01*
X167491728Y-24054590D01*
X167110776Y-24054590D01*
X171139880Y-24210966D02*
X170663690Y-24544300D01*
X171139880Y-24782395D02*
X170139880Y-24782395D01*
X170139880Y-24401442D01*
X170187500Y-24306204D01*
X170235119Y-24258585D01*
X170330357Y-24210966D01*
X170473214Y-24210966D01*
X170568452Y-24258585D01*
X170616071Y-24306204D01*
X170663690Y-24401442D01*
X170663690Y-24782395D01*
X170473214Y-23353823D02*
X171139880Y-23353823D01*
X170092261Y-23591919D02*
X170806547Y-23830014D01*
X170806547Y-23210966D01*
X165110776Y-26007280D02*
X165777442Y-26007280D01*
X165348871Y-27007280D01*
X166634585Y-26007280D02*
X166158395Y-26007280D01*
X166110776Y-26483471D01*
X166158395Y-26435852D01*
X166253633Y-26388233D01*
X166491728Y-26388233D01*
X166586966Y-26435852D01*
X166634585Y-26483471D01*
X166682204Y-26578709D01*
X166682204Y-26816804D01*
X166634585Y-26912042D01*
X166586966Y-26959661D01*
X166491728Y-27007280D01*
X166253633Y-27007280D01*
X166158395Y-26959661D01*
X166110776Y-26912042D01*
X167682204Y-27007280D02*
X167348871Y-26531090D01*
X167110776Y-27007280D02*
X167110776Y-26007280D01*
X167491728Y-26007280D01*
X167586966Y-26054900D01*
X167634585Y-26102519D01*
X167682204Y-26197757D01*
X167682204Y-26340614D01*
X167634585Y-26435852D01*
X167586966Y-26483471D01*
X167491728Y-26531090D01*
X167110776Y-26531090D01*
X171114480Y-21708266D02*
X170638290Y-22041600D01*
X171114480Y-22279695D02*
X170114480Y-22279695D01*
X170114480Y-21898742D01*
X170162100Y-21803504D01*
X170209719Y-21755885D01*
X170304957Y-21708266D01*
X170447814Y-21708266D01*
X170543052Y-21755885D01*
X170590671Y-21803504D01*
X170638290Y-21898742D01*
X170638290Y-22279695D01*
X170114480Y-21374933D02*
X170114480Y-20755885D01*
X170495433Y-21089219D01*
X170495433Y-20946361D01*
X170543052Y-20851123D01*
X170590671Y-20803504D01*
X170685909Y-20755885D01*
X170924004Y-20755885D01*
X171019242Y-20803504D01*
X171066861Y-20851123D01*
X171114480Y-20946361D01*
X171114480Y-21232076D01*
X171066861Y-21327314D01*
X171019242Y-21374933D01*
X165444109Y-20990780D02*
X164967919Y-20990780D01*
X164920300Y-21466971D01*
X164967919Y-21419352D01*
X165063157Y-21371733D01*
X165301252Y-21371733D01*
X165396490Y-21419352D01*
X165444109Y-21466971D01*
X165491728Y-21562209D01*
X165491728Y-21800304D01*
X165444109Y-21895542D01*
X165396490Y-21943161D01*
X165301252Y-21990780D01*
X165063157Y-21990780D01*
X164967919Y-21943161D01*
X164920300Y-21895542D01*
X165920300Y-21895542D02*
X165967919Y-21943161D01*
X165920300Y-21990780D01*
X165872680Y-21943161D01*
X165920300Y-21895542D01*
X165920300Y-21990780D01*
X166920300Y-21990780D02*
X166348871Y-21990780D01*
X166634585Y-21990780D02*
X166634585Y-20990780D01*
X166539347Y-21133638D01*
X166444109Y-21228876D01*
X166348871Y-21276495D01*
X167348871Y-21990780D02*
X167348871Y-20990780D01*
X167920300Y-21990780D02*
X167491728Y-21419352D01*
X167920300Y-20990780D02*
X167348871Y-21562209D01*
X171127180Y-19205566D02*
X170650990Y-19538900D01*
X171127180Y-19776995D02*
X170127180Y-19776995D01*
X170127180Y-19396042D01*
X170174800Y-19300804D01*
X170222419Y-19253185D01*
X170317657Y-19205566D01*
X170460514Y-19205566D01*
X170555752Y-19253185D01*
X170603371Y-19300804D01*
X170650990Y-19396042D01*
X170650990Y-19776995D01*
X170222419Y-18824614D02*
X170174800Y-18776995D01*
X170127180Y-18681757D01*
X170127180Y-18443661D01*
X170174800Y-18348423D01*
X170222419Y-18300804D01*
X170317657Y-18253185D01*
X170412895Y-18253185D01*
X170555752Y-18300804D01*
X171127180Y-18872233D01*
X171127180Y-18253185D01*
X165342509Y-18506380D02*
X164866319Y-18506380D01*
X164818700Y-18982571D01*
X164866319Y-18934952D01*
X164961557Y-18887333D01*
X165199652Y-18887333D01*
X165294890Y-18934952D01*
X165342509Y-18982571D01*
X165390128Y-19077809D01*
X165390128Y-19315904D01*
X165342509Y-19411142D01*
X165294890Y-19458761D01*
X165199652Y-19506380D01*
X164961557Y-19506380D01*
X164866319Y-19458761D01*
X164818700Y-19411142D01*
X165818700Y-19411142D02*
X165866319Y-19458761D01*
X165818700Y-19506380D01*
X165771080Y-19458761D01*
X165818700Y-19411142D01*
X165818700Y-19506380D01*
X166818700Y-19506380D02*
X166247271Y-19506380D01*
X166532985Y-19506380D02*
X166532985Y-18506380D01*
X166437747Y-18649238D01*
X166342509Y-18744476D01*
X166247271Y-18792095D01*
X167247271Y-19506380D02*
X167247271Y-18506380D01*
X167818700Y-19506380D02*
X167390128Y-18934952D01*
X167818700Y-18506380D02*
X167247271Y-19077809D01*
X171139880Y-29178266D02*
X170663690Y-29511600D01*
X171139880Y-29749695D02*
X170139880Y-29749695D01*
X170139880Y-29368742D01*
X170187500Y-29273504D01*
X170235119Y-29225885D01*
X170330357Y-29178266D01*
X170473214Y-29178266D01*
X170568452Y-29225885D01*
X170616071Y-29273504D01*
X170663690Y-29368742D01*
X170663690Y-29749695D01*
X171139880Y-28225885D02*
X171139880Y-28797314D01*
X171139880Y-28511600D02*
X170139880Y-28511600D01*
X170282738Y-28606838D01*
X170377976Y-28702076D01*
X170425595Y-28797314D01*
X165390128Y-29465580D02*
X164818700Y-29465580D01*
X165104414Y-29465580D02*
X165104414Y-28465580D01*
X165009176Y-28608438D01*
X164913938Y-28703676D01*
X164818700Y-28751295D01*
X165818700Y-29370342D02*
X165866319Y-29417961D01*
X165818700Y-29465580D01*
X165771080Y-29417961D01*
X165818700Y-29370342D01*
X165818700Y-29465580D01*
X166771080Y-28465580D02*
X166294890Y-28465580D01*
X166247271Y-28941771D01*
X166294890Y-28894152D01*
X166390128Y-28846533D01*
X166628223Y-28846533D01*
X166723461Y-28894152D01*
X166771080Y-28941771D01*
X166818700Y-29037009D01*
X166818700Y-29275104D01*
X166771080Y-29370342D01*
X166723461Y-29417961D01*
X166628223Y-29465580D01*
X166390128Y-29465580D01*
X166294890Y-29417961D01*
X166247271Y-29370342D01*
X167247271Y-29465580D02*
X167247271Y-28465580D01*
X167818700Y-29465580D02*
X167390128Y-28894152D01*
X167818700Y-28465580D02*
X167247271Y-29037009D01*
X151817676Y-13101580D02*
X151817676Y-12101580D01*
X152198628Y-12101580D01*
X152293866Y-12149200D01*
X152341485Y-12196819D01*
X152389104Y-12292057D01*
X152389104Y-12434914D01*
X152341485Y-12530152D01*
X152293866Y-12577771D01*
X152198628Y-12625390D01*
X151817676Y-12625390D01*
X153008152Y-12101580D02*
X153198628Y-12101580D01*
X153293866Y-12149200D01*
X153389104Y-12244438D01*
X153436723Y-12434914D01*
X153436723Y-12768247D01*
X153389104Y-12958723D01*
X153293866Y-13053961D01*
X153198628Y-13101580D01*
X153008152Y-13101580D01*
X152912914Y-13053961D01*
X152817676Y-12958723D01*
X152770057Y-12768247D01*
X152770057Y-12434914D01*
X152817676Y-12244438D01*
X152912914Y-12149200D01*
X153008152Y-12101580D01*
X153770057Y-12101580D02*
X154008152Y-13101580D01*
X154198628Y-12387295D01*
X154389104Y-13101580D01*
X154627200Y-12101580D01*
X155008152Y-12577771D02*
X155341485Y-12577771D01*
X155484342Y-13101580D02*
X155008152Y-13101580D01*
X155008152Y-12101580D01*
X155484342Y-12101580D01*
X156484342Y-13101580D02*
X156151009Y-12625390D01*
X155912914Y-13101580D02*
X155912914Y-12101580D01*
X156293866Y-12101580D01*
X156389104Y-12149200D01*
X156436723Y-12196819D01*
X156484342Y-12292057D01*
X156484342Y-12434914D01*
X156436723Y-12530152D01*
X156389104Y-12577771D01*
X156293866Y-12625390D01*
X155912914Y-12625390D01*
X137182071Y-17964623D02*
X137182071Y-18297957D01*
X137705880Y-18297957D02*
X136705880Y-18297957D01*
X136705880Y-17821766D01*
X136705880Y-17440814D02*
X137515404Y-17440814D01*
X137610642Y-17393195D01*
X137658261Y-17345576D01*
X137705880Y-17250338D01*
X137705880Y-17059861D01*
X137658261Y-16964623D01*
X137610642Y-16917004D01*
X137515404Y-16869385D01*
X136705880Y-16869385D01*
X137658261Y-16440814D02*
X137705880Y-16297957D01*
X137705880Y-16059861D01*
X137658261Y-15964623D01*
X137610642Y-15917004D01*
X137515404Y-15869385D01*
X137420166Y-15869385D01*
X137324928Y-15917004D01*
X137277309Y-15964623D01*
X137229690Y-16059861D01*
X137182071Y-16250338D01*
X137134452Y-16345576D01*
X137086833Y-16393195D01*
X136991595Y-16440814D01*
X136896357Y-16440814D01*
X136801119Y-16393195D01*
X136753500Y-16345576D01*
X136705880Y-16250338D01*
X136705880Y-16012242D01*
X136753500Y-15869385D01*
X137182071Y-15440814D02*
X137182071Y-15107480D01*
X137705880Y-14964623D02*
X137705880Y-15440814D01*
X136705880Y-15440814D01*
X136705880Y-14964623D01*
X148550380Y-29009790D02*
X148550380Y-28390742D01*
X148931333Y-28724076D01*
X148931333Y-28581219D01*
X148978952Y-28485980D01*
X149026571Y-28438361D01*
X149121809Y-28390742D01*
X149359904Y-28390742D01*
X149455142Y-28438361D01*
X149502761Y-28485980D01*
X149550380Y-28581219D01*
X149550380Y-28866933D01*
X149502761Y-28962171D01*
X149455142Y-29009790D01*
X149455142Y-27962171D02*
X149502761Y-27914552D01*
X149550380Y-27962171D01*
X149502761Y-28009790D01*
X149455142Y-27962171D01*
X149550380Y-27962171D01*
X148550380Y-27057409D02*
X148550380Y-27247885D01*
X148598000Y-27343123D01*
X148645619Y-27390742D01*
X148788476Y-27485980D01*
X148978952Y-27533600D01*
X149359904Y-27533600D01*
X149455142Y-27485980D01*
X149502761Y-27438361D01*
X149550380Y-27343123D01*
X149550380Y-27152647D01*
X149502761Y-27057409D01*
X149455142Y-27009790D01*
X149359904Y-26962171D01*
X149121809Y-26962171D01*
X149026571Y-27009790D01*
X148978952Y-27057409D01*
X148931333Y-27152647D01*
X148931333Y-27343123D01*
X148978952Y-27438361D01*
X149026571Y-27485980D01*
X149121809Y-27533600D01*
X148550380Y-26676457D02*
X149550380Y-26343123D01*
X148550380Y-26009790D01*
X225512604Y-31991828D02*
X224712604Y-31991828D01*
X224712604Y-31801352D01*
X224750700Y-31687066D01*
X224826890Y-31610876D01*
X224903080Y-31572780D01*
X225055461Y-31534685D01*
X225169747Y-31534685D01*
X225322128Y-31572780D01*
X225398319Y-31610876D01*
X225474509Y-31687066D01*
X225512604Y-31801352D01*
X225512604Y-31991828D01*
X224979271Y-30848971D02*
X225512604Y-30848971D01*
X224674509Y-31039447D02*
X225245938Y-31229923D01*
X225245938Y-30734685D01*
X224712604Y-30506114D02*
X224712604Y-30010876D01*
X225017366Y-30277542D01*
X225017366Y-30163257D01*
X225055461Y-30087066D01*
X225093557Y-30048971D01*
X225169747Y-30010876D01*
X225360223Y-30010876D01*
X225436414Y-30048971D01*
X225474509Y-30087066D01*
X225512604Y-30163257D01*
X225512604Y-30391828D01*
X225474509Y-30468019D01*
X225436414Y-30506114D01*
X222012604Y-31991828D02*
X221212604Y-31991828D01*
X221212604Y-31801352D01*
X221250700Y-31687066D01*
X221326890Y-31610876D01*
X221403080Y-31572780D01*
X221555461Y-31534685D01*
X221669747Y-31534685D01*
X221822128Y-31572780D01*
X221898319Y-31610876D01*
X221974509Y-31687066D01*
X222012604Y-31801352D01*
X222012604Y-31991828D01*
X221479271Y-30848971D02*
X222012604Y-30848971D01*
X221174509Y-31039447D02*
X221745938Y-31229923D01*
X221745938Y-30734685D01*
X221288795Y-30468019D02*
X221250700Y-30429923D01*
X221212604Y-30353733D01*
X221212604Y-30163257D01*
X221250700Y-30087066D01*
X221288795Y-30048971D01*
X221364985Y-30010876D01*
X221441176Y-30010876D01*
X221555461Y-30048971D01*
X222012604Y-30506114D01*
X222012604Y-30010876D01*
X102461864Y-31991828D02*
X101661864Y-31991828D01*
X101661864Y-31801352D01*
X101699960Y-31687066D01*
X101776150Y-31610876D01*
X101852340Y-31572780D01*
X102004721Y-31534685D01*
X102119007Y-31534685D01*
X102271388Y-31572780D01*
X102347579Y-31610876D01*
X102423769Y-31687066D01*
X102461864Y-31801352D01*
X102461864Y-31991828D01*
X101928531Y-30848971D02*
X102461864Y-30848971D01*
X101623769Y-31039447D02*
X102195198Y-31229923D01*
X102195198Y-30734685D01*
X102461864Y-30010876D02*
X102461864Y-30468019D01*
X102461864Y-30239447D02*
X101661864Y-30239447D01*
X101776150Y-30315638D01*
X101852340Y-30391828D01*
X101890436Y-30468019D01*
X99078531Y-31991828D02*
X98278531Y-31991828D01*
X98278531Y-31801352D01*
X98316627Y-31687066D01*
X98392817Y-31610876D01*
X98469007Y-31572780D01*
X98621388Y-31534685D01*
X98735674Y-31534685D01*
X98888055Y-31572780D01*
X98964246Y-31610876D01*
X99040436Y-31687066D01*
X99078531Y-31801352D01*
X99078531Y-31991828D01*
X98545198Y-30848971D02*
X99078531Y-30848971D01*
X98240436Y-31039447D02*
X98811865Y-31229923D01*
X98811865Y-30734685D01*
X98278531Y-30277542D02*
X98278531Y-30201352D01*
X98316627Y-30125161D01*
X98354722Y-30087066D01*
X98430912Y-30048971D01*
X98583293Y-30010876D01*
X98773769Y-30010876D01*
X98926150Y-30048971D01*
X99002341Y-30087066D01*
X99040436Y-30125161D01*
X99078531Y-30201352D01*
X99078531Y-30277542D01*
X99040436Y-30353733D01*
X99002341Y-30391828D01*
X98926150Y-30429923D01*
X98773769Y-30468019D01*
X98583293Y-30468019D01*
X98430912Y-30429923D01*
X98354722Y-30391828D01*
X98316627Y-30353733D01*
X98278531Y-30277542D01*
X82161866Y-31991828D02*
X81361866Y-31991828D01*
X81361866Y-31801352D01*
X81399962Y-31687066D01*
X81476152Y-31610876D01*
X81552342Y-31572780D01*
X81704723Y-31534685D01*
X81819009Y-31534685D01*
X81971390Y-31572780D01*
X82047581Y-31610876D01*
X82123771Y-31687066D01*
X82161866Y-31801352D01*
X82161866Y-31991828D01*
X81361866Y-31268019D02*
X81361866Y-30772780D01*
X81666628Y-31039447D01*
X81666628Y-30925161D01*
X81704723Y-30848971D01*
X81742819Y-30810876D01*
X81819009Y-30772780D01*
X82009485Y-30772780D01*
X82085676Y-30810876D01*
X82123771Y-30848971D01*
X82161866Y-30925161D01*
X82161866Y-31153733D01*
X82123771Y-31229923D01*
X82085676Y-31268019D01*
X81704723Y-30315638D02*
X81666628Y-30391828D01*
X81628533Y-30429923D01*
X81552342Y-30468019D01*
X81514247Y-30468019D01*
X81438057Y-30429923D01*
X81399962Y-30391828D01*
X81361866Y-30315638D01*
X81361866Y-30163257D01*
X81399962Y-30087066D01*
X81438057Y-30048971D01*
X81514247Y-30010876D01*
X81552342Y-30010876D01*
X81628533Y-30048971D01*
X81666628Y-30087066D01*
X81704723Y-30163257D01*
X81704723Y-30315638D01*
X81742819Y-30391828D01*
X81780914Y-30429923D01*
X81857104Y-30468019D01*
X82009485Y-30468019D01*
X82085676Y-30429923D01*
X82123771Y-30391828D01*
X82161866Y-30315638D01*
X82161866Y-30163257D01*
X82123771Y-30087066D01*
X82085676Y-30048971D01*
X82009485Y-30010876D01*
X81857104Y-30010876D01*
X81780914Y-30048971D01*
X81742819Y-30087066D01*
X81704723Y-30163257D01*
X58478535Y-31991828D02*
X57678535Y-31991828D01*
X57678535Y-31801352D01*
X57716631Y-31687066D01*
X57792821Y-31610876D01*
X57869011Y-31572780D01*
X58021392Y-31534685D01*
X58135678Y-31534685D01*
X58288059Y-31572780D01*
X58364250Y-31610876D01*
X58440440Y-31687066D01*
X58478535Y-31801352D01*
X58478535Y-31991828D01*
X57678535Y-31268019D02*
X57678535Y-30772780D01*
X57983297Y-31039447D01*
X57983297Y-30925161D01*
X58021392Y-30848971D01*
X58059488Y-30810876D01*
X58135678Y-30772780D01*
X58326154Y-30772780D01*
X58402345Y-30810876D01*
X58440440Y-30848971D01*
X58478535Y-30925161D01*
X58478535Y-31153733D01*
X58440440Y-31229923D01*
X58402345Y-31268019D01*
X57678535Y-30087066D02*
X57678535Y-30239447D01*
X57716631Y-30315638D01*
X57754726Y-30353733D01*
X57869011Y-30429923D01*
X58021392Y-30468019D01*
X58326154Y-30468019D01*
X58402345Y-30429923D01*
X58440440Y-30391828D01*
X58478535Y-30315638D01*
X58478535Y-30163257D01*
X58440440Y-30087066D01*
X58402345Y-30048971D01*
X58326154Y-30010876D01*
X58135678Y-30010876D01*
X58059488Y-30048971D01*
X58021392Y-30087066D01*
X57983297Y-30163257D01*
X57983297Y-30315638D01*
X58021392Y-30391828D01*
X58059488Y-30429923D01*
X58135678Y-30468019D01*
X48328536Y-31991828D02*
X47528536Y-31991828D01*
X47528536Y-31801352D01*
X47566632Y-31687066D01*
X47642822Y-31610876D01*
X47719012Y-31572780D01*
X47871393Y-31534685D01*
X47985679Y-31534685D01*
X48138060Y-31572780D01*
X48214251Y-31610876D01*
X48290441Y-31687066D01*
X48328536Y-31801352D01*
X48328536Y-31991828D01*
X47528536Y-31268019D02*
X47528536Y-30772780D01*
X47833298Y-31039447D01*
X47833298Y-30925161D01*
X47871393Y-30848971D01*
X47909489Y-30810876D01*
X47985679Y-30772780D01*
X48176155Y-30772780D01*
X48252346Y-30810876D01*
X48290441Y-30848971D01*
X48328536Y-30925161D01*
X48328536Y-31153733D01*
X48290441Y-31229923D01*
X48252346Y-31268019D01*
X47528536Y-30048971D02*
X47528536Y-30429923D01*
X47909489Y-30468019D01*
X47871393Y-30429923D01*
X47833298Y-30353733D01*
X47833298Y-30163257D01*
X47871393Y-30087066D01*
X47909489Y-30048971D01*
X47985679Y-30010876D01*
X48176155Y-30010876D01*
X48252346Y-30048971D01*
X48290441Y-30087066D01*
X48328536Y-30163257D01*
X48328536Y-30353733D01*
X48290441Y-30429923D01*
X48252346Y-30468019D01*
X41561870Y-31991828D02*
X40761870Y-31991828D01*
X40761870Y-31801352D01*
X40799966Y-31687066D01*
X40876156Y-31610876D01*
X40952346Y-31572780D01*
X41104727Y-31534685D01*
X41219013Y-31534685D01*
X41371394Y-31572780D01*
X41447585Y-31610876D01*
X41523775Y-31687066D01*
X41561870Y-31801352D01*
X41561870Y-31991828D01*
X40761870Y-31268019D02*
X40761870Y-30772780D01*
X41066632Y-31039447D01*
X41066632Y-30925161D01*
X41104727Y-30848971D01*
X41142823Y-30810876D01*
X41219013Y-30772780D01*
X41409489Y-30772780D01*
X41485680Y-30810876D01*
X41523775Y-30848971D01*
X41561870Y-30925161D01*
X41561870Y-31153733D01*
X41523775Y-31229923D01*
X41485680Y-31268019D01*
X41028537Y-30087066D02*
X41561870Y-30087066D01*
X40723775Y-30277542D02*
X41295204Y-30468019D01*
X41295204Y-29972780D01*
X239512604Y-31991828D02*
X238712604Y-31991828D01*
X238712604Y-31801352D01*
X238750700Y-31687066D01*
X238826890Y-31610876D01*
X238903080Y-31572780D01*
X239055461Y-31534685D01*
X239169747Y-31534685D01*
X239322128Y-31572780D01*
X239398319Y-31610876D01*
X239474509Y-31687066D01*
X239512604Y-31801352D01*
X239512604Y-31991828D01*
X238712604Y-31268019D02*
X238712604Y-30772780D01*
X239017366Y-31039447D01*
X239017366Y-30925161D01*
X239055461Y-30848971D01*
X239093557Y-30810876D01*
X239169747Y-30772780D01*
X239360223Y-30772780D01*
X239436414Y-30810876D01*
X239474509Y-30848971D01*
X239512604Y-30925161D01*
X239512604Y-31153733D01*
X239474509Y-31229923D01*
X239436414Y-31268019D01*
X238712604Y-30506114D02*
X238712604Y-30010876D01*
X239017366Y-30277542D01*
X239017366Y-30163257D01*
X239055461Y-30087066D01*
X239093557Y-30048971D01*
X239169747Y-30010876D01*
X239360223Y-30010876D01*
X239436414Y-30048971D01*
X239474509Y-30087066D01*
X239512604Y-30163257D01*
X239512604Y-30391828D01*
X239474509Y-30468019D01*
X239436414Y-30506114D01*
X236012604Y-31991828D02*
X235212604Y-31991828D01*
X235212604Y-31801352D01*
X235250700Y-31687066D01*
X235326890Y-31610876D01*
X235403080Y-31572780D01*
X235555461Y-31534685D01*
X235669747Y-31534685D01*
X235822128Y-31572780D01*
X235898319Y-31610876D01*
X235974509Y-31687066D01*
X236012604Y-31801352D01*
X236012604Y-31991828D01*
X235212604Y-31268019D02*
X235212604Y-30772780D01*
X235517366Y-31039447D01*
X235517366Y-30925161D01*
X235555461Y-30848971D01*
X235593557Y-30810876D01*
X235669747Y-30772780D01*
X235860223Y-30772780D01*
X235936414Y-30810876D01*
X235974509Y-30848971D01*
X236012604Y-30925161D01*
X236012604Y-31153733D01*
X235974509Y-31229923D01*
X235936414Y-31268019D01*
X235288795Y-30468019D02*
X235250700Y-30429923D01*
X235212604Y-30353733D01*
X235212604Y-30163257D01*
X235250700Y-30087066D01*
X235288795Y-30048971D01*
X235364985Y-30010876D01*
X235441176Y-30010876D01*
X235555461Y-30048971D01*
X236012604Y-30506114D01*
X236012604Y-30010876D01*
X232512604Y-31991828D02*
X231712604Y-31991828D01*
X231712604Y-31801352D01*
X231750700Y-31687066D01*
X231826890Y-31610876D01*
X231903080Y-31572780D01*
X232055461Y-31534685D01*
X232169747Y-31534685D01*
X232322128Y-31572780D01*
X232398319Y-31610876D01*
X232474509Y-31687066D01*
X232512604Y-31801352D01*
X232512604Y-31991828D01*
X231712604Y-31268019D02*
X231712604Y-30772780D01*
X232017366Y-31039447D01*
X232017366Y-30925161D01*
X232055461Y-30848971D01*
X232093557Y-30810876D01*
X232169747Y-30772780D01*
X232360223Y-30772780D01*
X232436414Y-30810876D01*
X232474509Y-30848971D01*
X232512604Y-30925161D01*
X232512604Y-31153733D01*
X232474509Y-31229923D01*
X232436414Y-31268019D01*
X232512604Y-30010876D02*
X232512604Y-30468019D01*
X232512604Y-30239447D02*
X231712604Y-30239447D01*
X231826890Y-30315638D01*
X231903080Y-30391828D01*
X231941176Y-30468019D01*
X112611863Y-31991828D02*
X111811863Y-31991828D01*
X111811863Y-31801352D01*
X111849959Y-31687066D01*
X111926149Y-31610876D01*
X112002339Y-31572780D01*
X112154720Y-31534685D01*
X112269006Y-31534685D01*
X112421387Y-31572780D01*
X112497578Y-31610876D01*
X112573768Y-31687066D01*
X112611863Y-31801352D01*
X112611863Y-31991828D01*
X111811863Y-31268019D02*
X111811863Y-30772780D01*
X112116625Y-31039447D01*
X112116625Y-30925161D01*
X112154720Y-30848971D01*
X112192816Y-30810876D01*
X112269006Y-30772780D01*
X112459482Y-30772780D01*
X112535673Y-30810876D01*
X112573768Y-30848971D01*
X112611863Y-30925161D01*
X112611863Y-31153733D01*
X112573768Y-31229923D01*
X112535673Y-31268019D01*
X111811863Y-30277542D02*
X111811863Y-30201352D01*
X111849959Y-30125161D01*
X111888054Y-30087066D01*
X111964244Y-30048971D01*
X112116625Y-30010876D01*
X112307101Y-30010876D01*
X112459482Y-30048971D01*
X112535673Y-30087066D01*
X112573768Y-30125161D01*
X112611863Y-30201352D01*
X112611863Y-30277542D01*
X112573768Y-30353733D01*
X112535673Y-30391828D01*
X112459482Y-30429923D01*
X112307101Y-30468019D01*
X112116625Y-30468019D01*
X111964244Y-30429923D01*
X111888054Y-30391828D01*
X111849959Y-30353733D01*
X111811863Y-30277542D01*
X109228530Y-31991828D02*
X108428530Y-31991828D01*
X108428530Y-31801352D01*
X108466626Y-31687066D01*
X108542816Y-31610876D01*
X108619006Y-31572780D01*
X108771387Y-31534685D01*
X108885673Y-31534685D01*
X109038054Y-31572780D01*
X109114245Y-31610876D01*
X109190435Y-31687066D01*
X109228530Y-31801352D01*
X109228530Y-31991828D01*
X108504721Y-31229923D02*
X108466626Y-31191828D01*
X108428530Y-31115638D01*
X108428530Y-30925161D01*
X108466626Y-30848971D01*
X108504721Y-30810876D01*
X108580911Y-30772780D01*
X108657102Y-30772780D01*
X108771387Y-30810876D01*
X109228530Y-31268019D01*
X109228530Y-30772780D01*
X109228530Y-30391828D02*
X109228530Y-30239447D01*
X109190435Y-30163257D01*
X109152340Y-30125161D01*
X109038054Y-30048971D01*
X108885673Y-30010876D01*
X108580911Y-30010876D01*
X108504721Y-30048971D01*
X108466626Y-30087066D01*
X108428530Y-30163257D01*
X108428530Y-30315638D01*
X108466626Y-30391828D01*
X108504721Y-30429923D01*
X108580911Y-30468019D01*
X108771387Y-30468019D01*
X108847578Y-30429923D01*
X108885673Y-30391828D01*
X108923768Y-30315638D01*
X108923768Y-30163257D01*
X108885673Y-30087066D01*
X108847578Y-30048971D01*
X108771387Y-30010876D01*
X105845197Y-31991828D02*
X105045197Y-31991828D01*
X105045197Y-31801352D01*
X105083293Y-31687066D01*
X105159483Y-31610876D01*
X105235673Y-31572780D01*
X105388054Y-31534685D01*
X105502340Y-31534685D01*
X105654721Y-31572780D01*
X105730912Y-31610876D01*
X105807102Y-31687066D01*
X105845197Y-31801352D01*
X105845197Y-31991828D01*
X105121388Y-31229923D02*
X105083293Y-31191828D01*
X105045197Y-31115638D01*
X105045197Y-30925161D01*
X105083293Y-30848971D01*
X105121388Y-30810876D01*
X105197578Y-30772780D01*
X105273769Y-30772780D01*
X105388054Y-30810876D01*
X105845197Y-31268019D01*
X105845197Y-30772780D01*
X105388054Y-30315638D02*
X105349959Y-30391828D01*
X105311864Y-30429923D01*
X105235673Y-30468019D01*
X105197578Y-30468019D01*
X105121388Y-30429923D01*
X105083293Y-30391828D01*
X105045197Y-30315638D01*
X105045197Y-30163257D01*
X105083293Y-30087066D01*
X105121388Y-30048971D01*
X105197578Y-30010876D01*
X105235673Y-30010876D01*
X105311864Y-30048971D01*
X105349959Y-30087066D01*
X105388054Y-30163257D01*
X105388054Y-30315638D01*
X105426150Y-30391828D01*
X105464245Y-30429923D01*
X105540435Y-30468019D01*
X105692816Y-30468019D01*
X105769007Y-30429923D01*
X105807102Y-30391828D01*
X105845197Y-30315638D01*
X105845197Y-30163257D01*
X105807102Y-30087066D01*
X105769007Y-30048971D01*
X105692816Y-30010876D01*
X105540435Y-30010876D01*
X105464245Y-30048971D01*
X105426150Y-30087066D01*
X105388054Y-30163257D01*
X88928532Y-31991828D02*
X88128532Y-31991828D01*
X88128532Y-31801352D01*
X88166628Y-31687066D01*
X88242818Y-31610876D01*
X88319008Y-31572780D01*
X88471389Y-31534685D01*
X88585675Y-31534685D01*
X88738056Y-31572780D01*
X88814247Y-31610876D01*
X88890437Y-31687066D01*
X88928532Y-31801352D01*
X88928532Y-31991828D01*
X88204723Y-31229923D02*
X88166628Y-31191828D01*
X88128532Y-31115638D01*
X88128532Y-30925161D01*
X88166628Y-30848971D01*
X88204723Y-30810876D01*
X88280913Y-30772780D01*
X88357104Y-30772780D01*
X88471389Y-30810876D01*
X88928532Y-31268019D01*
X88928532Y-30772780D01*
X88128532Y-30506114D02*
X88128532Y-29972780D01*
X88928532Y-30315638D01*
X85545199Y-31991828D02*
X84745199Y-31991828D01*
X84745199Y-31801352D01*
X84783295Y-31687066D01*
X84859485Y-31610876D01*
X84935675Y-31572780D01*
X85088056Y-31534685D01*
X85202342Y-31534685D01*
X85354723Y-31572780D01*
X85430914Y-31610876D01*
X85507104Y-31687066D01*
X85545199Y-31801352D01*
X85545199Y-31991828D01*
X84821390Y-31229923D02*
X84783295Y-31191828D01*
X84745199Y-31115638D01*
X84745199Y-30925161D01*
X84783295Y-30848971D01*
X84821390Y-30810876D01*
X84897580Y-30772780D01*
X84973771Y-30772780D01*
X85088056Y-30810876D01*
X85545199Y-31268019D01*
X85545199Y-30772780D01*
X84745199Y-30087066D02*
X84745199Y-30239447D01*
X84783295Y-30315638D01*
X84821390Y-30353733D01*
X84935675Y-30429923D01*
X85088056Y-30468019D01*
X85392818Y-30468019D01*
X85469009Y-30429923D01*
X85507104Y-30391828D01*
X85545199Y-30315638D01*
X85545199Y-30163257D01*
X85507104Y-30087066D01*
X85469009Y-30048971D01*
X85392818Y-30010876D01*
X85202342Y-30010876D01*
X85126152Y-30048971D01*
X85088056Y-30087066D01*
X85049961Y-30163257D01*
X85049961Y-30315638D01*
X85088056Y-30391828D01*
X85126152Y-30429923D01*
X85202342Y-30468019D01*
X65245201Y-31991828D02*
X64445201Y-31991828D01*
X64445201Y-31801352D01*
X64483297Y-31687066D01*
X64559487Y-31610876D01*
X64635677Y-31572780D01*
X64788058Y-31534685D01*
X64902344Y-31534685D01*
X65054725Y-31572780D01*
X65130916Y-31610876D01*
X65207106Y-31687066D01*
X65245201Y-31801352D01*
X65245201Y-31991828D01*
X64521392Y-31229923D02*
X64483297Y-31191828D01*
X64445201Y-31115638D01*
X64445201Y-30925161D01*
X64483297Y-30848971D01*
X64521392Y-30810876D01*
X64597582Y-30772780D01*
X64673773Y-30772780D01*
X64788058Y-30810876D01*
X65245201Y-31268019D01*
X65245201Y-30772780D01*
X64445201Y-30048971D02*
X64445201Y-30429923D01*
X64826154Y-30468019D01*
X64788058Y-30429923D01*
X64749963Y-30353733D01*
X64749963Y-30163257D01*
X64788058Y-30087066D01*
X64826154Y-30048971D01*
X64902344Y-30010876D01*
X65092820Y-30010876D01*
X65169011Y-30048971D01*
X65207106Y-30087066D01*
X65245201Y-30163257D01*
X65245201Y-30353733D01*
X65207106Y-30429923D01*
X65169011Y-30468019D01*
X61861868Y-31991828D02*
X61061868Y-31991828D01*
X61061868Y-31801352D01*
X61099964Y-31687066D01*
X61176154Y-31610876D01*
X61252344Y-31572780D01*
X61404725Y-31534685D01*
X61519011Y-31534685D01*
X61671392Y-31572780D01*
X61747583Y-31610876D01*
X61823773Y-31687066D01*
X61861868Y-31801352D01*
X61861868Y-31991828D01*
X61138059Y-31229923D02*
X61099964Y-31191828D01*
X61061868Y-31115638D01*
X61061868Y-30925161D01*
X61099964Y-30848971D01*
X61138059Y-30810876D01*
X61214249Y-30772780D01*
X61290440Y-30772780D01*
X61404725Y-30810876D01*
X61861868Y-31268019D01*
X61861868Y-30772780D01*
X61328535Y-30087066D02*
X61861868Y-30087066D01*
X61023773Y-30277542D02*
X61595202Y-30468019D01*
X61595202Y-29972780D01*
X44945203Y-31991828D02*
X44145203Y-31991828D01*
X44145203Y-31801352D01*
X44183299Y-31687066D01*
X44259489Y-31610876D01*
X44335679Y-31572780D01*
X44488060Y-31534685D01*
X44602346Y-31534685D01*
X44754727Y-31572780D01*
X44830918Y-31610876D01*
X44907108Y-31687066D01*
X44945203Y-31801352D01*
X44945203Y-31991828D01*
X44221394Y-31229923D02*
X44183299Y-31191828D01*
X44145203Y-31115638D01*
X44145203Y-30925161D01*
X44183299Y-30848971D01*
X44221394Y-30810876D01*
X44297584Y-30772780D01*
X44373775Y-30772780D01*
X44488060Y-30810876D01*
X44945203Y-31268019D01*
X44945203Y-30772780D01*
X44145203Y-30506114D02*
X44145203Y-30010876D01*
X44449965Y-30277542D01*
X44449965Y-30163257D01*
X44488060Y-30087066D01*
X44526156Y-30048971D01*
X44602346Y-30010876D01*
X44792822Y-30010876D01*
X44869013Y-30048971D01*
X44907108Y-30087066D01*
X44945203Y-30163257D01*
X44945203Y-30391828D01*
X44907108Y-30468019D01*
X44869013Y-30506114D01*
X246512604Y-31991828D02*
X245712604Y-31991828D01*
X245712604Y-31801352D01*
X245750700Y-31687066D01*
X245826890Y-31610876D01*
X245903080Y-31572780D01*
X246055461Y-31534685D01*
X246169747Y-31534685D01*
X246322128Y-31572780D01*
X246398319Y-31610876D01*
X246474509Y-31687066D01*
X246512604Y-31801352D01*
X246512604Y-31991828D01*
X245788795Y-31229923D02*
X245750700Y-31191828D01*
X245712604Y-31115638D01*
X245712604Y-30925161D01*
X245750700Y-30848971D01*
X245788795Y-30810876D01*
X245864985Y-30772780D01*
X245941176Y-30772780D01*
X246055461Y-30810876D01*
X246512604Y-31268019D01*
X246512604Y-30772780D01*
X245788795Y-30468019D02*
X245750700Y-30429923D01*
X245712604Y-30353733D01*
X245712604Y-30163257D01*
X245750700Y-30087066D01*
X245788795Y-30048971D01*
X245864985Y-30010876D01*
X245941176Y-30010876D01*
X246055461Y-30048971D01*
X246512604Y-30506114D01*
X246512604Y-30010876D01*
X243012604Y-31991828D02*
X242212604Y-31991828D01*
X242212604Y-31801352D01*
X242250700Y-31687066D01*
X242326890Y-31610876D01*
X242403080Y-31572780D01*
X242555461Y-31534685D01*
X242669747Y-31534685D01*
X242822128Y-31572780D01*
X242898319Y-31610876D01*
X242974509Y-31687066D01*
X243012604Y-31801352D01*
X243012604Y-31991828D01*
X242288795Y-31229923D02*
X242250700Y-31191828D01*
X242212604Y-31115638D01*
X242212604Y-30925161D01*
X242250700Y-30848971D01*
X242288795Y-30810876D01*
X242364985Y-30772780D01*
X242441176Y-30772780D01*
X242555461Y-30810876D01*
X243012604Y-31268019D01*
X243012604Y-30772780D01*
X243012604Y-30010876D02*
X243012604Y-30468019D01*
X243012604Y-30239447D02*
X242212604Y-30239447D01*
X242326890Y-30315638D01*
X242403080Y-30391828D01*
X242441176Y-30468019D01*
X126145195Y-31991828D02*
X125345195Y-31991828D01*
X125345195Y-31801352D01*
X125383291Y-31687066D01*
X125459481Y-31610876D01*
X125535671Y-31572780D01*
X125688052Y-31534685D01*
X125802338Y-31534685D01*
X125954719Y-31572780D01*
X126030910Y-31610876D01*
X126107100Y-31687066D01*
X126145195Y-31801352D01*
X126145195Y-31991828D01*
X125421386Y-31229923D02*
X125383291Y-31191828D01*
X125345195Y-31115638D01*
X125345195Y-30925161D01*
X125383291Y-30848971D01*
X125421386Y-30810876D01*
X125497576Y-30772780D01*
X125573767Y-30772780D01*
X125688052Y-30810876D01*
X126145195Y-31268019D01*
X126145195Y-30772780D01*
X125345195Y-30277542D02*
X125345195Y-30201352D01*
X125383291Y-30125161D01*
X125421386Y-30087066D01*
X125497576Y-30048971D01*
X125649957Y-30010876D01*
X125840433Y-30010876D01*
X125992814Y-30048971D01*
X126069005Y-30087066D01*
X126107100Y-30125161D01*
X126145195Y-30201352D01*
X126145195Y-30277542D01*
X126107100Y-30353733D01*
X126069005Y-30391828D01*
X125992814Y-30429923D01*
X125840433Y-30468019D01*
X125649957Y-30468019D01*
X125497576Y-30429923D01*
X125421386Y-30391828D01*
X125383291Y-30353733D01*
X125345195Y-30277542D01*
X122761862Y-31991828D02*
X121961862Y-31991828D01*
X121961862Y-31801352D01*
X121999958Y-31687066D01*
X122076148Y-31610876D01*
X122152338Y-31572780D01*
X122304719Y-31534685D01*
X122419005Y-31534685D01*
X122571386Y-31572780D01*
X122647577Y-31610876D01*
X122723767Y-31687066D01*
X122761862Y-31801352D01*
X122761862Y-31991828D01*
X122761862Y-30772780D02*
X122761862Y-31229923D01*
X122761862Y-31001352D02*
X121961862Y-31001352D01*
X122076148Y-31077542D01*
X122152338Y-31153733D01*
X122190434Y-31229923D01*
X122761862Y-30391828D02*
X122761862Y-30239447D01*
X122723767Y-30163257D01*
X122685672Y-30125161D01*
X122571386Y-30048971D01*
X122419005Y-30010876D01*
X122114243Y-30010876D01*
X122038053Y-30048971D01*
X121999958Y-30087066D01*
X121961862Y-30163257D01*
X121961862Y-30315638D01*
X121999958Y-30391828D01*
X122038053Y-30429923D01*
X122114243Y-30468019D01*
X122304719Y-30468019D01*
X122380910Y-30429923D01*
X122419005Y-30391828D01*
X122457100Y-30315638D01*
X122457100Y-30163257D01*
X122419005Y-30087066D01*
X122380910Y-30048971D01*
X122304719Y-30010876D01*
X119378529Y-31991828D02*
X118578529Y-31991828D01*
X118578529Y-31801352D01*
X118616625Y-31687066D01*
X118692815Y-31610876D01*
X118769005Y-31572780D01*
X118921386Y-31534685D01*
X119035672Y-31534685D01*
X119188053Y-31572780D01*
X119264244Y-31610876D01*
X119340434Y-31687066D01*
X119378529Y-31801352D01*
X119378529Y-31991828D01*
X119378529Y-30772780D02*
X119378529Y-31229923D01*
X119378529Y-31001352D02*
X118578529Y-31001352D01*
X118692815Y-31077542D01*
X118769005Y-31153733D01*
X118807101Y-31229923D01*
X118921386Y-30315638D02*
X118883291Y-30391828D01*
X118845196Y-30429923D01*
X118769005Y-30468019D01*
X118730910Y-30468019D01*
X118654720Y-30429923D01*
X118616625Y-30391828D01*
X118578529Y-30315638D01*
X118578529Y-30163257D01*
X118616625Y-30087066D01*
X118654720Y-30048971D01*
X118730910Y-30010876D01*
X118769005Y-30010876D01*
X118845196Y-30048971D01*
X118883291Y-30087066D01*
X118921386Y-30163257D01*
X118921386Y-30315638D01*
X118959482Y-30391828D01*
X118997577Y-30429923D01*
X119073767Y-30468019D01*
X119226148Y-30468019D01*
X119302339Y-30429923D01*
X119340434Y-30391828D01*
X119378529Y-30315638D01*
X119378529Y-30163257D01*
X119340434Y-30087066D01*
X119302339Y-30048971D01*
X119226148Y-30010876D01*
X119073767Y-30010876D01*
X118997577Y-30048971D01*
X118959482Y-30087066D01*
X118921386Y-30163257D01*
X115995196Y-31991828D02*
X115195196Y-31991828D01*
X115195196Y-31801352D01*
X115233292Y-31687066D01*
X115309482Y-31610876D01*
X115385672Y-31572780D01*
X115538053Y-31534685D01*
X115652339Y-31534685D01*
X115804720Y-31572780D01*
X115880911Y-31610876D01*
X115957101Y-31687066D01*
X115995196Y-31801352D01*
X115995196Y-31991828D01*
X115995196Y-30772780D02*
X115995196Y-31229923D01*
X115995196Y-31001352D02*
X115195196Y-31001352D01*
X115309482Y-31077542D01*
X115385672Y-31153733D01*
X115423768Y-31229923D01*
X115195196Y-30506114D02*
X115195196Y-29972780D01*
X115995196Y-30315638D01*
X92311865Y-31991828D02*
X91511865Y-31991828D01*
X91511865Y-31801352D01*
X91549961Y-31687066D01*
X91626151Y-31610876D01*
X91702341Y-31572780D01*
X91854722Y-31534685D01*
X91969008Y-31534685D01*
X92121389Y-31572780D01*
X92197580Y-31610876D01*
X92273770Y-31687066D01*
X92311865Y-31801352D01*
X92311865Y-31991828D01*
X92311865Y-30772780D02*
X92311865Y-31229923D01*
X92311865Y-31001352D02*
X91511865Y-31001352D01*
X91626151Y-31077542D01*
X91702341Y-31153733D01*
X91740437Y-31229923D01*
X91511865Y-30087066D02*
X91511865Y-30239447D01*
X91549961Y-30315638D01*
X91588056Y-30353733D01*
X91702341Y-30429923D01*
X91854722Y-30468019D01*
X92159484Y-30468019D01*
X92235675Y-30429923D01*
X92273770Y-30391828D01*
X92311865Y-30315638D01*
X92311865Y-30163257D01*
X92273770Y-30087066D01*
X92235675Y-30048971D01*
X92159484Y-30010876D01*
X91969008Y-30010876D01*
X91892818Y-30048971D01*
X91854722Y-30087066D01*
X91816627Y-30163257D01*
X91816627Y-30315638D01*
X91854722Y-30391828D01*
X91892818Y-30429923D01*
X91969008Y-30468019D01*
X78778533Y-31991828D02*
X77978533Y-31991828D01*
X77978533Y-31801352D01*
X78016629Y-31687066D01*
X78092819Y-31610876D01*
X78169009Y-31572780D01*
X78321390Y-31534685D01*
X78435676Y-31534685D01*
X78588057Y-31572780D01*
X78664248Y-31610876D01*
X78740438Y-31687066D01*
X78778533Y-31801352D01*
X78778533Y-31991828D01*
X78778533Y-30772780D02*
X78778533Y-31229923D01*
X78778533Y-31001352D02*
X77978533Y-31001352D01*
X78092819Y-31077542D01*
X78169009Y-31153733D01*
X78207105Y-31229923D01*
X77978533Y-30048971D02*
X77978533Y-30429923D01*
X78359486Y-30468019D01*
X78321390Y-30429923D01*
X78283295Y-30353733D01*
X78283295Y-30163257D01*
X78321390Y-30087066D01*
X78359486Y-30048971D01*
X78435676Y-30010876D01*
X78626152Y-30010876D01*
X78702343Y-30048971D01*
X78740438Y-30087066D01*
X78778533Y-30163257D01*
X78778533Y-30353733D01*
X78740438Y-30429923D01*
X78702343Y-30468019D01*
X68628534Y-31991828D02*
X67828534Y-31991828D01*
X67828534Y-31801352D01*
X67866630Y-31687066D01*
X67942820Y-31610876D01*
X68019010Y-31572780D01*
X68171391Y-31534685D01*
X68285677Y-31534685D01*
X68438058Y-31572780D01*
X68514249Y-31610876D01*
X68590439Y-31687066D01*
X68628534Y-31801352D01*
X68628534Y-31991828D01*
X68628534Y-30772780D02*
X68628534Y-31229923D01*
X68628534Y-31001352D02*
X67828534Y-31001352D01*
X67942820Y-31077542D01*
X68019010Y-31153733D01*
X68057106Y-31229923D01*
X68095201Y-30087066D02*
X68628534Y-30087066D01*
X67790439Y-30277542D02*
X68361868Y-30468019D01*
X68361868Y-29972780D01*
X55095202Y-31991828D02*
X54295202Y-31991828D01*
X54295202Y-31801352D01*
X54333298Y-31687066D01*
X54409488Y-31610876D01*
X54485678Y-31572780D01*
X54638059Y-31534685D01*
X54752345Y-31534685D01*
X54904726Y-31572780D01*
X54980917Y-31610876D01*
X55057107Y-31687066D01*
X55095202Y-31801352D01*
X55095202Y-31991828D01*
X55095202Y-30772780D02*
X55095202Y-31229923D01*
X55095202Y-31001352D02*
X54295202Y-31001352D01*
X54409488Y-31077542D01*
X54485678Y-31153733D01*
X54523774Y-31229923D01*
X54295202Y-30506114D02*
X54295202Y-30010876D01*
X54599964Y-30277542D01*
X54599964Y-30163257D01*
X54638059Y-30087066D01*
X54676155Y-30048971D01*
X54752345Y-30010876D01*
X54942821Y-30010876D01*
X55019012Y-30048971D01*
X55057107Y-30087066D01*
X55095202Y-30163257D01*
X55095202Y-30391828D01*
X55057107Y-30468019D01*
X55019012Y-30506114D01*
X38178537Y-31991828D02*
X37378537Y-31991828D01*
X37378537Y-31801352D01*
X37416633Y-31687066D01*
X37492823Y-31610876D01*
X37569013Y-31572780D01*
X37721394Y-31534685D01*
X37835680Y-31534685D01*
X37988061Y-31572780D01*
X38064252Y-31610876D01*
X38140442Y-31687066D01*
X38178537Y-31801352D01*
X38178537Y-31991828D01*
X38178537Y-30772780D02*
X38178537Y-31229923D01*
X38178537Y-31001352D02*
X37378537Y-31001352D01*
X37492823Y-31077542D01*
X37569013Y-31153733D01*
X37607109Y-31229923D01*
X37454728Y-30468019D02*
X37416633Y-30429923D01*
X37378537Y-30353733D01*
X37378537Y-30163257D01*
X37416633Y-30087066D01*
X37454728Y-30048971D01*
X37530918Y-30010876D01*
X37607109Y-30010876D01*
X37721394Y-30048971D01*
X38178537Y-30506114D01*
X38178537Y-30010876D01*
X257012604Y-31991828D02*
X256212604Y-31991828D01*
X256212604Y-31801352D01*
X256250700Y-31687066D01*
X256326890Y-31610876D01*
X256403080Y-31572780D01*
X256555461Y-31534685D01*
X256669747Y-31534685D01*
X256822128Y-31572780D01*
X256898319Y-31610876D01*
X256974509Y-31687066D01*
X257012604Y-31801352D01*
X257012604Y-31991828D01*
X257012604Y-30772780D02*
X257012604Y-31229923D01*
X257012604Y-31001352D02*
X256212604Y-31001352D01*
X256326890Y-31077542D01*
X256403080Y-31153733D01*
X256441176Y-31229923D01*
X257012604Y-30010876D02*
X257012604Y-30468019D01*
X257012604Y-30239447D02*
X256212604Y-30239447D01*
X256326890Y-30315638D01*
X256403080Y-30391828D01*
X256441176Y-30468019D01*
X253512604Y-31991828D02*
X252712604Y-31991828D01*
X252712604Y-31801352D01*
X252750700Y-31687066D01*
X252826890Y-31610876D01*
X252903080Y-31572780D01*
X253055461Y-31534685D01*
X253169747Y-31534685D01*
X253322128Y-31572780D01*
X253398319Y-31610876D01*
X253474509Y-31687066D01*
X253512604Y-31801352D01*
X253512604Y-31991828D01*
X253512604Y-30772780D02*
X253512604Y-31229923D01*
X253512604Y-31001352D02*
X252712604Y-31001352D01*
X252826890Y-31077542D01*
X252903080Y-31153733D01*
X252941176Y-31229923D01*
X252712604Y-30277542D02*
X252712604Y-30201352D01*
X252750700Y-30125161D01*
X252788795Y-30087066D01*
X252864985Y-30048971D01*
X253017366Y-30010876D01*
X253207842Y-30010876D01*
X253360223Y-30048971D01*
X253436414Y-30087066D01*
X253474509Y-30125161D01*
X253512604Y-30201352D01*
X253512604Y-30277542D01*
X253474509Y-30353733D01*
X253436414Y-30391828D01*
X253360223Y-30429923D01*
X253207842Y-30468019D01*
X253017366Y-30468019D01*
X252864985Y-30429923D01*
X252788795Y-30391828D01*
X252750700Y-30353733D01*
X252712604Y-30277542D01*
X250012604Y-31610876D02*
X249212604Y-31610876D01*
X249212604Y-31420400D01*
X249250700Y-31306114D01*
X249326890Y-31229923D01*
X249403080Y-31191828D01*
X249555461Y-31153733D01*
X249669747Y-31153733D01*
X249822128Y-31191828D01*
X249898319Y-31229923D01*
X249974509Y-31306114D01*
X250012604Y-31420400D01*
X250012604Y-31610876D01*
X250012604Y-30772780D02*
X250012604Y-30620400D01*
X249974509Y-30544209D01*
X249936414Y-30506114D01*
X249822128Y-30429923D01*
X249669747Y-30391828D01*
X249364985Y-30391828D01*
X249288795Y-30429923D01*
X249250700Y-30468019D01*
X249212604Y-30544209D01*
X249212604Y-30696590D01*
X249250700Y-30772780D01*
X249288795Y-30810876D01*
X249364985Y-30848971D01*
X249555461Y-30848971D01*
X249631652Y-30810876D01*
X249669747Y-30772780D01*
X249707842Y-30696590D01*
X249707842Y-30544209D01*
X249669747Y-30468019D01*
X249631652Y-30429923D01*
X249555461Y-30391828D01*
X218512604Y-31610876D02*
X217712604Y-31610876D01*
X217712604Y-31420400D01*
X217750700Y-31306114D01*
X217826890Y-31229923D01*
X217903080Y-31191828D01*
X218055461Y-31153733D01*
X218169747Y-31153733D01*
X218322128Y-31191828D01*
X218398319Y-31229923D01*
X218474509Y-31306114D01*
X218512604Y-31420400D01*
X218512604Y-31610876D01*
X218055461Y-30696590D02*
X218017366Y-30772780D01*
X217979271Y-30810876D01*
X217903080Y-30848971D01*
X217864985Y-30848971D01*
X217788795Y-30810876D01*
X217750700Y-30772780D01*
X217712604Y-30696590D01*
X217712604Y-30544209D01*
X217750700Y-30468019D01*
X217788795Y-30429923D01*
X217864985Y-30391828D01*
X217903080Y-30391828D01*
X217979271Y-30429923D01*
X218017366Y-30468019D01*
X218055461Y-30544209D01*
X218055461Y-30696590D01*
X218093557Y-30772780D01*
X218131652Y-30810876D01*
X218207842Y-30848971D01*
X218360223Y-30848971D01*
X218436414Y-30810876D01*
X218474509Y-30772780D01*
X218512604Y-30696590D01*
X218512604Y-30544209D01*
X218474509Y-30468019D01*
X218436414Y-30429923D01*
X218360223Y-30391828D01*
X218207842Y-30391828D01*
X218131652Y-30429923D01*
X218093557Y-30468019D01*
X218055461Y-30544209D01*
X136295204Y-31610876D02*
X135495204Y-31610876D01*
X135495204Y-31420400D01*
X135533300Y-31306114D01*
X135609490Y-31229923D01*
X135685680Y-31191828D01*
X135838061Y-31153733D01*
X135952347Y-31153733D01*
X136104728Y-31191828D01*
X136180919Y-31229923D01*
X136257109Y-31306114D01*
X136295204Y-31420400D01*
X136295204Y-31610876D01*
X135495204Y-30887066D02*
X135495204Y-30353733D01*
X136295204Y-30696590D01*
X132911861Y-31610876D02*
X132111861Y-31610876D01*
X132111861Y-31420400D01*
X132149957Y-31306114D01*
X132226147Y-31229923D01*
X132302337Y-31191828D01*
X132454718Y-31153733D01*
X132569004Y-31153733D01*
X132721385Y-31191828D01*
X132797576Y-31229923D01*
X132873766Y-31306114D01*
X132911861Y-31420400D01*
X132911861Y-31610876D01*
X132111861Y-30468019D02*
X132111861Y-30620400D01*
X132149957Y-30696590D01*
X132188052Y-30734685D01*
X132302337Y-30810876D01*
X132454718Y-30848971D01*
X132759480Y-30848971D01*
X132835671Y-30810876D01*
X132873766Y-30772780D01*
X132911861Y-30696590D01*
X132911861Y-30544209D01*
X132873766Y-30468019D01*
X132835671Y-30429923D01*
X132759480Y-30391828D01*
X132569004Y-30391828D01*
X132492814Y-30429923D01*
X132454718Y-30468019D01*
X132416623Y-30544209D01*
X132416623Y-30696590D01*
X132454718Y-30772780D01*
X132492814Y-30810876D01*
X132569004Y-30848971D01*
X129528528Y-31610876D02*
X128728528Y-31610876D01*
X128728528Y-31420400D01*
X128766624Y-31306114D01*
X128842814Y-31229923D01*
X128919004Y-31191828D01*
X129071385Y-31153733D01*
X129185671Y-31153733D01*
X129338052Y-31191828D01*
X129414243Y-31229923D01*
X129490433Y-31306114D01*
X129528528Y-31420400D01*
X129528528Y-31610876D01*
X128728528Y-30429923D02*
X128728528Y-30810876D01*
X129109481Y-30848971D01*
X129071385Y-30810876D01*
X129033290Y-30734685D01*
X129033290Y-30544209D01*
X129071385Y-30468019D01*
X129109481Y-30429923D01*
X129185671Y-30391828D01*
X129376147Y-30391828D01*
X129452338Y-30429923D01*
X129490433Y-30468019D01*
X129528528Y-30544209D01*
X129528528Y-30734685D01*
X129490433Y-30810876D01*
X129452338Y-30848971D01*
X95695198Y-31610876D02*
X94895198Y-31610876D01*
X94895198Y-31420400D01*
X94933294Y-31306114D01*
X95009484Y-31229923D01*
X95085674Y-31191828D01*
X95238055Y-31153733D01*
X95352341Y-31153733D01*
X95504722Y-31191828D01*
X95580913Y-31229923D01*
X95657103Y-31306114D01*
X95695198Y-31420400D01*
X95695198Y-31610876D01*
X95161865Y-30468019D02*
X95695198Y-30468019D01*
X94857103Y-30658495D02*
X95428532Y-30848971D01*
X95428532Y-30353733D01*
X75395200Y-31610876D02*
X74595200Y-31610876D01*
X74595200Y-31420400D01*
X74633296Y-31306114D01*
X74709486Y-31229923D01*
X74785676Y-31191828D01*
X74938057Y-31153733D01*
X75052343Y-31153733D01*
X75204724Y-31191828D01*
X75280915Y-31229923D01*
X75357105Y-31306114D01*
X75395200Y-31420400D01*
X75395200Y-31610876D01*
X74595200Y-30887066D02*
X74595200Y-30391828D01*
X74899962Y-30658495D01*
X74899962Y-30544209D01*
X74938057Y-30468019D01*
X74976153Y-30429923D01*
X75052343Y-30391828D01*
X75242819Y-30391828D01*
X75319010Y-30429923D01*
X75357105Y-30468019D01*
X75395200Y-30544209D01*
X75395200Y-30772780D01*
X75357105Y-30848971D01*
X75319010Y-30887066D01*
X72011867Y-31610876D02*
X71211867Y-31610876D01*
X71211867Y-31420400D01*
X71249963Y-31306114D01*
X71326153Y-31229923D01*
X71402343Y-31191828D01*
X71554724Y-31153733D01*
X71669010Y-31153733D01*
X71821391Y-31191828D01*
X71897582Y-31229923D01*
X71973772Y-31306114D01*
X72011867Y-31420400D01*
X72011867Y-31610876D01*
X71288058Y-30848971D02*
X71249963Y-30810876D01*
X71211867Y-30734685D01*
X71211867Y-30544209D01*
X71249963Y-30468019D01*
X71288058Y-30429923D01*
X71364248Y-30391828D01*
X71440439Y-30391828D01*
X71554724Y-30429923D01*
X72011867Y-30887066D01*
X72011867Y-30391828D01*
X51711869Y-31610876D02*
X50911869Y-31610876D01*
X50911869Y-31420400D01*
X50949965Y-31306114D01*
X51026155Y-31229923D01*
X51102345Y-31191828D01*
X51254726Y-31153733D01*
X51369012Y-31153733D01*
X51521393Y-31191828D01*
X51597584Y-31229923D01*
X51673774Y-31306114D01*
X51711869Y-31420400D01*
X51711869Y-31610876D01*
X51711869Y-30391828D02*
X51711869Y-30848971D01*
X51711869Y-30620400D02*
X50911869Y-30620400D01*
X51026155Y-30696590D01*
X51102345Y-30772780D01*
X51140441Y-30848971D01*
X34795204Y-31610876D02*
X33995204Y-31610876D01*
X33995204Y-31420400D01*
X34033300Y-31306114D01*
X34109490Y-31229923D01*
X34185680Y-31191828D01*
X34338061Y-31153733D01*
X34452347Y-31153733D01*
X34604728Y-31191828D01*
X34680919Y-31229923D01*
X34757109Y-31306114D01*
X34795204Y-31420400D01*
X34795204Y-31610876D01*
X33995204Y-30658495D02*
X33995204Y-30582304D01*
X34033300Y-30506114D01*
X34071395Y-30468019D01*
X34147585Y-30429923D01*
X34299966Y-30391828D01*
X34490442Y-30391828D01*
X34642823Y-30429923D01*
X34719014Y-30468019D01*
X34757109Y-30506114D01*
X34795204Y-30582304D01*
X34795204Y-30658495D01*
X34757109Y-30734685D01*
X34719014Y-30772780D01*
X34642823Y-30810876D01*
X34490442Y-30848971D01*
X34299966Y-30848971D01*
X34147585Y-30810876D01*
X34071395Y-30772780D01*
X34033300Y-30734685D01*
X33995204Y-30658495D01*
M02*
