G04 #@! TF.GenerationSoftware,KiCad,Pcbnew,(5.1.4)-1*
G04 #@! TF.CreationDate,2019-10-29T16:24:30-04:00*
G04 #@! TF.ProjectId,romeo-bottom,726f6d65-6f2d-4626-9f74-746f6d2e6b69,rev?*
G04 #@! TF.SameCoordinates,Original*
G04 #@! TF.FileFunction,Copper,L1,Top*
G04 #@! TF.FilePolarity,Positive*
%FSLAX46Y46*%
G04 Gerber Fmt 4.6, Leading zero omitted, Abs format (unit mm)*
G04 Created by KiCad (PCBNEW (5.1.4)-1) date 2019-10-29 16:24:30*
%MOMM*%
%LPD*%
G04 APERTURE LIST*
%ADD10C,8.600000*%
%ADD11C,4.400000*%
%ADD12C,0.254000*%
G04 APERTURE END LIST*
D10*
X241366999Y-38133400D03*
X49717001Y-38133400D03*
D11*
X227380800Y-91922600D03*
X63703200Y-91922600D03*
X48844200Y-53822600D03*
X242239800Y-53822600D03*
X145504499Y-53822600D03*
X265366999Y-15497599D03*
X265366999Y-29772600D03*
X25717001Y-29772600D03*
X25717001Y-15772600D03*
D12*
G36*
X266022539Y-12482601D02*
G01*
X266561408Y-12534944D01*
X267046132Y-12680812D01*
X267493287Y-12918047D01*
X267885849Y-13237621D01*
X268208862Y-13627355D01*
X268450023Y-14072408D01*
X268600148Y-14555829D01*
X268657001Y-15092077D01*
X268656999Y-107628138D01*
X268604656Y-108167009D01*
X268458788Y-108651732D01*
X268221552Y-109098888D01*
X267901979Y-109491449D01*
X267512243Y-109814463D01*
X267067192Y-110055623D01*
X266583771Y-110205748D01*
X266047529Y-110262600D01*
X25061466Y-110264659D01*
X24522591Y-110212316D01*
X24037868Y-110066448D01*
X23590712Y-109829212D01*
X23198151Y-109509639D01*
X22875137Y-109119903D01*
X22633977Y-108674852D01*
X22483852Y-108191431D01*
X22426999Y-107655183D01*
X22426999Y-91643377D01*
X224545800Y-91643377D01*
X224545800Y-92201823D01*
X224654748Y-92749539D01*
X224868456Y-93265476D01*
X225178712Y-93729807D01*
X225573593Y-94124688D01*
X226037924Y-94434944D01*
X226553861Y-94648652D01*
X227101577Y-94757600D01*
X227660023Y-94757600D01*
X228207739Y-94648652D01*
X228723676Y-94434944D01*
X229188007Y-94124688D01*
X229582888Y-93729807D01*
X229893144Y-93265476D01*
X230106852Y-92749539D01*
X230215800Y-92201823D01*
X230215800Y-91643377D01*
X230106852Y-91095661D01*
X229893144Y-90579724D01*
X229582888Y-90115393D01*
X229188007Y-89720512D01*
X228723676Y-89410256D01*
X228207739Y-89196548D01*
X227660023Y-89087600D01*
X227101577Y-89087600D01*
X226553861Y-89196548D01*
X226037924Y-89410256D01*
X225573593Y-89720512D01*
X225178712Y-90115393D01*
X224868456Y-90579724D01*
X224654748Y-91095661D01*
X224545800Y-91643377D01*
X22426999Y-91643377D01*
X22426999Y-53543377D01*
X46009200Y-53543377D01*
X46009200Y-54101823D01*
X46118148Y-54649539D01*
X46331856Y-55165476D01*
X46642112Y-55629807D01*
X47036993Y-56024688D01*
X47501324Y-56334944D01*
X48017261Y-56548652D01*
X48564977Y-56657600D01*
X49123423Y-56657600D01*
X49671139Y-56548652D01*
X50187076Y-56334944D01*
X50651407Y-56024688D01*
X51046288Y-55629807D01*
X51356544Y-55165476D01*
X51570252Y-54649539D01*
X51679200Y-54101823D01*
X51679200Y-53543377D01*
X142669499Y-53543377D01*
X142669499Y-54101823D01*
X142778447Y-54649539D01*
X142992155Y-55165476D01*
X143302411Y-55629807D01*
X143697292Y-56024688D01*
X144161623Y-56334944D01*
X144677560Y-56548652D01*
X145225276Y-56657600D01*
X145783722Y-56657600D01*
X146331438Y-56548652D01*
X146847375Y-56334944D01*
X147311706Y-56024688D01*
X147706587Y-55629807D01*
X148016843Y-55165476D01*
X148230551Y-54649539D01*
X148339499Y-54101823D01*
X148339499Y-53543377D01*
X239404800Y-53543377D01*
X239404800Y-54101823D01*
X239513748Y-54649539D01*
X239727456Y-55165476D01*
X240037712Y-55629807D01*
X240432593Y-56024688D01*
X240896924Y-56334944D01*
X241412861Y-56548652D01*
X241960577Y-56657600D01*
X242519023Y-56657600D01*
X243066739Y-56548652D01*
X243582676Y-56334944D01*
X244047007Y-56024688D01*
X244441888Y-55629807D01*
X244752144Y-55165476D01*
X244965852Y-54649539D01*
X245074800Y-54101823D01*
X245074800Y-53543377D01*
X244965852Y-52995661D01*
X244752144Y-52479724D01*
X244441888Y-52015393D01*
X244047007Y-51620512D01*
X243582676Y-51310256D01*
X243066739Y-51096548D01*
X242519023Y-50987600D01*
X241960577Y-50987600D01*
X241412861Y-51096548D01*
X240896924Y-51310256D01*
X240432593Y-51620512D01*
X240037712Y-52015393D01*
X239727456Y-52479724D01*
X239513748Y-52995661D01*
X239404800Y-53543377D01*
X148339499Y-53543377D01*
X148230551Y-52995661D01*
X148016843Y-52479724D01*
X147706587Y-52015393D01*
X147311706Y-51620512D01*
X146847375Y-51310256D01*
X146331438Y-51096548D01*
X145783722Y-50987600D01*
X145225276Y-50987600D01*
X144677560Y-51096548D01*
X144161623Y-51310256D01*
X143697292Y-51620512D01*
X143302411Y-52015393D01*
X142992155Y-52479724D01*
X142778447Y-52995661D01*
X142669499Y-53543377D01*
X51679200Y-53543377D01*
X51570252Y-52995661D01*
X51356544Y-52479724D01*
X51046288Y-52015393D01*
X50651407Y-51620512D01*
X50187076Y-51310256D01*
X49671139Y-51096548D01*
X49123423Y-50987600D01*
X48564977Y-50987600D01*
X48017261Y-51096548D01*
X47501324Y-51310256D01*
X47036993Y-51620512D01*
X46642112Y-52015393D01*
X46331856Y-52479724D01*
X46118148Y-52995661D01*
X46009200Y-53543377D01*
X22426999Y-53543377D01*
X22426999Y-37647345D01*
X44782001Y-37647345D01*
X44782001Y-38619455D01*
X44971651Y-39572886D01*
X45343661Y-40470999D01*
X45883736Y-41279279D01*
X46571122Y-41966665D01*
X47379402Y-42506740D01*
X48277515Y-42878750D01*
X49230946Y-43068400D01*
X50203056Y-43068400D01*
X51156487Y-42878750D01*
X52054600Y-42506740D01*
X52862880Y-41966665D01*
X53550266Y-41279279D01*
X54090341Y-40470999D01*
X54462351Y-39572886D01*
X54652001Y-38619455D01*
X54652001Y-37647345D01*
X236431999Y-37647345D01*
X236431999Y-38619455D01*
X236621649Y-39572886D01*
X236993659Y-40470999D01*
X237533734Y-41279279D01*
X238221120Y-41966665D01*
X239029400Y-42506740D01*
X239927513Y-42878750D01*
X240880944Y-43068400D01*
X241853054Y-43068400D01*
X242806485Y-42878750D01*
X243704598Y-42506740D01*
X244512878Y-41966665D01*
X245200264Y-41279279D01*
X245740339Y-40470999D01*
X246112349Y-39572886D01*
X246301999Y-38619455D01*
X246301999Y-37647345D01*
X246112349Y-36693914D01*
X245740339Y-35795801D01*
X245200264Y-34987521D01*
X244512878Y-34300135D01*
X243704598Y-33760060D01*
X242806485Y-33388050D01*
X241853054Y-33198400D01*
X240880944Y-33198400D01*
X239927513Y-33388050D01*
X239029400Y-33760060D01*
X238221120Y-34300135D01*
X237533734Y-34987521D01*
X236993659Y-35795801D01*
X236621649Y-36693914D01*
X236431999Y-37647345D01*
X54652001Y-37647345D01*
X54462351Y-36693914D01*
X54090341Y-35795801D01*
X53550266Y-34987521D01*
X52862880Y-34300135D01*
X52054600Y-33760060D01*
X51156487Y-33388050D01*
X50203056Y-33198400D01*
X49230946Y-33198400D01*
X48277515Y-33388050D01*
X47379402Y-33760060D01*
X46571122Y-34300135D01*
X45883736Y-34987521D01*
X45343661Y-35795801D01*
X44971651Y-36693914D01*
X44782001Y-37647345D01*
X22426999Y-37647345D01*
X22427000Y-29493377D01*
X22882001Y-29493377D01*
X22882001Y-30051823D01*
X22990949Y-30599539D01*
X23204657Y-31115476D01*
X23514913Y-31579807D01*
X23909794Y-31974688D01*
X24374125Y-32284944D01*
X24890062Y-32498652D01*
X25437778Y-32607600D01*
X25996224Y-32607600D01*
X26543940Y-32498652D01*
X27059877Y-32284944D01*
X27524208Y-31974688D01*
X27919089Y-31579807D01*
X28229345Y-31115476D01*
X28443053Y-30599539D01*
X28552001Y-30051823D01*
X28552001Y-29493377D01*
X262531999Y-29493377D01*
X262531999Y-30051823D01*
X262640947Y-30599539D01*
X262854655Y-31115476D01*
X263164911Y-31579807D01*
X263559792Y-31974688D01*
X264024123Y-32284944D01*
X264540060Y-32498652D01*
X265087776Y-32607600D01*
X265646222Y-32607600D01*
X266193938Y-32498652D01*
X266709875Y-32284944D01*
X267174206Y-31974688D01*
X267569087Y-31579807D01*
X267879343Y-31115476D01*
X268093051Y-30599539D01*
X268201999Y-30051823D01*
X268201999Y-29493377D01*
X268093051Y-28945661D01*
X267879343Y-28429724D01*
X267569087Y-27965393D01*
X267174206Y-27570512D01*
X266709875Y-27260256D01*
X266193938Y-27046548D01*
X265646222Y-26937600D01*
X265087776Y-26937600D01*
X264540060Y-27046548D01*
X264024123Y-27260256D01*
X263559792Y-27570512D01*
X263164911Y-27965393D01*
X262854655Y-28429724D01*
X262640947Y-28945661D01*
X262531999Y-29493377D01*
X28552001Y-29493377D01*
X28443053Y-28945661D01*
X28229345Y-28429724D01*
X27919089Y-27965393D01*
X27524208Y-27570512D01*
X27059877Y-27260256D01*
X26543940Y-27046548D01*
X25996224Y-26937600D01*
X25437778Y-26937600D01*
X24890062Y-27046548D01*
X24374125Y-27260256D01*
X23909794Y-27570512D01*
X23514913Y-27965393D01*
X23204657Y-28429724D01*
X22990949Y-28945661D01*
X22882001Y-29493377D01*
X22427000Y-29493377D01*
X22427000Y-15493377D01*
X22882001Y-15493377D01*
X22882001Y-16051823D01*
X22990949Y-16599539D01*
X23204657Y-17115476D01*
X23514913Y-17579807D01*
X23909794Y-17974688D01*
X24374125Y-18284944D01*
X24890062Y-18498652D01*
X25437778Y-18607600D01*
X25996224Y-18607600D01*
X26543940Y-18498652D01*
X27059877Y-18284944D01*
X27524208Y-17974688D01*
X27919089Y-17579807D01*
X28229345Y-17115476D01*
X28443053Y-16599539D01*
X28552001Y-16051823D01*
X28552001Y-15493377D01*
X28497300Y-15218376D01*
X262531999Y-15218376D01*
X262531999Y-15776822D01*
X262640947Y-16324538D01*
X262854655Y-16840475D01*
X263164911Y-17304806D01*
X263559792Y-17699687D01*
X264024123Y-18009943D01*
X264540060Y-18223651D01*
X265087776Y-18332599D01*
X265646222Y-18332599D01*
X266193938Y-18223651D01*
X266709875Y-18009943D01*
X267174206Y-17699687D01*
X267569087Y-17304806D01*
X267879343Y-16840475D01*
X268093051Y-16324538D01*
X268201999Y-15776822D01*
X268201999Y-15218376D01*
X268093051Y-14670660D01*
X267879343Y-14154723D01*
X267569087Y-13690392D01*
X267174206Y-13295511D01*
X266709875Y-12985255D01*
X266193938Y-12771547D01*
X265646222Y-12662599D01*
X265087776Y-12662599D01*
X264540060Y-12771547D01*
X264024123Y-12985255D01*
X263559792Y-13295511D01*
X263164911Y-13690392D01*
X262854655Y-14154723D01*
X262640947Y-14670660D01*
X262531999Y-15218376D01*
X28497300Y-15218376D01*
X28443053Y-14945661D01*
X28229345Y-14429724D01*
X27919089Y-13965393D01*
X27524208Y-13570512D01*
X27059877Y-13260256D01*
X26543940Y-13046548D01*
X25996224Y-12937600D01*
X25437778Y-12937600D01*
X24890062Y-13046548D01*
X24374125Y-13260256D01*
X23909794Y-13570512D01*
X23514913Y-13965393D01*
X23204657Y-14429724D01*
X22990949Y-14945661D01*
X22882001Y-15493377D01*
X22427000Y-15493377D01*
X22427001Y-15117061D01*
X22479344Y-14578192D01*
X22625212Y-14093468D01*
X22862447Y-13646313D01*
X23182021Y-13253751D01*
X23571755Y-12930738D01*
X24016808Y-12689577D01*
X24500229Y-12539452D01*
X25036477Y-12482599D01*
X266022539Y-12482601D01*
X266022539Y-12482601D01*
G37*
X266022539Y-12482601D02*
X266561408Y-12534944D01*
X267046132Y-12680812D01*
X267493287Y-12918047D01*
X267885849Y-13237621D01*
X268208862Y-13627355D01*
X268450023Y-14072408D01*
X268600148Y-14555829D01*
X268657001Y-15092077D01*
X268656999Y-107628138D01*
X268604656Y-108167009D01*
X268458788Y-108651732D01*
X268221552Y-109098888D01*
X267901979Y-109491449D01*
X267512243Y-109814463D01*
X267067192Y-110055623D01*
X266583771Y-110205748D01*
X266047529Y-110262600D01*
X25061466Y-110264659D01*
X24522591Y-110212316D01*
X24037868Y-110066448D01*
X23590712Y-109829212D01*
X23198151Y-109509639D01*
X22875137Y-109119903D01*
X22633977Y-108674852D01*
X22483852Y-108191431D01*
X22426999Y-107655183D01*
X22426999Y-91643377D01*
X224545800Y-91643377D01*
X224545800Y-92201823D01*
X224654748Y-92749539D01*
X224868456Y-93265476D01*
X225178712Y-93729807D01*
X225573593Y-94124688D01*
X226037924Y-94434944D01*
X226553861Y-94648652D01*
X227101577Y-94757600D01*
X227660023Y-94757600D01*
X228207739Y-94648652D01*
X228723676Y-94434944D01*
X229188007Y-94124688D01*
X229582888Y-93729807D01*
X229893144Y-93265476D01*
X230106852Y-92749539D01*
X230215800Y-92201823D01*
X230215800Y-91643377D01*
X230106852Y-91095661D01*
X229893144Y-90579724D01*
X229582888Y-90115393D01*
X229188007Y-89720512D01*
X228723676Y-89410256D01*
X228207739Y-89196548D01*
X227660023Y-89087600D01*
X227101577Y-89087600D01*
X226553861Y-89196548D01*
X226037924Y-89410256D01*
X225573593Y-89720512D01*
X225178712Y-90115393D01*
X224868456Y-90579724D01*
X224654748Y-91095661D01*
X224545800Y-91643377D01*
X22426999Y-91643377D01*
X22426999Y-53543377D01*
X46009200Y-53543377D01*
X46009200Y-54101823D01*
X46118148Y-54649539D01*
X46331856Y-55165476D01*
X46642112Y-55629807D01*
X47036993Y-56024688D01*
X47501324Y-56334944D01*
X48017261Y-56548652D01*
X48564977Y-56657600D01*
X49123423Y-56657600D01*
X49671139Y-56548652D01*
X50187076Y-56334944D01*
X50651407Y-56024688D01*
X51046288Y-55629807D01*
X51356544Y-55165476D01*
X51570252Y-54649539D01*
X51679200Y-54101823D01*
X51679200Y-53543377D01*
X142669499Y-53543377D01*
X142669499Y-54101823D01*
X142778447Y-54649539D01*
X142992155Y-55165476D01*
X143302411Y-55629807D01*
X143697292Y-56024688D01*
X144161623Y-56334944D01*
X144677560Y-56548652D01*
X145225276Y-56657600D01*
X145783722Y-56657600D01*
X146331438Y-56548652D01*
X146847375Y-56334944D01*
X147311706Y-56024688D01*
X147706587Y-55629807D01*
X148016843Y-55165476D01*
X148230551Y-54649539D01*
X148339499Y-54101823D01*
X148339499Y-53543377D01*
X239404800Y-53543377D01*
X239404800Y-54101823D01*
X239513748Y-54649539D01*
X239727456Y-55165476D01*
X240037712Y-55629807D01*
X240432593Y-56024688D01*
X240896924Y-56334944D01*
X241412861Y-56548652D01*
X241960577Y-56657600D01*
X242519023Y-56657600D01*
X243066739Y-56548652D01*
X243582676Y-56334944D01*
X244047007Y-56024688D01*
X244441888Y-55629807D01*
X244752144Y-55165476D01*
X244965852Y-54649539D01*
X245074800Y-54101823D01*
X245074800Y-53543377D01*
X244965852Y-52995661D01*
X244752144Y-52479724D01*
X244441888Y-52015393D01*
X244047007Y-51620512D01*
X243582676Y-51310256D01*
X243066739Y-51096548D01*
X242519023Y-50987600D01*
X241960577Y-50987600D01*
X241412861Y-51096548D01*
X240896924Y-51310256D01*
X240432593Y-51620512D01*
X240037712Y-52015393D01*
X239727456Y-52479724D01*
X239513748Y-52995661D01*
X239404800Y-53543377D01*
X148339499Y-53543377D01*
X148230551Y-52995661D01*
X148016843Y-52479724D01*
X147706587Y-52015393D01*
X147311706Y-51620512D01*
X146847375Y-51310256D01*
X146331438Y-51096548D01*
X145783722Y-50987600D01*
X145225276Y-50987600D01*
X144677560Y-51096548D01*
X144161623Y-51310256D01*
X143697292Y-51620512D01*
X143302411Y-52015393D01*
X142992155Y-52479724D01*
X142778447Y-52995661D01*
X142669499Y-53543377D01*
X51679200Y-53543377D01*
X51570252Y-52995661D01*
X51356544Y-52479724D01*
X51046288Y-52015393D01*
X50651407Y-51620512D01*
X50187076Y-51310256D01*
X49671139Y-51096548D01*
X49123423Y-50987600D01*
X48564977Y-50987600D01*
X48017261Y-51096548D01*
X47501324Y-51310256D01*
X47036993Y-51620512D01*
X46642112Y-52015393D01*
X46331856Y-52479724D01*
X46118148Y-52995661D01*
X46009200Y-53543377D01*
X22426999Y-53543377D01*
X22426999Y-37647345D01*
X44782001Y-37647345D01*
X44782001Y-38619455D01*
X44971651Y-39572886D01*
X45343661Y-40470999D01*
X45883736Y-41279279D01*
X46571122Y-41966665D01*
X47379402Y-42506740D01*
X48277515Y-42878750D01*
X49230946Y-43068400D01*
X50203056Y-43068400D01*
X51156487Y-42878750D01*
X52054600Y-42506740D01*
X52862880Y-41966665D01*
X53550266Y-41279279D01*
X54090341Y-40470999D01*
X54462351Y-39572886D01*
X54652001Y-38619455D01*
X54652001Y-37647345D01*
X236431999Y-37647345D01*
X236431999Y-38619455D01*
X236621649Y-39572886D01*
X236993659Y-40470999D01*
X237533734Y-41279279D01*
X238221120Y-41966665D01*
X239029400Y-42506740D01*
X239927513Y-42878750D01*
X240880944Y-43068400D01*
X241853054Y-43068400D01*
X242806485Y-42878750D01*
X243704598Y-42506740D01*
X244512878Y-41966665D01*
X245200264Y-41279279D01*
X245740339Y-40470999D01*
X246112349Y-39572886D01*
X246301999Y-38619455D01*
X246301999Y-37647345D01*
X246112349Y-36693914D01*
X245740339Y-35795801D01*
X245200264Y-34987521D01*
X244512878Y-34300135D01*
X243704598Y-33760060D01*
X242806485Y-33388050D01*
X241853054Y-33198400D01*
X240880944Y-33198400D01*
X239927513Y-33388050D01*
X239029400Y-33760060D01*
X238221120Y-34300135D01*
X237533734Y-34987521D01*
X236993659Y-35795801D01*
X236621649Y-36693914D01*
X236431999Y-37647345D01*
X54652001Y-37647345D01*
X54462351Y-36693914D01*
X54090341Y-35795801D01*
X53550266Y-34987521D01*
X52862880Y-34300135D01*
X52054600Y-33760060D01*
X51156487Y-33388050D01*
X50203056Y-33198400D01*
X49230946Y-33198400D01*
X48277515Y-33388050D01*
X47379402Y-33760060D01*
X46571122Y-34300135D01*
X45883736Y-34987521D01*
X45343661Y-35795801D01*
X44971651Y-36693914D01*
X44782001Y-37647345D01*
X22426999Y-37647345D01*
X22427000Y-29493377D01*
X22882001Y-29493377D01*
X22882001Y-30051823D01*
X22990949Y-30599539D01*
X23204657Y-31115476D01*
X23514913Y-31579807D01*
X23909794Y-31974688D01*
X24374125Y-32284944D01*
X24890062Y-32498652D01*
X25437778Y-32607600D01*
X25996224Y-32607600D01*
X26543940Y-32498652D01*
X27059877Y-32284944D01*
X27524208Y-31974688D01*
X27919089Y-31579807D01*
X28229345Y-31115476D01*
X28443053Y-30599539D01*
X28552001Y-30051823D01*
X28552001Y-29493377D01*
X262531999Y-29493377D01*
X262531999Y-30051823D01*
X262640947Y-30599539D01*
X262854655Y-31115476D01*
X263164911Y-31579807D01*
X263559792Y-31974688D01*
X264024123Y-32284944D01*
X264540060Y-32498652D01*
X265087776Y-32607600D01*
X265646222Y-32607600D01*
X266193938Y-32498652D01*
X266709875Y-32284944D01*
X267174206Y-31974688D01*
X267569087Y-31579807D01*
X267879343Y-31115476D01*
X268093051Y-30599539D01*
X268201999Y-30051823D01*
X268201999Y-29493377D01*
X268093051Y-28945661D01*
X267879343Y-28429724D01*
X267569087Y-27965393D01*
X267174206Y-27570512D01*
X266709875Y-27260256D01*
X266193938Y-27046548D01*
X265646222Y-26937600D01*
X265087776Y-26937600D01*
X264540060Y-27046548D01*
X264024123Y-27260256D01*
X263559792Y-27570512D01*
X263164911Y-27965393D01*
X262854655Y-28429724D01*
X262640947Y-28945661D01*
X262531999Y-29493377D01*
X28552001Y-29493377D01*
X28443053Y-28945661D01*
X28229345Y-28429724D01*
X27919089Y-27965393D01*
X27524208Y-27570512D01*
X27059877Y-27260256D01*
X26543940Y-27046548D01*
X25996224Y-26937600D01*
X25437778Y-26937600D01*
X24890062Y-27046548D01*
X24374125Y-27260256D01*
X23909794Y-27570512D01*
X23514913Y-27965393D01*
X23204657Y-28429724D01*
X22990949Y-28945661D01*
X22882001Y-29493377D01*
X22427000Y-29493377D01*
X22427000Y-15493377D01*
X22882001Y-15493377D01*
X22882001Y-16051823D01*
X22990949Y-16599539D01*
X23204657Y-17115476D01*
X23514913Y-17579807D01*
X23909794Y-17974688D01*
X24374125Y-18284944D01*
X24890062Y-18498652D01*
X25437778Y-18607600D01*
X25996224Y-18607600D01*
X26543940Y-18498652D01*
X27059877Y-18284944D01*
X27524208Y-17974688D01*
X27919089Y-17579807D01*
X28229345Y-17115476D01*
X28443053Y-16599539D01*
X28552001Y-16051823D01*
X28552001Y-15493377D01*
X28497300Y-15218376D01*
X262531999Y-15218376D01*
X262531999Y-15776822D01*
X262640947Y-16324538D01*
X262854655Y-16840475D01*
X263164911Y-17304806D01*
X263559792Y-17699687D01*
X264024123Y-18009943D01*
X264540060Y-18223651D01*
X265087776Y-18332599D01*
X265646222Y-18332599D01*
X266193938Y-18223651D01*
X266709875Y-18009943D01*
X267174206Y-17699687D01*
X267569087Y-17304806D01*
X267879343Y-16840475D01*
X268093051Y-16324538D01*
X268201999Y-15776822D01*
X268201999Y-15218376D01*
X268093051Y-14670660D01*
X267879343Y-14154723D01*
X267569087Y-13690392D01*
X267174206Y-13295511D01*
X266709875Y-12985255D01*
X266193938Y-12771547D01*
X265646222Y-12662599D01*
X265087776Y-12662599D01*
X264540060Y-12771547D01*
X264024123Y-12985255D01*
X263559792Y-13295511D01*
X263164911Y-13690392D01*
X262854655Y-14154723D01*
X262640947Y-14670660D01*
X262531999Y-15218376D01*
X28497300Y-15218376D01*
X28443053Y-14945661D01*
X28229345Y-14429724D01*
X27919089Y-13965393D01*
X27524208Y-13570512D01*
X27059877Y-13260256D01*
X26543940Y-13046548D01*
X25996224Y-12937600D01*
X25437778Y-12937600D01*
X24890062Y-13046548D01*
X24374125Y-13260256D01*
X23909794Y-13570512D01*
X23514913Y-13965393D01*
X23204657Y-14429724D01*
X22990949Y-14945661D01*
X22882001Y-15493377D01*
X22427000Y-15493377D01*
X22427001Y-15117061D01*
X22479344Y-14578192D01*
X22625212Y-14093468D01*
X22862447Y-13646313D01*
X23182021Y-13253751D01*
X23571755Y-12930738D01*
X24016808Y-12689577D01*
X24500229Y-12539452D01*
X25036477Y-12482599D01*
X266022539Y-12482601D01*
M02*
