G04 #@! TF.GenerationSoftware,KiCad,Pcbnew,(5.1.4)-1*
G04 #@! TF.CreationDate,2019-10-29T16:24:30-04:00*
G04 #@! TF.ProjectId,romeo-bottom,726f6d65-6f2d-4626-9f74-746f6d2e6b69,rev?*
G04 #@! TF.SameCoordinates,Original*
G04 #@! TF.FileFunction,Soldermask,Top*
G04 #@! TF.FilePolarity,Negative*
%FSLAX46Y46*%
G04 Gerber Fmt 4.6, Leading zero omitted, Abs format (unit mm)*
G04 Created by KiCad (PCBNEW (5.1.4)-1) date 2019-10-29 16:24:30*
%MOMM*%
%LPD*%
G04 APERTURE LIST*
%ADD10C,2.000000*%
G04 APERTURE END LIST*
D10*
G36*
X63979080Y-89682376D02*
G01*
X64359793Y-89758104D01*
X64769449Y-89927789D01*
X65138129Y-90174134D01*
X65451666Y-90487671D01*
X65698011Y-90856351D01*
X65867696Y-91266007D01*
X65954200Y-91700896D01*
X65954200Y-92144304D01*
X65867696Y-92579193D01*
X65698011Y-92988849D01*
X65451666Y-93357529D01*
X65138129Y-93671066D01*
X64769449Y-93917411D01*
X64359793Y-94087096D01*
X63979080Y-94162824D01*
X63924905Y-94173600D01*
X63481495Y-94173600D01*
X63427320Y-94162824D01*
X63046607Y-94087096D01*
X62636951Y-93917411D01*
X62268271Y-93671066D01*
X61954734Y-93357529D01*
X61708389Y-92988849D01*
X61538704Y-92579193D01*
X61452200Y-92144304D01*
X61452200Y-91700896D01*
X61538704Y-91266007D01*
X61708389Y-90856351D01*
X61954734Y-90487671D01*
X62268271Y-90174134D01*
X62636951Y-89927789D01*
X63046607Y-89758104D01*
X63427320Y-89682376D01*
X63481495Y-89671600D01*
X63924905Y-89671600D01*
X63979080Y-89682376D01*
X63979080Y-89682376D01*
G37*
G36*
X227656680Y-89682376D02*
G01*
X228037393Y-89758104D01*
X228447049Y-89927789D01*
X228815729Y-90174134D01*
X229129266Y-90487671D01*
X229375611Y-90856351D01*
X229545296Y-91266007D01*
X229631800Y-91700896D01*
X229631800Y-92144304D01*
X229545296Y-92579193D01*
X229375611Y-92988849D01*
X229129266Y-93357529D01*
X228815729Y-93671066D01*
X228447049Y-93917411D01*
X228037393Y-94087096D01*
X227656680Y-94162824D01*
X227602505Y-94173600D01*
X227159095Y-94173600D01*
X227104920Y-94162824D01*
X226724207Y-94087096D01*
X226314551Y-93917411D01*
X225945871Y-93671066D01*
X225632334Y-93357529D01*
X225385989Y-92988849D01*
X225216304Y-92579193D01*
X225129800Y-92144304D01*
X225129800Y-91700896D01*
X225216304Y-91266007D01*
X225385989Y-90856351D01*
X225632334Y-90487671D01*
X225945871Y-90174134D01*
X226314551Y-89927789D01*
X226724207Y-89758104D01*
X227104920Y-89682376D01*
X227159095Y-89671600D01*
X227602505Y-89671600D01*
X227656680Y-89682376D01*
X227656680Y-89682376D01*
G37*
G36*
X242515680Y-51582376D02*
G01*
X242896393Y-51658104D01*
X243306049Y-51827789D01*
X243674729Y-52074134D01*
X243988266Y-52387671D01*
X244234611Y-52756351D01*
X244404296Y-53166007D01*
X244490800Y-53600896D01*
X244490800Y-54044304D01*
X244404296Y-54479193D01*
X244234611Y-54888849D01*
X243988266Y-55257529D01*
X243674729Y-55571066D01*
X243306049Y-55817411D01*
X242896393Y-55987096D01*
X242515680Y-56062824D01*
X242461505Y-56073600D01*
X242018095Y-56073600D01*
X241963920Y-56062824D01*
X241583207Y-55987096D01*
X241173551Y-55817411D01*
X240804871Y-55571066D01*
X240491334Y-55257529D01*
X240244989Y-54888849D01*
X240075304Y-54479193D01*
X239988800Y-54044304D01*
X239988800Y-53600896D01*
X240075304Y-53166007D01*
X240244989Y-52756351D01*
X240491334Y-52387671D01*
X240804871Y-52074134D01*
X241173551Y-51827789D01*
X241583207Y-51658104D01*
X241963920Y-51582376D01*
X242018095Y-51571600D01*
X242461505Y-51571600D01*
X242515680Y-51582376D01*
X242515680Y-51582376D01*
G37*
G36*
X145780379Y-51582376D02*
G01*
X146161092Y-51658104D01*
X146570748Y-51827789D01*
X146939428Y-52074134D01*
X147252965Y-52387671D01*
X147499310Y-52756351D01*
X147668995Y-53166007D01*
X147755499Y-53600896D01*
X147755499Y-54044304D01*
X147668995Y-54479193D01*
X147499310Y-54888849D01*
X147252965Y-55257529D01*
X146939428Y-55571066D01*
X146570748Y-55817411D01*
X146161092Y-55987096D01*
X145780379Y-56062824D01*
X145726204Y-56073600D01*
X145282794Y-56073600D01*
X145228619Y-56062824D01*
X144847906Y-55987096D01*
X144438250Y-55817411D01*
X144069570Y-55571066D01*
X143756033Y-55257529D01*
X143509688Y-54888849D01*
X143340003Y-54479193D01*
X143253499Y-54044304D01*
X143253499Y-53600896D01*
X143340003Y-53166007D01*
X143509688Y-52756351D01*
X143756033Y-52387671D01*
X144069570Y-52074134D01*
X144438250Y-51827789D01*
X144847906Y-51658104D01*
X145228619Y-51582376D01*
X145282794Y-51571600D01*
X145726204Y-51571600D01*
X145780379Y-51582376D01*
X145780379Y-51582376D01*
G37*
G36*
X49120080Y-51582376D02*
G01*
X49500793Y-51658104D01*
X49910449Y-51827789D01*
X50279129Y-52074134D01*
X50592666Y-52387671D01*
X50839011Y-52756351D01*
X51008696Y-53166007D01*
X51095200Y-53600896D01*
X51095200Y-54044304D01*
X51008696Y-54479193D01*
X50839011Y-54888849D01*
X50592666Y-55257529D01*
X50279129Y-55571066D01*
X49910449Y-55817411D01*
X49500793Y-55987096D01*
X49120080Y-56062824D01*
X49065905Y-56073600D01*
X48622495Y-56073600D01*
X48568320Y-56062824D01*
X48187607Y-55987096D01*
X47777951Y-55817411D01*
X47409271Y-55571066D01*
X47095734Y-55257529D01*
X46849389Y-54888849D01*
X46679704Y-54479193D01*
X46593200Y-54044304D01*
X46593200Y-53600896D01*
X46679704Y-53166007D01*
X46849389Y-52756351D01*
X47095734Y-52387671D01*
X47409271Y-52074134D01*
X47777951Y-51827789D01*
X48187607Y-51658104D01*
X48568320Y-51582376D01*
X48622495Y-51571600D01*
X49065905Y-51571600D01*
X49120080Y-51582376D01*
X49120080Y-51582376D01*
G37*
G36*
X241915155Y-33806194D02*
G01*
X242636139Y-33949606D01*
X243427971Y-34277593D01*
X244140600Y-34753757D01*
X244746642Y-35359799D01*
X245222806Y-36072428D01*
X245550793Y-36864260D01*
X245717999Y-37704864D01*
X245717999Y-38561936D01*
X245550793Y-39402540D01*
X245222806Y-40194372D01*
X244746642Y-40907001D01*
X244140600Y-41513043D01*
X243427971Y-41989207D01*
X242636139Y-42317194D01*
X241915155Y-42460606D01*
X241795536Y-42484400D01*
X240938462Y-42484400D01*
X240818843Y-42460606D01*
X240097859Y-42317194D01*
X239306027Y-41989207D01*
X238593398Y-41513043D01*
X237987356Y-40907001D01*
X237511192Y-40194372D01*
X237183205Y-39402540D01*
X237015999Y-38561936D01*
X237015999Y-37704864D01*
X237183205Y-36864260D01*
X237511192Y-36072428D01*
X237987356Y-35359799D01*
X238593398Y-34753757D01*
X239306027Y-34277593D01*
X240097859Y-33949606D01*
X240818843Y-33806194D01*
X240938462Y-33782400D01*
X241795536Y-33782400D01*
X241915155Y-33806194D01*
X241915155Y-33806194D01*
G37*
G36*
X50265157Y-33806194D02*
G01*
X50986141Y-33949606D01*
X51777973Y-34277593D01*
X52490602Y-34753757D01*
X53096644Y-35359799D01*
X53572808Y-36072428D01*
X53900795Y-36864260D01*
X54068001Y-37704864D01*
X54068001Y-38561936D01*
X53900795Y-39402540D01*
X53572808Y-40194372D01*
X53096644Y-40907001D01*
X52490602Y-41513043D01*
X51777973Y-41989207D01*
X50986141Y-42317194D01*
X50265157Y-42460606D01*
X50145538Y-42484400D01*
X49288464Y-42484400D01*
X49168845Y-42460606D01*
X48447861Y-42317194D01*
X47656029Y-41989207D01*
X46943400Y-41513043D01*
X46337358Y-40907001D01*
X45861194Y-40194372D01*
X45533207Y-39402540D01*
X45366001Y-38561936D01*
X45366001Y-37704864D01*
X45533207Y-36864260D01*
X45861194Y-36072428D01*
X46337358Y-35359799D01*
X46943400Y-34753757D01*
X47656029Y-34277593D01*
X48447861Y-33949606D01*
X49168845Y-33806194D01*
X49288464Y-33782400D01*
X50145538Y-33782400D01*
X50265157Y-33806194D01*
X50265157Y-33806194D01*
G37*
G36*
X25992881Y-27532376D02*
G01*
X26373594Y-27608104D01*
X26783250Y-27777789D01*
X27151930Y-28024134D01*
X27465467Y-28337671D01*
X27711812Y-28706351D01*
X27881497Y-29116007D01*
X27968001Y-29550896D01*
X27968001Y-29994304D01*
X27881497Y-30429193D01*
X27711812Y-30838849D01*
X27465467Y-31207529D01*
X27151930Y-31521066D01*
X26783250Y-31767411D01*
X26373594Y-31937096D01*
X25992881Y-32012824D01*
X25938706Y-32023600D01*
X25495296Y-32023600D01*
X25441121Y-32012824D01*
X25060408Y-31937096D01*
X24650752Y-31767411D01*
X24282072Y-31521066D01*
X23968535Y-31207529D01*
X23722190Y-30838849D01*
X23552505Y-30429193D01*
X23466001Y-29994304D01*
X23466001Y-29550896D01*
X23552505Y-29116007D01*
X23722190Y-28706351D01*
X23968535Y-28337671D01*
X24282072Y-28024134D01*
X24650752Y-27777789D01*
X25060408Y-27608104D01*
X25441121Y-27532376D01*
X25495296Y-27521600D01*
X25938706Y-27521600D01*
X25992881Y-27532376D01*
X25992881Y-27532376D01*
G37*
G36*
X265642879Y-27532376D02*
G01*
X266023592Y-27608104D01*
X266433248Y-27777789D01*
X266801928Y-28024134D01*
X267115465Y-28337671D01*
X267361810Y-28706351D01*
X267531495Y-29116007D01*
X267617999Y-29550896D01*
X267617999Y-29994304D01*
X267531495Y-30429193D01*
X267361810Y-30838849D01*
X267115465Y-31207529D01*
X266801928Y-31521066D01*
X266433248Y-31767411D01*
X266023592Y-31937096D01*
X265642879Y-32012824D01*
X265588704Y-32023600D01*
X265145294Y-32023600D01*
X265091119Y-32012824D01*
X264710406Y-31937096D01*
X264300750Y-31767411D01*
X263932070Y-31521066D01*
X263618533Y-31207529D01*
X263372188Y-30838849D01*
X263202503Y-30429193D01*
X263115999Y-29994304D01*
X263115999Y-29550896D01*
X263202503Y-29116007D01*
X263372188Y-28706351D01*
X263618533Y-28337671D01*
X263932070Y-28024134D01*
X264300750Y-27777789D01*
X264710406Y-27608104D01*
X265091119Y-27532376D01*
X265145294Y-27521600D01*
X265588704Y-27521600D01*
X265642879Y-27532376D01*
X265642879Y-27532376D01*
G37*
G36*
X25992881Y-13532376D02*
G01*
X26373594Y-13608104D01*
X26783250Y-13777789D01*
X27151930Y-14024134D01*
X27465467Y-14337671D01*
X27711812Y-14706351D01*
X27881497Y-15116007D01*
X27968001Y-15550896D01*
X27968001Y-15994304D01*
X27881497Y-16429193D01*
X27711812Y-16838849D01*
X27465467Y-17207529D01*
X27151930Y-17521066D01*
X26783250Y-17767411D01*
X26373594Y-17937096D01*
X25992881Y-18012824D01*
X25938706Y-18023600D01*
X25495296Y-18023600D01*
X25441121Y-18012824D01*
X25060408Y-17937096D01*
X24650752Y-17767411D01*
X24282072Y-17521066D01*
X23968535Y-17207529D01*
X23722190Y-16838849D01*
X23552505Y-16429193D01*
X23466001Y-15994304D01*
X23466001Y-15550896D01*
X23552505Y-15116007D01*
X23722190Y-14706351D01*
X23968535Y-14337671D01*
X24282072Y-14024134D01*
X24650752Y-13777789D01*
X25060408Y-13608104D01*
X25441121Y-13532376D01*
X25495296Y-13521600D01*
X25938706Y-13521600D01*
X25992881Y-13532376D01*
X25992881Y-13532376D01*
G37*
G36*
X265642879Y-13257375D02*
G01*
X266023592Y-13333103D01*
X266433248Y-13502788D01*
X266801928Y-13749133D01*
X267115465Y-14062670D01*
X267361810Y-14431350D01*
X267531495Y-14841006D01*
X267617999Y-15275895D01*
X267617999Y-15719303D01*
X267531495Y-16154192D01*
X267361810Y-16563848D01*
X267115465Y-16932528D01*
X266801928Y-17246065D01*
X266433248Y-17492410D01*
X266023592Y-17662095D01*
X265642879Y-17737823D01*
X265588704Y-17748599D01*
X265145294Y-17748599D01*
X265091119Y-17737823D01*
X264710406Y-17662095D01*
X264300750Y-17492410D01*
X263932070Y-17246065D01*
X263618533Y-16932528D01*
X263372188Y-16563848D01*
X263202503Y-16154192D01*
X263115999Y-15719303D01*
X263115999Y-15275895D01*
X263202503Y-14841006D01*
X263372188Y-14431350D01*
X263618533Y-14062670D01*
X263932070Y-13749133D01*
X264300750Y-13502788D01*
X264710406Y-13333103D01*
X265091119Y-13257375D01*
X265145294Y-13246599D01*
X265588704Y-13246599D01*
X265642879Y-13257375D01*
X265642879Y-13257375D01*
G37*
M02*
